<svg width="279" height="33" viewBox="0 0 279 33" fill="#fff" xmlns="http://www.w3.org/2000/svg">
<g clip-path="url(#clip0_16704_1315)">
<path d="M52.9983 12.0171L58.22 0.5L63.4417 12.0171H52.9983Z"/>
<path d="M219.009 12.0171L224.234 0.5L229.456 12.0171H219.009Z"/>
<path d="M131.288 13.5154V19.8065H130.77C130.383 18.1652 129.658 16.9053 128.597 16.031C127.537 15.1567 126.337 14.7196 124.998 14.7196C123.878 14.7196 122.849 15.0454 121.913 15.6972C120.976 16.349 120.294 17.1994 119.86 18.2526C119.306 19.5998 119.027 21.0981 119.027 22.7513C119.027 24.4046 119.23 25.8552 119.637 27.1945C120.043 28.5218 120.677 29.5313 121.542 30.2188C122.407 30.8984 123.527 31.2362 124.902 31.2362C126.03 31.2362 127.067 30.9858 127.999 30.4851C128.944 29.9843 129.937 29.1219 130.977 27.9019V29.4677C129.973 30.5288 128.92 31.3038 127.828 31.7846C126.744 32.2576 125.472 32.496 124.013 32.496C122.1 32.496 120.398 32.1065 118.903 31.3316C117.421 30.5566 116.273 29.4399 115.463 27.9853C114.658 26.5308 114.26 24.9809 114.26 23.3395C114.26 21.6068 114.706 19.9655 115.599 18.4155C116.5 16.8616 117.707 15.6575 119.226 14.803C120.753 13.9446 122.371 13.5154 124.085 13.5154C125.345 13.5154 126.68 13.7936 128.083 14.346C128.896 14.6679 129.41 14.8269 129.634 14.8269C129.917 14.8269 130.16 14.7235 130.359 14.5208C130.574 14.3062 130.71 13.9724 130.77 13.5154H131.288Z"/>
<path d="M139.969 14.9103V22.8626H140.722C141.95 22.8626 142.867 22.7513 143.477 22.5287C144.087 22.2982 144.561 21.8849 144.908 21.2968C145.263 20.7006 145.438 19.9217 145.438 18.9679C145.438 17.5849 145.115 16.5635 144.473 15.9038C143.84 15.2441 142.807 14.9142 141.388 14.9142H139.973L139.969 14.9103ZM139.969 23.8124V28.8993C139.969 29.881 140.025 30.5009 140.14 30.7592C140.264 31.0096 140.475 31.2083 140.774 31.3633C141.073 31.5143 141.635 31.5898 142.456 31.5898V32.0866H133.269V31.5898C134.098 31.5898 134.656 31.5143 134.947 31.3633C135.246 31.2044 135.453 30.9977 135.568 30.7473C135.692 30.497 135.752 29.881 135.752 28.8993V17.1199C135.752 16.1383 135.688 15.5223 135.568 15.2719C135.453 15.0136 135.246 14.8069 134.947 14.6559C134.648 14.5049 134.086 14.4294 133.269 14.4294V13.9326H141.607C143.78 13.9326 145.366 14.0836 146.371 14.3857C147.375 14.6877 148.196 15.252 148.834 16.0707C149.468 16.8815 149.787 17.8353 149.787 18.9361C149.787 20.2754 149.308 21.3802 148.356 22.2585C147.746 22.8109 146.897 23.2242 145.801 23.5024L150.118 29.6465C150.68 30.4413 151.082 30.9381 151.321 31.1328C151.684 31.411 152.103 31.562 152.581 31.5859V32.0826H146.929L141.145 23.8084H139.965L139.969 23.8124Z"/>
<path d="M162.276 31.5899V32.0867H152.893V31.5899H153.486C154.005 31.5899 154.427 31.4945 154.746 31.3077C154.973 31.1806 155.153 30.9699 155.276 30.6639C155.372 30.4493 155.42 29.889 155.42 28.9749V17.0365C155.42 16.1066 155.372 15.5263 155.276 15.2958C155.177 15.0653 154.981 14.8626 154.678 14.6918C154.387 14.5129 153.989 14.4255 153.486 14.4255H152.893V13.9287H162.276V14.4255H161.678C161.16 14.4255 160.737 14.5209 160.422 14.7076C160.191 14.8308 160.012 15.0455 159.88 15.3515C159.784 15.5661 159.737 16.1264 159.737 17.0365V28.9749C159.737 29.9049 159.784 30.4851 159.88 30.7156C159.988 30.9501 160.187 31.1528 160.478 31.3316C160.777 31.5025 161.18 31.5859 161.682 31.5859H162.28L162.276 31.5899Z"/>
<path d="M179.998 13.9328V18.8448H179.519C179.236 17.7122 178.921 16.9015 178.579 16.4087C178.236 15.9079 177.761 15.5105 177.164 15.2164C176.829 15.0574 176.239 14.974 175.402 14.974H174.062V28.975C174.062 29.9049 174.11 30.4852 174.21 30.7157C174.318 30.9501 174.513 31.1528 174.804 31.3317C175.103 31.5026 175.509 31.586 176.024 31.586H176.617V32.0828H167.218V31.586H167.816C168.334 31.586 168.757 31.4906 169.072 31.3038C169.303 31.1767 169.482 30.966 169.614 30.66C169.71 30.4454 169.761 29.8851 169.761 28.971V14.97H168.462C167.254 14.97 166.377 15.2283 165.827 15.745C165.058 16.4683 164.576 17.4976 164.372 18.8369H163.87V13.9248H179.994L179.998 13.9328Z"/>
<path d="M188.363 14.978V22.3659H188.722C189.858 22.3659 190.687 22.0043 191.198 21.281C191.708 20.5577 192.035 19.4926 192.178 18.0818H192.68V27.584H192.178C192.07 26.5468 191.847 25.7003 191.5 25.0406C191.166 24.3808 190.775 23.9397 190.325 23.7172C189.874 23.4827 189.22 23.3674 188.367 23.3674V28.4822C188.367 29.4797 188.407 30.0917 188.487 30.3182C188.575 30.5408 188.734 30.7236 188.965 30.8667C189.197 31.0098 189.567 31.0813 190.077 31.0813H191.15C192.828 31.0813 194.167 30.6878 195.172 29.901C196.188 29.1141 196.917 27.9218 197.356 26.3123H197.846L197.037 32.0828H181.523V31.586H182.117C182.64 31.586 183.058 31.4906 183.377 31.3038C183.604 31.1767 183.784 30.966 183.907 30.66C184.003 30.4454 184.051 29.8851 184.051 28.971V17.0326C184.051 16.21 184.031 15.7052 183.987 15.5184C183.899 15.2045 183.736 14.966 183.497 14.7951C183.162 14.5448 182.703 14.4216 182.121 14.4216H181.527V13.9248H196.551V19.2899H196.049C195.793 17.9785 195.431 17.0366 194.964 16.4643C194.506 15.892 193.852 15.4747 193.007 15.2045C192.513 15.0455 191.588 14.9621 190.229 14.9621H188.375L188.363 14.978Z"/>
<path d="M206.257 14.9103V22.8626H207.011C208.238 22.8626 209.155 22.7513 209.765 22.5288C210.375 22.2983 210.849 21.885 211.196 21.2968C211.551 20.7007 211.726 19.9217 211.726 18.9679C211.726 17.5849 211.403 16.5635 210.761 15.9038C210.128 15.2441 209.095 14.9143 207.676 14.9143H206.261L206.257 14.9103ZM206.257 23.8124V28.8994C206.257 29.881 206.313 30.501 206.429 30.7593C206.552 31.0097 206.763 31.2084 207.062 31.3634C207.361 31.5144 207.923 31.5899 208.744 31.5899V32.0867H199.557V31.5899C200.386 31.5899 200.944 31.5144 201.239 31.3634C201.538 31.2044 201.745 30.9977 201.861 30.7474C201.984 30.497 202.048 29.881 202.048 28.8994V17.1199C202.048 16.1383 201.984 15.5223 201.861 15.2719C201.745 15.0136 201.538 14.807 201.239 14.6559C200.94 14.5049 200.378 14.4294 199.557 14.4294V13.9326H207.895C210.068 13.9326 211.654 14.0837 212.663 14.3857C213.667 14.6877 214.488 15.2521 215.126 16.0708C215.76 16.8815 216.079 17.8353 216.079 18.9361C216.079 20.2754 215.6 21.3802 214.652 22.2585C214.042 22.8109 213.189 23.2243 212.097 23.5024L216.414 29.6465C216.976 30.4413 217.378 30.9381 217.617 31.1329C217.98 31.411 218.399 31.5621 218.877 31.5859V32.0827H213.225L207.441 23.8085H206.261L206.257 23.8124Z"/>
<path d="M228.563 31.5899V32.0867H219.176V31.5899H219.774C220.296 31.5899 220.714 31.4946 221.033 31.3078C221.265 31.1806 221.44 30.97 221.563 30.664C221.659 30.4494 221.707 29.889 221.707 28.9749V17.0365C221.707 16.1066 221.659 15.5264 221.563 15.2959C221.464 15.0654 221.269 14.8627 220.966 14.6918C220.675 14.5129 220.276 14.4255 219.774 14.4255H219.176V13.9287H228.563V14.4255H227.965C227.443 14.4255 227.024 14.5209 226.709 14.7077C226.478 14.8309 226.299 15.0455 226.167 15.3515C226.072 15.5661 226.024 16.1265 226.024 17.0365V28.9749C226.024 29.9049 226.072 30.4851 226.167 30.7156C226.275 30.9501 226.474 31.1528 226.765 31.3316C227.064 31.5025 227.467 31.586 227.969 31.586H228.567L228.563 31.5899Z"/>
<path d="M240.01 25.9271L237.336 19.6757L234.581 25.9271H240.006H240.01ZM240.461 26.9167H234.119L233.366 28.6852C233.119 29.2734 232.995 29.7582 232.995 30.1437C232.995 30.6524 233.198 31.026 233.605 31.2684C233.844 31.4115 234.43 31.5188 235.363 31.5903V32.0871H229.392V31.5903C230.037 31.491 230.563 31.2247 230.982 30.7875C231.397 30.3424 231.907 29.4284 232.517 28.0453L238.934 13.5635H239.185L245.659 28.4467C246.276 29.8576 246.783 30.7438 247.181 31.1094C247.48 31.3876 247.907 31.5466 248.453 31.5903V32.0871H239.771V31.5903H240.13C240.828 31.5903 241.318 31.4909 241.597 31.2962C241.792 31.1531 241.888 30.9465 241.888 30.6802C241.888 30.5213 241.86 30.3543 241.808 30.1835C241.792 30.104 241.657 29.7701 241.409 29.182L240.457 26.9167H240.461Z"/>
<path d="M257.031 31.8645V32.1388H251.825V31.8645H252.156C252.443 31.8645 252.678 31.8129 252.854 31.7096C252.981 31.638 253.077 31.5228 253.149 31.3519C253.204 31.2327 253.228 30.9227 253.228 30.4179V23.797C253.228 23.2803 253.2 22.9584 253.149 22.8313C253.097 22.7041 252.985 22.5928 252.818 22.4974C252.654 22.3981 252.435 22.3504 252.156 22.3504H251.825V22.0762H257.031V22.3504H256.7C256.413 22.3504 256.182 22.4021 256.003 22.5054C255.875 22.5769 255.775 22.6922 255.7 22.8591C255.648 22.9783 255.62 23.2923 255.62 23.797V30.4179C255.62 30.9306 255.648 31.2525 255.7 31.3837C255.759 31.5108 255.871 31.6261 256.03 31.7255C256.194 31.8208 256.417 31.8685 256.696 31.8685H257.027L257.031 31.8645Z"/>
<path d="M261.117 22.0762L266.028 28.3156V23.9877C266.028 23.3837 265.944 22.9743 265.773 22.7637C265.538 22.4776 265.143 22.3385 264.593 22.3504V22.0762H267.882V22.3504C267.459 22.406 267.176 22.4776 267.029 22.565C266.889 22.6485 266.774 22.7915 266.69 22.9902C266.61 23.185 266.574 23.5148 266.574 23.9917V32.3693H266.323L259.595 23.9917V30.3901C259.595 30.9704 259.726 31.3598 259.985 31.5625C260.248 31.7652 260.551 31.8645 260.89 31.8645H261.125V32.1388H257.594V31.8645C258.144 31.8606 258.522 31.7453 258.738 31.5228C258.953 31.3002 259.061 30.9227 259.061 30.3862V23.2843L258.849 23.018C258.638 22.7518 258.451 22.5769 258.291 22.4895C258.132 22.406 257.901 22.3583 257.594 22.3504V22.0762H261.125H261.117Z"/>
<path d="M278.261 21.8457V25.335H277.974C277.759 24.4249 277.356 23.7295 276.77 23.2406C276.184 22.7558 275.519 22.5134 274.773 22.5134C274.152 22.5134 273.582 22.6922 273.063 23.0539C272.545 23.4155 272.166 23.8884 271.927 24.4726C271.62 25.2198 271.465 26.0504 271.465 26.9644C271.465 27.8785 271.577 28.6852 271.804 29.4284C272.031 30.1676 272.382 30.724 272.86 31.1055C273.338 31.4791 273.96 31.6698 274.725 31.6698C275.351 31.6698 275.925 31.5308 276.443 31.2526C276.966 30.9744 277.52 30.4975 278.094 29.8219V30.6882C277.536 31.2764 276.954 31.7056 276.348 31.9719C275.746 32.2342 275.04 32.3653 274.235 32.3653C273.175 32.3653 272.23 32.1507 271.405 31.7215C270.584 31.2923 269.946 30.6723 269.496 29.8656C269.049 29.0588 268.826 28.2004 268.826 27.2903C268.826 26.3286 269.073 25.4225 269.568 24.5601C270.066 23.7016 270.735 23.03 271.577 22.5571C272.422 22.0842 273.322 21.8457 274.271 21.8457C274.969 21.8457 275.71 22.0007 276.487 22.3067C276.938 22.4855 277.225 22.573 277.348 22.573C277.504 22.573 277.639 22.5173 277.751 22.4021C277.866 22.2829 277.942 22.0961 277.978 21.8457H278.265H278.261Z"/>
<path d="M6.93968 14.6524V28.8164C6.93968 29.5675 6.97555 30.0245 7.0473 30.1954C7.11905 30.3663 7.23863 30.4935 7.41003 30.5849C7.65318 30.72 7.99996 30.7836 8.45437 30.7836C9.94913 30.7836 11.0891 30.2749 11.8784 29.2575C12.9546 27.8824 13.4887 25.7523 13.4887 22.8591C13.4887 20.5302 13.122 18.6703 12.3886 17.2754C11.8066 16.1865 11.0573 15.4473 10.1484 15.0538C9.5027 14.7796 8.43444 14.6405 6.93968 14.6524ZM0 31.7731V31.2764H0.601891C1.13203 31.2764 1.53462 31.1969 1.80966 31.0339C2.09665 30.867 2.30791 30.6365 2.43945 30.3504C2.51917 30.1636 2.55903 29.6032 2.55903 28.6653V16.7269C2.55903 15.797 2.5112 15.2168 2.41155 14.9863C2.3119 14.7558 2.1126 14.5531 1.80567 14.3862C1.51071 14.2073 1.10812 14.1159 0.597905 14.1159H0V13.6191H8.14745C10.3238 13.6191 12.0737 13.9132 13.3971 14.5014C15.0194 15.2247 16.2431 16.3176 17.0762 17.7801C17.9172 19.2426 18.3357 20.8998 18.3357 22.7478C18.3357 24.0235 18.1285 25.2038 17.7179 26.2808C17.3034 27.3539 16.7732 28.2401 16.1195 28.9435C15.4658 29.639 14.7085 30.2033 13.8515 30.6326C12.9984 31.0538 11.9581 31.3797 10.7224 31.6102C10.1763 31.7175 9.31934 31.7692 8.14745 31.7692H0V31.7731Z"/>
<path d="M26.9853 14.6684V22.0564H27.3481C28.504 22.0564 29.3411 21.6947 29.8593 20.9714C30.3774 20.2481 30.7083 19.183 30.8518 17.7722H31.362V27.2745H30.8518C30.7442 26.2372 30.517 25.3907 30.1662 24.731C29.8274 24.0713 29.4288 23.6301 28.9704 23.4036C28.512 23.1731 27.8503 23.0539 26.9813 23.0539V28.1686C26.9813 29.1701 27.0212 29.7822 27.1049 30.0007C27.1966 30.2233 27.356 30.4061 27.5872 30.5492C27.8224 30.6922 28.1971 30.7638 28.7153 30.7638H29.8035C31.5055 30.7638 32.8647 30.3703 33.8852 29.5874C34.9136 28.8005 35.651 27.6043 36.1014 25.9987H36.5996L35.7785 31.7692H20.0457V31.2725H20.6475C21.1737 31.2725 21.6002 31.1771 21.9231 30.9903C22.1543 30.8671 22.3336 30.6525 22.4612 30.3465C22.5608 30.1319 22.6087 29.5715 22.6087 28.6614V16.723C22.6087 15.9004 22.5887 15.3957 22.5409 15.2089C22.4532 14.8949 22.2858 14.6565 22.0427 14.4856C21.7038 14.2352 21.2375 14.112 20.6475 14.112H20.0457V13.6152H35.2843V18.9843H34.774C34.5149 17.6729 34.1482 16.731 33.6739 16.1587C33.2075 15.5904 32.5458 15.1691 31.6849 14.9029C31.1826 14.7399 30.2459 14.6644 28.8667 14.6644H26.9853V14.6684Z"/>
<path d="M50.7506 13.2092L50.8981 19.2579H50.348C50.0889 17.7397 49.4472 16.5236 48.4267 15.6016C47.4143 14.6717 46.3181 14.2107 45.1383 14.2107C44.2255 14.2107 43.5 14.4571 42.9619 14.9459C42.4357 15.4268 42.1727 15.9871 42.1727 16.619C42.1727 17.0204 42.2643 17.3781 42.4557 17.6881C42.7148 18.1093 43.1293 18.5227 43.7033 18.932C44.1258 19.2261 45.0944 19.7507 46.6171 20.4978C48.7456 21.543 50.1846 22.5286 50.926 23.4586C51.6594 24.3885 52.0261 25.4496 52.0261 26.6419C52.0261 28.16 51.4282 29.4675 50.2404 30.5644C49.0605 31.6533 47.5538 32.1978 45.7282 32.1978C45.1542 32.1978 44.6121 32.1421 44.1019 32.0229C43.5917 31.9076 42.9539 31.6891 42.1806 31.3672C41.7501 31.1883 41.3994 31.0969 41.1203 31.0969C40.8892 31.0969 40.642 31.1883 40.3829 31.3672C40.1238 31.546 39.9126 31.8162 39.7531 32.1858H39.2549V25.3304H39.7531C40.1478 27.2579 40.9011 28.7283 42.0212 29.7457C43.1492 30.7551 44.361 31.2599 45.6604 31.2599C46.6609 31.2599 47.4581 30.9856 48.0481 30.4412C48.65 29.8967 48.9489 29.2609 48.9489 28.5376C48.9489 28.1083 48.8333 27.695 48.5981 27.2936C48.3749 26.8922 48.0321 26.5107 47.5658 26.157C47.0994 25.7914 46.2743 25.3185 45.0944 24.7383C43.4402 23.9235 42.2484 23.232 41.5229 22.6637C40.7975 22.0915 40.2394 21.4556 39.8448 20.7482C39.4622 20.0448 39.2668 19.2658 39.2668 18.4193C39.2668 16.9727 39.801 15.7407 40.8652 14.7233C41.9295 13.706 43.2728 13.1973 44.8951 13.1973C45.485 13.1973 46.059 13.2688 46.6131 13.4119C47.0316 13.5192 47.5458 13.7179 48.1437 14.0159C48.7536 14.3021 49.1761 14.4452 49.4193 14.4452C49.6624 14.4452 49.8338 14.3736 49.9693 14.2305C50.1049 14.0875 50.2284 13.7457 50.348 13.2012H50.7506V13.2092Z"/>
<path d="M63.1944 31.2803V31.777H53.6758V31.2803H54.2777C54.8038 31.2803 55.2343 31.1849 55.5532 30.9981C55.7884 30.8749 55.9677 30.6603 56.0913 30.3543C56.191 30.1397 56.2388 29.5793 56.2388 28.6692V16.7308C56.2388 15.8009 56.191 15.2207 56.0913 14.9902C55.9917 14.7597 55.7924 14.557 55.4894 14.3901C55.1945 14.2112 54.7919 14.1198 54.2817 14.1198H53.6798V13.623H63.1984V14.1198H62.5925C62.0664 14.1198 61.6399 14.2152 61.317 14.402C61.0818 14.5292 60.8985 14.7438 60.7669 15.0458C60.6673 15.2604 60.6194 15.8208 60.6194 16.7348V28.6732C60.6194 29.6032 60.6673 30.1794 60.7669 30.4139C60.8746 30.6444 61.0739 30.8511 61.3728 31.0299C61.6757 31.2008 62.0823 31.2843 62.5965 31.2843H63.2024L63.1944 31.2803Z"/>
<path d="M82.7977 13.2094V19.6078H82.2995C81.7016 17.8592 80.8007 16.5278 79.6009 15.6178C78.4011 14.7077 77.0897 14.2506 75.6667 14.2506C74.2437 14.2506 73.1755 14.6361 72.2706 15.4031C71.3658 16.1622 70.7241 17.2233 70.3494 18.5904C69.9747 19.9575 69.7834 21.3565 69.7834 22.7951C69.7834 24.5358 69.9906 26.0619 70.4012 27.3733C70.8117 28.6848 71.4734 29.6466 72.3862 30.2626C73.307 30.8786 74.3992 31.1846 75.6628 31.1846C76.1012 31.1846 76.5476 31.1409 77.006 31.0494C77.4724 30.9501 77.9467 30.815 78.4291 30.6361V26.8607C78.4291 26.1453 78.3812 25.6883 78.2816 25.4816C78.1819 25.267 77.9746 25.0763 77.6637 24.9054C77.3608 24.7345 76.9861 24.651 76.5476 24.651H76.0773V24.1543H84.9263V24.651C84.2566 24.6948 83.7863 24.7901 83.5152 24.9332C83.2561 25.0683 83.0528 25.2949 82.9094 25.6168C82.8296 25.7877 82.7898 26.201 82.7898 26.8607V30.6361C81.6258 31.1528 80.4141 31.5422 79.1505 31.8006C77.8949 32.0668 76.5955 32.202 75.2442 32.202C73.5143 32.202 72.0793 31.9715 70.9353 31.5065C69.7993 31.0336 68.7908 30.4176 67.9139 29.6585C67.045 28.8915 66.3633 28.0291 65.8731 27.0753C65.2472 25.8433 64.9363 24.4643 64.9363 22.9382C64.9363 20.2079 65.897 17.8989 67.8222 16.0191C69.7435 14.1354 72.167 13.1935 75.0848 13.1935C75.9896 13.1935 76.8028 13.265 77.5282 13.4081C77.9228 13.4797 78.5566 13.6823 79.4335 14.0241C80.3184 14.354 80.8446 14.5209 81.004 14.5209C81.2551 14.5209 81.4863 14.4295 81.7016 14.2506C81.9168 14.0639 82.1161 13.7181 82.2915 13.2094H82.7898H82.7977Z"/>
<path d="M92.0619 13.6231L101.046 24.8819V17.0767C101.046 15.9877 100.891 15.2525 100.576 14.867C100.146 14.3504 99.4241 14.1 98.4156 14.1159V13.6191H104.431V14.1159C103.661 14.2153 103.143 14.3424 102.872 14.5054C102.613 14.6564 102.406 14.9107 102.254 15.2684C102.111 15.6142 102.039 16.2182 102.039 17.0767V32.1904H101.584L89.2716 17.0767V28.6177C89.2716 29.6589 89.5068 30.3663 89.9851 30.7319C90.4675 31.0975 91.0175 31.2803 91.6354 31.2803H92.0659V31.7771H85.6085V31.2803C86.613 31.2724 87.3105 31.0657 87.7011 30.6643C88.0958 30.263 88.2911 29.5794 88.2911 28.6177V15.8089L87.9005 15.3241C87.5178 14.8432 87.175 14.5253 86.88 14.3742C86.5851 14.2232 86.1586 14.1398 85.6045 14.1199V13.6231H92.0619Z"/>
</g>
<defs>
<clipPath id="clip0_16704_1315">
<rect width="278.261" height="32" fill="white" transform="translate(0 0.5)"/>
</clipPath>
</defs>
</svg>
