<svg width="153" height="42" viewBox="0 0 153 42" fill="none" xmlns="http://www.w3.org/2000/svg">
<g clip-path="url(#clip0_14834_376)">
<path d="M58.694 11.2949L51.4639 31.1684H54.6812L56.5204 25.9081H64.3687L66.2053 31.1684H69.4227L62.1925 11.2949H58.6915H58.694ZM57.4045 23.3869L60.3711 14.9062H60.5281L63.4896 23.3869H57.4045Z" fill="white"/>
<path d="M74.3272 11.2949H71.3936V31.1684H74.3272V11.2949Z" fill="white"/>
<path d="M83.9458 28.7326C83.7685 28.7651 83.5633 28.7802 83.3277 28.7802C83.0085 28.7802 82.7121 28.7301 82.441 28.6298C82.1699 28.5296 81.9495 28.3391 81.7798 28.0559C81.6101 27.7752 81.5239 27.3517 81.5239 26.7903V18.5903H84.6146V16.2621H81.5239V12.6909H78.5903V16.2621H76.3838V18.5903H78.5903V27.3918C78.5903 28.2915 78.7955 29.0383 79.2085 29.6323C79.6214 30.2262 80.161 30.6673 80.8273 30.953C81.4935 31.2387 82.213 31.374 82.9857 31.3615C83.4569 31.354 83.8495 31.3189 84.1637 31.2487C84.4778 31.181 84.7185 31.1134 84.8907 31.0507L84.3613 28.6549C84.2625 28.6749 84.1257 28.7 83.9483 28.7326H83.9458Z" fill="white"/>
<path d="M96.9548 17.0416C96.362 16.6732 95.7286 16.4201 95.0522 16.2798C94.3758 16.1419 93.7349 16.0718 93.1345 16.0718C92.225 16.0718 91.3586 16.1996 90.5353 16.4552C89.712 16.7108 88.9849 17.1193 88.3516 17.6782C87.7208 18.2371 87.242 18.9714 86.9152 19.8761L89.6714 20.4976C89.8868 19.9738 90.2769 19.4976 90.8444 19.0666C91.4093 18.6355 92.187 18.4225 93.175 18.4225C94.163 18.4225 94.8369 18.6556 95.3182 19.1217C95.7996 19.5879 96.0402 20.2445 96.0402 21.0915V21.1592C96.0402 21.5075 95.9136 21.7607 95.6577 21.916C95.4018 22.0714 94.994 22.1817 94.4316 22.2519C93.8692 22.3195 93.137 22.4047 92.2352 22.51C91.5233 22.5952 90.8216 22.718 90.135 22.8784C89.4485 23.0413 88.8278 23.2794 88.2705 23.5976C87.7157 23.9159 87.2724 24.3445 86.9456 24.8883C86.6188 25.4321 86.4541 26.1238 86.4541 26.9659C86.4541 27.9432 86.677 28.7678 87.1254 29.4394C87.5738 30.111 88.1844 30.6248 88.9545 30.9782C89.7272 31.3315 90.5885 31.5069 91.5436 31.5069C92.3745 31.5069 93.0864 31.3867 93.6817 31.1486C94.277 30.908 94.7634 30.6073 95.1434 30.2464C95.5234 29.8855 95.8072 29.5146 95.9972 29.1412H96.1162V31.1786H98.9814V21.2795C98.9814 20.1918 98.7914 19.3072 98.4114 18.6255C98.0314 17.9438 97.5476 17.4176 96.9548 17.0492V17.0416ZM96.0478 25.7955C96.0478 26.3844 95.8958 26.9358 95.5918 27.4495C95.2878 27.9633 94.847 28.3793 94.2669 28.6951C93.6893 29.0109 92.9926 29.1712 92.182 29.1712C91.3713 29.1712 90.667 28.9883 90.1325 28.6224C89.5954 28.2565 89.3269 27.7152 89.3269 26.9959C89.3269 26.4772 89.4662 26.0637 89.7449 25.7479C90.0236 25.4346 90.396 25.194 90.8621 25.0261C91.3308 24.8582 91.8476 24.7379 92.4176 24.6678C92.6582 24.6352 92.9597 24.5951 93.3194 24.5475C93.6792 24.4998 94.049 24.4447 94.429 24.3821C94.809 24.3219 95.146 24.2467 95.4449 24.159C95.7438 24.0713 95.944 23.9761 96.0478 23.8733V25.7955Z" fill="white"/>
<path d="M112.338 16.7059C111.565 16.2824 110.666 16.0693 109.64 16.0693C108.507 16.0693 107.573 16.3099 106.83 16.7886C106.088 17.2673 105.543 17.9013 105.196 18.6907H105.009V16.2648H102.194V31.1712H105.128V22.3221C105.128 21.5327 105.28 20.8585 105.584 20.2997C105.888 19.7408 106.303 19.3148 106.83 19.024C107.357 18.7333 107.96 18.588 108.639 18.588C109.632 18.588 110.415 18.8937 110.982 19.5052C111.552 20.1167 111.836 20.9638 111.836 22.0439V31.1762H114.77V21.6956C114.77 20.4676 114.557 19.435 114.131 18.6005C113.706 17.766 113.108 17.1369 112.335 16.7134L112.338 16.7059Z" fill="white"/>
<path d="M120.936 16.2646H118.002V31.171H120.936V16.2646Z" fill="white"/>
<path d="M119.484 10.5005C118.975 10.5005 118.537 10.6709 118.175 11.0092C117.812 11.3476 117.63 11.7586 117.63 12.2372C117.63 12.7159 117.812 13.1144 118.175 13.4552C118.537 13.796 118.975 13.9639 119.484 13.9639C119.993 13.9639 120.432 13.7935 120.794 13.4552C121.156 13.1144 121.339 12.7084 121.339 12.2372C121.339 11.7661 121.156 11.3501 120.794 11.0092C120.432 10.6684 119.993 10.5005 119.484 10.5005Z" fill="white"/>
<path d="M134.329 16.7054C133.556 16.2819 132.657 16.0688 131.631 16.0688C130.499 16.0688 129.564 16.3094 128.822 16.7881C128.079 17.2668 127.535 17.9008 127.188 18.6902H127V16.2643H124.186V31.1707H127.119V22.3216C127.119 21.5322 127.271 20.858 127.575 20.2992C127.879 19.7403 128.295 19.3143 128.822 19.0236C129.348 18.7328 129.951 18.5875 130.63 18.5875C131.623 18.5875 132.406 18.8932 132.974 19.5047C133.544 20.1162 133.827 20.9633 133.827 22.0434V31.1757H136.761V21.6951C136.761 20.4671 136.548 19.4346 136.123 18.6C135.697 17.7655 135.099 17.1365 134.326 16.7129L134.329 16.7054Z" fill="white"/>
<path d="M152.955 23.5622C152.955 22.2089 152.772 21.0611 152.405 20.1113C152.038 19.164 151.539 18.3921 150.905 17.7956C150.272 17.2017 149.555 16.7631 148.757 16.4849C147.959 16.2067 147.136 16.0664 146.284 16.0664C144.886 16.0664 143.665 16.3922 142.621 17.0463C141.578 17.7004 140.767 18.6076 140.189 19.773C139.612 20.9383 139.32 22.2841 139.32 23.8103C139.32 25.3365 139.609 26.7049 140.189 27.8527C140.769 29.0005 141.593 29.8901 142.662 30.5217C143.731 31.1532 145.008 31.4665 146.492 31.4665C147.592 31.4665 148.57 31.3011 149.431 30.9678C150.29 30.6345 151.007 30.1658 151.579 29.5618C152.152 28.9579 152.549 28.2511 152.772 27.4417L149.996 26.948C149.818 27.4141 149.565 27.8051 149.231 28.1233C148.896 28.4416 148.501 28.6772 148.043 28.8376C147.584 28.9955 147.077 29.0757 146.523 29.0757C145.666 29.0757 144.916 28.8927 144.276 28.5268C143.635 28.1609 143.136 27.6296 142.778 26.9304C142.446 26.2813 142.272 25.4994 142.249 24.5922H152.957V23.5647L152.955 23.5622ZM142.251 22.4169C142.287 21.7753 142.449 21.1764 142.74 20.6175C143.07 19.981 143.541 19.4622 144.154 19.0637C144.764 18.6652 145.484 18.4673 146.307 18.4673C147.065 18.4673 147.728 18.6377 148.293 18.981C148.858 19.3244 149.299 19.7905 149.613 20.3844C149.927 20.9759 150.084 21.655 150.084 22.4169H142.254H142.251Z" fill="white"/>
<path d="M24.4432 17.5402C23.7009 17.5126 22.9485 17.5001 22.1834 17.5001C21.4184 17.5001 20.666 17.5126 19.9237 17.5402C19.7261 17.5452 19.5285 17.5527 19.3309 17.5627C19.1333 17.5727 18.9357 17.5828 18.7381 17.5928C16.182 17.7281 13.7829 18.0163 11.622 18.4273C11.4218 18.4649 11.2242 18.5025 11.0292 18.5451C10.829 18.5852 10.6289 18.6278 10.4338 18.6704C8.08037 19.1867 6.0613 19.8533 4.49317 20.6277C4.24997 20.7505 4.01437 20.8733 3.7965 20.9986C4.0169 21.1239 4.24997 21.2467 4.49317 21.3695C6.05877 22.1464 8.08037 22.813 10.4338 23.3268C10.525 25.8304 10.7606 28.2413 11.133 30.4742C5.0277 29.2462 0.954102 27.0308 0.954102 24.4997V17.5001C0.954102 14.9689 5.0277 12.751 11.1305 11.523C11.3332 11.4804 11.5384 11.4403 11.7486 11.4027C11.9538 11.3626 12.159 11.3275 12.3668 11.2924C14.5733 10.914 17.0053 10.6559 19.5792 10.5531C19.7768 10.5456 19.9769 10.5381 20.1796 10.5306C20.3772 10.5255 20.5773 10.518 20.78 10.5155C21.241 10.5055 21.7072 10.5005 22.1784 10.5005C22.6496 10.5005 23.1132 10.5055 23.5768 10.5155C24.0049 12.6583 24.2988 15.0366 24.4406 17.5402H24.4432Z" fill="url(#paint0_linear_14834_376)"/>
<path d="M31.8582 31.9303C30.6169 37.9701 28.3749 41.9974 25.8162 41.9974H18.7406C16.182 41.9974 13.94 37.9676 12.6986 31.9303C12.6556 31.7298 12.615 31.5268 12.577 31.3188C12.5365 31.1158 12.501 30.9128 12.4656 30.7073C12.083 28.5245 11.8221 26.1186 11.7182 23.5724C11.7106 23.3769 11.703 23.1765 11.6954 22.9785C11.6904 22.783 11.6828 22.585 11.6802 22.3845C11.6701 21.9284 11.665 21.4673 11.665 21.0011C11.665 20.535 11.6701 20.0764 11.6802 19.6178C13.8462 19.1942 16.2504 18.9035 18.7812 18.7632C18.7533 19.4975 18.7406 20.2418 18.7406 20.9986C18.7406 21.7555 18.7533 22.4998 18.7812 23.2341C18.7862 23.4296 18.7938 23.625 18.804 23.8205C18.8141 24.016 18.8242 24.2115 18.8344 24.407C18.9712 26.9356 19.2625 29.3089 19.678 31.4466C19.716 31.6446 19.754 31.8401 19.797 32.0331C19.8376 32.2311 19.8806 32.429 19.9237 32.622C20.4456 34.9502 21.1194 36.9476 21.9022 38.4988C22.0264 38.7394 22.1505 38.9725 22.2772 39.188C22.4038 38.97 22.528 38.7394 22.6521 38.4988C23.4374 36.9501 24.1113 34.9502 24.6306 32.622C27.1614 32.5318 29.5985 32.2987 31.8557 31.9303H31.8582Z" fill="url(#paint1_linear_14834_376)"/>
<path d="M11.1313 30.4767C11.035 30.4567 10.9413 30.4366 10.845 30.4191C10.7513 30.399 10.6575 30.379 10.5638 30.3589C10.2649 30.2938 9.971 30.2286 9.68473 30.161C9.54793 30.1259 9.41113 30.0933 9.27687 30.0607C8.81073 29.9429 8.3598 29.8176 7.92407 29.6873C7.843 29.6647 7.76193 29.6397 7.6834 29.6146C7.5998 29.5896 7.51873 29.562 7.43513 29.5369C7.273 29.4868 7.11593 29.4342 6.9614 29.3816C6.80687 29.3289 6.65487 29.2763 6.5054 29.2212C6.43953 29.1986 6.37367 29.1736 6.31033 29.151C5.56047 28.8728 4.879 28.5746 4.271 28.2613C4.1874 28.2187 4.10633 28.1736 4.02527 28.131C3.56673 27.8829 3.15633 27.6248 2.79407 27.3566C2.7358 27.3115 2.675 27.2689 2.6218 27.2238C2.55847 27.1762 2.49513 27.1235 2.43687 27.0759C2.30007 26.9632 2.17593 26.8504 2.05687 26.7351C2.0062 26.6825 1.95553 26.6323 1.9074 26.5797C1.80607 26.4745 1.71487 26.3692 1.63127 26.264C1.58313 26.2038 1.53753 26.1411 1.49447 26.081C1.459 26.0334 1.4286 25.9833 1.39567 25.9331C1.383 25.9181 1.37287 25.9031 1.36527 25.8855C1.33487 25.8379 1.307 25.7878 1.28167 25.7377C1.25633 25.69 1.231 25.6424 1.2082 25.5948C1.19807 25.5798 1.193 25.5647 1.1854 25.5472C1.1626 25.4946 1.1398 25.4419 1.11953 25.3893C1.09673 25.3317 1.07647 25.2715 1.05873 25.2139C1.05873 25.2089 1.05367 25.2064 1.05367 25.2014C1.03847 25.1537 1.0258 25.1036 1.01313 25.056C0.995399 24.9808 0.980199 24.9031 0.970066 24.8254C0.962466 24.7778 0.957399 24.7302 0.954866 24.6826C0.954866 24.6776 0.954866 24.6751 0.954866 24.6701C0.949799 24.6124 0.947266 24.5548 0.947266 24.4971C0.947266 23.2215 1.98087 22.0286 3.78713 20.9961C4.00753 21.1214 4.2406 21.2442 4.4838 21.367C4.7802 21.5149 5.09433 21.6577 5.42367 21.7955C5.52753 21.8407 5.63393 21.8833 5.74287 21.9259C5.85433 21.9735 5.96833 22.0161 6.08233 22.0612C6.19887 22.1063 6.3154 22.1489 6.43193 22.1915C6.551 22.2341 6.67007 22.2767 6.79167 22.3193C6.87273 22.3494 6.9538 22.3745 7.03993 22.402C7.16407 22.4446 7.2882 22.4847 7.41487 22.5273C7.5238 22.5599 7.63273 22.595 7.7442 22.6301C8.06087 22.7253 8.38767 22.818 8.72207 22.9108C8.82593 22.9408 8.92727 22.9684 9.03367 22.9935C9.34273 23.0737 9.6594 23.1514 9.9862 23.2265C10.1002 23.2541 10.2167 23.2792 10.3333 23.3042C10.3637 23.3092 10.3941 23.3168 10.4245 23.3243C10.5157 25.8279 10.7513 28.2388 11.1237 30.4717L11.1313 30.4767Z" fill="#00ACEA"/>
<path d="M20.0176 24.4448C20.7598 24.4724 21.5122 24.4849 22.2773 24.4849C23.0424 24.4849 23.7948 24.4724 24.537 24.4448C24.7346 24.4398 24.9322 24.4323 25.1298 24.4223C25.3274 24.4122 25.525 24.4022 25.7226 24.3922C28.2788 24.2568 30.6778 23.9686 32.8388 23.5576C33.0389 23.5201 33.2365 23.4825 33.4316 23.4399C33.6317 23.3998 33.8318 23.3572 34.0269 23.3145C36.3804 22.7983 38.3994 22.1317 39.9676 21.3573C40.2108 21.2345 40.4464 21.1117 40.6642 20.9864C40.4438 20.8611 40.2108 20.7383 39.9676 20.6155C38.402 19.8386 36.3804 19.1719 34.0269 18.6582C33.9357 16.1546 33.7001 13.7437 33.3277 11.5107C39.433 12.7387 43.5041 14.9567 43.5041 17.4878V24.4874C43.5041 27.0186 39.4305 29.2365 33.3277 30.4645C33.125 30.5071 32.9198 30.5472 32.7096 30.5848C32.5044 30.6249 32.2992 30.66 32.0914 30.6951C29.8849 31.0735 27.4529 31.3316 24.879 31.4344C24.6814 31.4419 24.4813 31.4494 24.2786 31.4569C24.081 31.4619 23.8809 31.4694 23.6782 31.472C23.2172 31.482 22.751 31.487 22.2798 31.487C21.8086 31.487 21.345 31.482 20.8814 31.472C20.4533 29.3292 20.1594 26.9509 20.0176 24.4473V24.4448Z" fill="url(#paint2_linear_14834_376)"/>
<path d="M33.3281 11.5083C33.4244 11.5283 33.5181 11.5484 33.6144 11.5659C33.7081 11.586 33.8019 11.606 33.8956 11.6261C34.1945 11.6912 34.4884 11.7564 34.7747 11.8241C34.9115 11.8592 35.0483 11.8917 35.1825 11.9243C35.6487 12.0421 36.0996 12.1674 36.5353 12.2977C36.6164 12.3203 36.6975 12.3453 36.776 12.3704C36.8596 12.3955 36.9407 12.423 37.0243 12.4481C37.1864 12.4982 37.3435 12.5508 37.498 12.6035C37.6525 12.6561 37.8045 12.7087 37.954 12.7639C38.0199 12.7864 38.0857 12.8115 38.1491 12.834C38.8989 13.1122 39.5804 13.4104 40.1884 13.7237C40.272 13.7663 40.3531 13.8114 40.4341 13.854C40.8927 14.1021 41.3031 14.3603 41.6653 14.6284C41.7236 14.6735 41.7844 14.7161 41.8376 14.7612C41.9009 14.8089 41.9643 14.8615 42.0225 14.9091C42.1593 15.0219 42.2835 15.1347 42.4025 15.2499C42.4532 15.3026 42.5039 15.3527 42.552 15.4053C42.6533 15.5106 42.7445 15.6158 42.8281 15.7211C42.8763 15.7812 42.9219 15.8439 42.9649 15.904C43.0004 15.9516 43.0308 16.0018 43.0637 16.0519C43.0764 16.0669 43.0865 16.082 43.0941 16.0995C43.1245 16.1471 43.1524 16.1972 43.1777 16.2474C43.2031 16.295 43.2284 16.3426 43.2512 16.3902C43.2613 16.4053 43.2664 16.4203 43.274 16.4378C43.2968 16.4905 43.3196 16.5431 43.3399 16.5957C43.3627 16.6534 43.3829 16.7135 43.4007 16.7711C43.4007 16.7762 43.4057 16.7787 43.4057 16.7837C43.4209 16.8313 43.4336 16.8814 43.4463 16.929C43.464 17.0042 43.4792 17.0819 43.4893 17.1596C43.4969 17.2072 43.502 17.2548 43.5045 17.3024C43.5045 17.3075 43.5045 17.31 43.5045 17.315C43.5096 17.3726 43.5121 17.4303 43.5121 17.4879C43.5121 18.7635 42.4785 19.9564 40.6723 20.9889C40.4519 20.8636 40.2188 20.7408 39.9756 20.618C39.6792 20.4702 39.3651 20.3273 39.0357 20.1895C38.9319 20.1444 38.8255 20.1018 38.7165 20.0592C38.6051 20.0116 38.4911 19.9689 38.3771 19.9238C38.2605 19.8787 38.144 19.8361 38.0275 19.7935C37.9084 19.7509 37.7893 19.7083 37.6677 19.6657C37.5867 19.6356 37.5056 19.6106 37.4195 19.583C37.2953 19.5404 37.1712 19.5003 37.0445 19.4577C36.9356 19.4251 36.8267 19.39 36.7152 19.355C36.3985 19.2597 36.0717 19.167 35.7373 19.0743C35.6335 19.0442 35.5321 19.0166 35.4257 18.9916C35.1167 18.9114 34.8 18.8337 34.4732 18.7585C34.3592 18.7309 34.2427 18.7059 34.1261 18.6808C34.0957 18.6758 34.0653 18.6683 34.0349 18.6608C33.9437 16.1571 33.7081 13.7463 33.3357 11.5133L33.3281 11.5083Z" fill="#00ACEA"/>
<path d="M31.8584 31.9307C31.7571 32.4219 31.6507 32.898 31.5392 33.3591C31.5037 33.4945 31.4708 33.6298 31.4379 33.7626C31.0021 35.4493 30.4828 36.9329 29.8976 38.1584C29.8723 38.216 29.8444 38.2686 29.8191 38.3213C29.7532 38.4566 29.6873 38.5869 29.6215 38.7122C29.5784 38.7949 29.5328 38.8751 29.4897 38.9553C29.4391 39.0455 29.3884 39.1383 29.3352 39.2285C29.3048 39.2836 29.2693 39.3362 29.2364 39.3914C29.1705 39.4991 29.1072 39.6019 29.0388 39.7021C29.0059 39.7523 28.9729 39.8024 28.9375 39.8525C28.9045 39.9026 28.8716 39.9502 28.8361 39.9979C28.5423 40.4089 28.2357 40.7647 27.9216 41.0529C27.8684 41.103 27.8152 41.1507 27.762 41.1958C27.7088 41.2434 27.6531 41.286 27.5999 41.3261C27.4504 41.4439 27.2984 41.5441 27.1439 41.6293C27.1211 41.6444 27.0957 41.6569 27.0704 41.6694C27.0071 41.7045 26.9437 41.7346 26.8779 41.7647C26.8247 41.7872 26.7715 41.8098 26.7183 41.8298C26.6271 41.8649 26.5359 41.895 26.4421 41.9175C26.4219 41.9225 26.4016 41.9276 26.3813 41.9326C26.3433 41.9401 26.3053 41.9501 26.2648 41.9551C26.1179 41.9852 25.9684 41.9977 25.8164 41.9977C24.5269 41.9977 23.3211 40.9752 22.2773 39.1884C22.404 38.9703 22.5281 38.7398 22.6523 38.4992C23.1817 37.4541 23.658 36.2086 24.0735 34.7952C24.0963 34.7225 24.1165 34.6498 24.1368 34.5746C24.1621 34.4844 24.1875 34.3967 24.2128 34.304C24.2432 34.2012 24.2711 34.101 24.2964 33.9957C24.4129 33.5521 24.5244 33.096 24.6308 32.6224C27.1616 32.5321 29.5987 32.2991 31.8559 31.9307H31.8584Z" fill="#00ACEA"/>
<path d="M12.6992 10.0671C13.9406 4.02983 16.1826 0 18.7412 0H25.8168C28.3755 0 30.6175 4.02983 31.8588 10.0671C31.9019 10.2676 31.9424 10.4706 31.9804 10.6786C32.021 10.8816 32.0564 11.0846 32.0919 11.2901C32.4744 13.4729 32.7354 15.8788 32.8392 18.425C32.8468 18.6204 32.8544 18.8209 32.862 19.0189C32.8671 19.2144 32.8747 19.4124 32.8772 19.6129C32.8874 20.069 32.8924 20.5301 32.8924 20.9962C32.8924 21.4624 32.8874 21.921 32.8772 22.3796C30.7112 22.8032 28.3071 23.0939 25.7763 23.2342C25.8042 22.4999 25.8168 21.7556 25.8168 20.9987C25.8168 20.2419 25.8042 19.4976 25.7763 18.7633C25.7712 18.5678 25.7636 18.3723 25.7535 18.1769C25.7434 17.9814 25.7332 17.7859 25.7231 17.5904C25.5863 15.0618 25.295 12.6885 24.8795 10.5507C24.8415 10.3528 24.8035 10.1573 24.7604 9.96432C24.7199 9.76633 24.6768 9.56835 24.6338 9.37538C24.1119 7.0472 23.438 5.04982 22.6552 3.49854C22.5311 3.25795 22.407 3.02488 22.2803 2.80936C22.1536 3.02739 22.0295 3.25795 21.9054 3.49854C21.12 5.04732 20.4462 7.0472 19.9268 9.37538C17.396 9.4656 14.959 9.69867 12.7018 10.0671H12.6992Z" fill="url(#paint3_linear_14834_376)"/>
<path d="M12.6992 10.0671C12.8006 9.57587 12.907 9.09971 13.0184 8.63858C13.0539 8.50325 13.0868 8.36792 13.1198 8.2351C13.5555 6.54848 14.0748 5.06486 14.66 3.83937C14.6854 3.78173 14.7132 3.7291 14.7386 3.67647C14.8044 3.54114 14.8703 3.41082 14.9362 3.28552C14.9792 3.20282 15.0248 3.12262 15.0679 3.04242C15.1186 2.9522 15.1692 2.85948 15.2224 2.76926C15.2528 2.71412 15.2883 2.6615 15.3212 2.60636C15.3871 2.4986 15.4504 2.39585 15.5188 2.2956C15.5518 2.24548 15.5847 2.19536 15.6202 2.14524C15.6531 2.09511 15.686 2.0475 15.7215 1.99988C16.0154 1.58888 16.3219 1.23301 16.636 0.944806C16.6892 0.894683 16.7424 0.847067 16.7956 0.801957C16.8488 0.754341 16.9046 0.711737 16.9578 0.671639C17.1072 0.553852 17.2592 0.453607 17.4138 0.368399C17.4366 0.353362 17.4619 0.340832 17.4872 0.328301C17.5506 0.293216 17.6139 0.263142 17.6798 0.233069C17.733 0.210514 17.7862 0.187959 17.8394 0.16791C17.9306 0.132824 18.0218 0.102751 18.1155 0.0801957C18.1358 0.0751835 18.156 0.0701712 18.1763 0.065159C18.2143 0.0576407 18.2523 0.0476162 18.2928 0.042604C18.4398 0.0125306 18.5892 0 18.7412 0C20.0307 0 21.2366 1.0225 22.2803 2.80936C22.1536 3.02739 22.0295 3.25795 21.9054 3.49854C21.3759 4.54359 20.8996 5.78913 20.4842 7.20258C20.4614 7.27525 20.4411 7.34793 20.4208 7.42312C20.3955 7.51334 20.3702 7.60105 20.3448 7.69378C20.3144 7.79653 20.2866 7.89677 20.2612 8.00203C20.1447 8.44561 20.0332 8.90172 19.9268 9.37538C17.396 9.4656 14.959 9.69867 12.7018 10.0671H12.6992Z" fill="#00ACEA"/>
</g>
<defs>
<linearGradient id="paint0_linear_14834_376" x1="24.4432" y1="20.4874" x2="0.954102" y2="20.4874" gradientUnits="userSpaceOnUse">
<stop stop-color="#00ACEA"/>
<stop offset="0.23" stop-color="#00B5E6"/>
<stop offset="0.61" stop-color="#00CEDD"/>
<stop offset="1" stop-color="#00EFD1"/>
</linearGradient>
<linearGradient id="paint1_linear_14834_376" x1="21.7604" y1="18.7632" x2="21.7604" y2="41.9999" gradientUnits="userSpaceOnUse">
<stop stop-color="#00ACEA"/>
<stop offset="0.23" stop-color="#00B5E6"/>
<stop offset="0.61" stop-color="#00CEDD"/>
<stop offset="1" stop-color="#00EFD1"/>
</linearGradient>
<linearGradient id="paint2_linear_14834_376" x1="20.0176" y1="21.4976" x2="43.5066" y2="21.4976" gradientUnits="userSpaceOnUse">
<stop stop-color="#00ACEA"/>
<stop offset="0.23" stop-color="#00B5E6"/>
<stop offset="0.61" stop-color="#00CEDD"/>
<stop offset="1" stop-color="#00EFD1"/>
</linearGradient>
<linearGradient id="paint3_linear_14834_376" x1="22.7946" y1="23.2367" x2="22.7946" y2="0" gradientUnits="userSpaceOnUse">
<stop stop-color="#00ACEA"/>
<stop offset="0.23" stop-color="#00B5E6"/>
<stop offset="0.61" stop-color="#00CEDD"/>
<stop offset="1" stop-color="#00EFD1"/>
</linearGradient>
<clipPath id="clip0_14834_376">
<rect width="152" height="42" fill="white" transform="translate(0.947266)"/>
</clipPath>
</defs>
</svg>
