<svg width="184" height="22" viewBox="0 0 184 22" fill="none" xmlns="http://www.w3.org/2000/svg">
<path d="M6.944 16H5.432L2.632 7.152V16H1.204V5.85H3.598L6.188 14.306L8.778 5.85H11.172V16H9.744V7.152L6.944 16ZM18.127 12.85V12.374C16.8484 12.4953 15.8964 12.6727 15.271 12.906C14.655 13.1393 14.347 13.4987 14.347 13.984C14.347 14.348 14.4777 14.6373 14.739 14.852C15.0004 15.0667 15.355 15.174 15.803 15.174C16.475 15.174 17.0304 14.992 17.469 14.628C17.9077 14.264 18.127 13.6713 18.127 12.85ZM15.523 16.182C14.7857 16.182 14.1697 15.9907 13.675 15.608C13.1804 15.216 12.933 14.684 12.933 14.012C12.933 13.5827 13.045 13.214 13.269 12.906C13.5024 12.598 13.857 12.346 14.333 12.15C14.8184 11.9447 15.3457 11.786 15.915 11.674C16.4844 11.562 17.189 11.4593 18.029 11.366V11.184C18.029 9.96133 17.4597 9.35 16.321 9.35C15.7984 9.35 15.3877 9.48067 15.089 9.742C14.7904 10.0033 14.627 10.372 14.599 10.848H13.283C13.339 10.0733 13.661 9.45733 14.249 9C14.8464 8.54267 15.5324 8.314 16.307 8.314C17.343 8.314 18.1037 8.566 18.589 9.07C19.0744 9.574 19.3124 10.358 19.303 11.422L19.289 13.158C19.2797 14.3807 19.345 15.328 19.485 16H18.197C18.141 15.636 18.1084 15.2907 18.099 14.964C17.623 15.776 16.7644 16.182 15.523 16.182ZM26.3674 9.658V5.85H27.6414V16H26.3674V14.866C25.8634 15.7433 25.042 16.182 23.9034 16.182C22.998 16.182 22.2327 15.832 21.6074 15.132C20.9914 14.4227 20.6834 13.466 20.6834 12.262C20.6834 11.0673 20.9914 10.1153 21.6074 9.406C22.2327 8.69667 22.998 8.342 23.9034 8.342C25.042 8.342 25.8634 8.78067 26.3674 9.658ZM25.7794 14.376C26.2087 13.9 26.4234 13.1953 26.4234 12.262C26.4234 11.3287 26.2087 10.624 25.7794 10.148C25.3594 9.672 24.8414 9.434 24.2254 9.434C23.5627 9.434 23.0354 9.686 22.6434 10.19C22.2607 10.6847 22.0694 11.3753 22.0694 12.262C22.0694 13.1487 22.2607 13.844 22.6434 14.348C23.0354 14.8427 23.5627 15.09 24.2254 15.09C24.8414 15.09 25.3594 14.852 25.7794 14.376ZM36.3006 12.654H30.5046C30.5232 13.4193 30.7612 14.012 31.2186 14.432C31.6852 14.852 32.2219 15.062 32.8286 15.062C33.8366 15.062 34.5226 14.6467 34.8866 13.816H36.2026C36.0252 14.4973 35.6379 15.062 35.0406 15.51C34.4432 15.958 33.7059 16.182 32.8286 16.182C31.6712 16.182 30.7659 15.8133 30.1126 15.076C29.4592 14.3387 29.1326 13.396 29.1326 12.248C29.1326 11.072 29.4779 10.1293 30.1686 9.42C30.8592 8.70133 31.7319 8.342 32.7866 8.342C33.9159 8.342 34.8026 8.75733 35.4466 9.588C36.0906 10.4093 36.3752 11.4313 36.3006 12.654ZM32.7866 9.434C32.1799 9.434 31.6619 9.61133 31.2326 9.966C30.8126 10.3207 30.5746 10.8527 30.5186 11.562H34.9566C34.9379 10.9927 34.7326 10.498 34.3406 10.078C33.9486 9.64867 33.4306 9.434 32.7866 9.434ZM42.9556 10.148C42.5356 10.624 42.3256 11.3287 42.3256 12.262C42.3256 13.1953 42.5356 13.9 42.9556 14.376C43.3849 14.852 43.9076 15.09 44.5236 15.09C45.1863 15.09 45.7089 14.8427 46.0916 14.348C46.4836 13.844 46.6796 13.1487 46.6796 12.262C46.6796 11.3753 46.4836 10.6847 46.0916 10.19C45.7089 9.686 45.1863 9.434 44.5236 9.434C43.9076 9.434 43.3849 9.672 42.9556 10.148ZM41.1076 5.85H42.3816V9.658C42.8856 8.78067 43.7069 8.342 44.8456 8.342C45.7509 8.342 46.5116 8.69667 47.1276 9.406C47.7529 10.1153 48.0656 11.0673 48.0656 12.262C48.0656 13.466 47.7529 14.4227 47.1276 15.132C46.5116 15.832 45.7509 16.182 44.8456 16.182C43.7069 16.182 42.8856 15.7433 42.3816 14.866V16H41.1076V5.85ZM53.5651 8.468H54.8951L52.2071 16.322C52.0018 16.91 51.8104 17.3393 51.6331 17.61C51.4651 17.89 51.2224 18.1 50.9051 18.24C50.5878 18.38 50.1491 18.45 49.5891 18.45H48.9311V17.386H49.4491C49.9251 17.386 50.2658 17.316 50.4711 17.176C50.6858 17.036 50.8724 16.6953 51.0311 16.154L51.0871 16L48.3711 8.468H49.7851L51.7031 14.278L53.5651 8.468Z" fill="#808698"/>
<path d="M61.8555 12.8178C61.5791 12.1875 60.9999 11.8342 60.5524 12.042C60.1049 12.2498 59.9733 12.9287 60.2497 13.5591C60.5261 14.1895 61.1052 14.5428 61.5527 14.3349C61.9937 14.134 62.1319 13.4552 61.8555 12.8178ZM66.4359 16.3646C66.5412 16.6971 66.3635 17.0574 66.0476 17.1682C65.7514 17.3414 65.3763 17.2375 65.1986 16.9327C65.0999 16.5933 65.271 16.233 65.5935 16.1291C65.8896 15.9559 66.2582 16.0599 66.4359 16.3646ZM71.1413 17.4661C71.7007 18.145 73.3525 18.5953 75.4519 18.8239C73.6553 17.6323 71.9179 16.4686 70.2068 15.3394C70.2924 16.136 70.6214 16.8842 71.1413 17.4661ZM64.4089 14.3419C65.271 15.6511 67.1861 14.7783 68.4431 14.1825C66.8702 13.1504 65.3105 12.139 63.7574 11.1553C63.9746 11.467 64.1259 11.8203 64.2049 12.2013C64.3694 13.1157 63.968 13.6699 64.4089 14.3419ZM61.8489 7.15821C67.015 10.4903 71.8389 14.4597 78.3936 18.9971C79.5387 19.0109 80.7167 18.9763 81.8749 18.8862C72.8524 13.2058 69.0749 8.48827 64.1259 5.04534C63.1651 5.46791 62.2964 6.03597 61.8489 7.15821ZM90.0881 15.9906C90.7857 15.187 91.1476 14.1271 91.1016 13.0395C80.9141 10.6773 82.4673 6.9088 77.571 3.97853C76.7812 4.13786 75.9586 4.06859 75.2018 3.77071C74.6951 3.51439 74.162 3.23038 73.0761 2.14971C71.602 1.74792 70.1147 1.42233 68.6142 1.1868C68.5155 1.40155 68.4431 1.63708 68.3575 1.88647C79.3347 4.69898 74.1291 10.5941 90.0881 15.9906ZM68.0285 2.62769C67.7718 3.07104 67.4164 3.44512 67.0019 3.72222C66.7518 3.8954 66.4885 4.0478 66.2187 4.1725C71.036 7.55307 73.5302 12.5685 84.5008 18.5814C85.126 18.4775 85.7249 18.3666 86.2777 18.2281C86.9687 18.0619 87.64 17.7987 88.2717 17.4592C73.6421 11.3215 75.1163 5.7173 68.0285 2.62769ZM70.0357 0.0784228C69.6738 0.154624 69.3381 0.327807 69.0485 0.570268C70.1476 0.736524 71.1545 0.916634 72.0824 1.10367C71.2466 0.175406 70.9768 -0.170962 70.0357 0.0784228ZM80.0389 3.68758C84.843 6.33382 83.619 9.30566 90.3579 10.5872C90.246 10.3794 90.1276 10.1716 89.9894 9.96379C88.6534 7.91329 83.9809 3.99931 80.0389 3.68758Z" fill="#808698"/>
<path d="M108.565 13.9844C108.565 13.752 108.529 13.5469 108.456 13.3691C108.388 13.1868 108.265 13.0228 108.087 12.877C107.914 12.7311 107.672 12.5921 107.362 12.46C107.057 12.3278 106.67 12.1934 106.2 12.0566C105.708 11.9108 105.264 11.749 104.867 11.5713C104.471 11.389 104.131 11.1816 103.849 10.9492C103.566 10.7168 103.35 10.4502 103.199 10.1494C103.049 9.84863 102.974 9.50456 102.974 9.11719C102.974 8.72982 103.053 8.37207 103.213 8.04395C103.372 7.71582 103.6 7.43099 103.896 7.18945C104.197 6.94336 104.555 6.75195 104.97 6.61523C105.384 6.47852 105.847 6.41016 106.357 6.41016C107.105 6.41016 107.738 6.55371 108.258 6.84082C108.782 7.12337 109.181 7.49479 109.454 7.95508C109.728 8.41081 109.864 8.89844 109.864 9.41797H108.552C108.552 9.04427 108.472 8.71387 108.312 8.42676C108.153 8.13509 107.911 7.90723 107.588 7.74316C107.264 7.57454 106.854 7.49023 106.357 7.49023C105.888 7.49023 105.501 7.56087 105.195 7.70215C104.89 7.84342 104.662 8.03483 104.512 8.27637C104.366 8.5179 104.293 8.79362 104.293 9.10352C104.293 9.31315 104.336 9.50456 104.423 9.67773C104.514 9.84635 104.653 10.0036 104.84 10.1494C105.031 10.2952 105.273 10.4297 105.564 10.5527C105.861 10.6758 106.214 10.7943 106.624 10.9082C107.189 11.0677 107.677 11.2454 108.087 11.4414C108.497 11.6374 108.834 11.8584 109.099 12.1045C109.368 12.346 109.566 12.6217 109.693 12.9316C109.826 13.237 109.892 13.5833 109.892 13.9707C109.892 14.3763 109.81 14.7432 109.646 15.0713C109.481 15.3994 109.247 15.6797 108.941 15.9121C108.636 16.1445 108.269 16.3245 107.841 16.4521C107.417 16.5752 106.943 16.6367 106.419 16.6367C105.959 16.6367 105.505 16.5729 105.059 16.4453C104.617 16.3177 104.213 16.1263 103.849 15.8711C103.489 15.6159 103.199 15.3014 102.98 14.9277C102.766 14.5495 102.659 14.112 102.659 13.6152H103.972C103.972 13.957 104.038 14.251 104.17 14.4971C104.302 14.7386 104.482 14.9391 104.71 15.0986C104.942 15.2581 105.204 15.3766 105.496 15.4541C105.792 15.527 106.1 15.5635 106.419 15.5635C106.879 15.5635 107.269 15.4997 107.588 15.3721C107.907 15.2445 108.148 15.0622 108.312 14.8252C108.481 14.5882 108.565 14.3079 108.565 13.9844ZM114.479 9.10352V10.0742H110.479V9.10352H114.479ZM111.833 7.30566H113.098V14.668C113.098 14.9186 113.136 15.1077 113.214 15.2354C113.291 15.363 113.392 15.4473 113.515 15.4883C113.638 15.5293 113.77 15.5498 113.911 15.5498C114.016 15.5498 114.125 15.5407 114.239 15.5225C114.358 15.4997 114.447 15.4814 114.506 15.4678L114.513 16.5C114.412 16.5319 114.28 16.5615 114.116 16.5889C113.957 16.6208 113.763 16.6367 113.535 16.6367C113.225 16.6367 112.94 16.5752 112.681 16.4521C112.421 16.3291 112.214 16.124 112.059 15.8369C111.908 15.5452 111.833 15.1533 111.833 14.6611V7.30566ZM120.487 14.791V9.10352H121.759V16.5H120.549L120.487 14.791ZM120.727 13.2324L121.253 13.2188C121.253 13.7109 121.201 14.1667 121.096 14.5859C120.995 15.0007 120.831 15.3607 120.604 15.666C120.376 15.9714 120.077 16.2106 119.708 16.3838C119.339 16.5524 118.89 16.6367 118.361 16.6367C118.001 16.6367 117.671 16.5843 117.37 16.4795C117.074 16.3747 116.819 16.2129 116.604 15.9941C116.39 15.7754 116.224 15.4906 116.105 15.1396C115.992 14.7887 115.935 14.3672 115.935 13.875V9.10352H117.199V13.8887C117.199 14.2214 117.236 14.4971 117.309 14.7158C117.386 14.93 117.489 15.1009 117.616 15.2285C117.748 15.3516 117.894 15.4382 118.054 15.4883C118.218 15.5384 118.386 15.5635 118.56 15.5635C119.097 15.5635 119.523 15.4609 119.838 15.2559C120.152 15.0462 120.378 14.766 120.515 14.415C120.656 14.0596 120.727 13.6654 120.727 13.2324ZM128.349 15.0645V6H129.62V16.5H128.458L128.349 15.0645ZM123.372 12.8838V12.7402C123.372 12.1751 123.44 11.6624 123.577 11.2021C123.718 10.7373 123.917 10.3385 124.172 10.0059C124.432 9.67318 124.739 9.41797 125.095 9.24023C125.455 9.05794 125.856 8.9668 126.298 8.9668C126.763 8.9668 127.168 9.04883 127.515 9.21289C127.866 9.3724 128.162 9.6071 128.403 9.91699C128.649 10.2223 128.843 10.5915 128.984 11.0244C129.126 11.4574 129.224 11.9473 129.278 12.4941V13.123C129.228 13.6654 129.13 14.153 128.984 14.5859C128.843 15.0189 128.649 15.388 128.403 15.6934C128.162 15.9987 127.866 16.2334 127.515 16.3975C127.164 16.557 126.754 16.6367 126.284 16.6367C125.851 16.6367 125.455 16.5433 125.095 16.3564C124.739 16.1696 124.432 15.9076 124.172 15.5703C123.917 15.2331 123.718 14.8366 123.577 14.3809C123.44 13.9206 123.372 13.4215 123.372 12.8838ZM124.644 12.7402V12.8838C124.644 13.2529 124.68 13.5993 124.753 13.9229C124.83 14.2464 124.949 14.5312 125.108 14.7773C125.268 15.0234 125.471 15.2171 125.717 15.3584C125.963 15.4951 126.257 15.5635 126.599 15.5635C127.018 15.5635 127.362 15.4746 127.631 15.2969C127.904 15.1191 128.123 14.8844 128.287 14.5928C128.451 14.3011 128.579 13.9844 128.67 13.6426V11.9951C128.615 11.7445 128.535 11.5029 128.431 11.2705C128.33 11.0335 128.198 10.8239 128.034 10.6416C127.875 10.4548 127.676 10.3066 127.439 10.1973C127.207 10.0879 126.931 10.0332 126.612 10.0332C126.266 10.0332 125.967 10.1061 125.717 10.252C125.471 10.3932 125.268 10.5892 125.108 10.8398C124.949 11.0859 124.83 11.373 124.753 11.7012C124.68 12.0247 124.644 12.3711 124.644 12.7402ZM132.963 9.10352V16.5H131.691V9.10352H132.963ZM131.596 7.1416C131.596 6.93652 131.657 6.76335 131.78 6.62207C131.908 6.48079 132.095 6.41016 132.341 6.41016C132.582 6.41016 132.767 6.48079 132.895 6.62207C133.027 6.76335 133.093 6.93652 133.093 7.1416C133.093 7.33757 133.027 7.50618 132.895 7.64746C132.767 7.78418 132.582 7.85254 132.341 7.85254C132.095 7.85254 131.908 7.78418 131.78 7.64746C131.657 7.50618 131.596 7.33757 131.596 7.1416ZM134.658 12.8838V12.7266C134.658 12.1934 134.736 11.6989 134.891 11.2432C135.046 10.7829 135.269 10.3841 135.561 10.0469C135.852 9.70508 136.205 9.44076 136.62 9.25391C137.035 9.0625 137.5 8.9668 138.015 8.9668C138.534 8.9668 139.001 9.0625 139.416 9.25391C139.835 9.44076 140.191 9.70508 140.482 10.0469C140.779 10.3841 141.004 10.7829 141.159 11.2432C141.314 11.6989 141.392 12.1934 141.392 12.7266V12.8838C141.392 13.417 141.314 13.9115 141.159 14.3672C141.004 14.8229 140.779 15.2217 140.482 15.5635C140.191 15.9007 139.838 16.165 139.423 16.3564C139.013 16.5433 138.548 16.6367 138.028 16.6367C137.509 16.6367 137.042 16.5433 136.627 16.3564C136.212 16.165 135.857 15.9007 135.561 15.5635C135.269 15.2217 135.046 14.8229 134.891 14.3672C134.736 13.9115 134.658 13.417 134.658 12.8838ZM135.923 12.7266V12.8838C135.923 13.2529 135.966 13.6016 136.053 13.9297C136.139 14.2533 136.269 14.5404 136.442 14.791C136.62 15.0417 136.841 15.2399 137.105 15.3857C137.37 15.527 137.677 15.5977 138.028 15.5977C138.375 15.5977 138.678 15.527 138.938 15.3857C139.202 15.2399 139.421 15.0417 139.594 14.791C139.767 14.5404 139.897 14.2533 139.983 13.9297C140.075 13.6016 140.12 13.2529 140.12 12.8838V12.7266C140.12 12.362 140.075 12.0179 139.983 11.6943C139.897 11.3662 139.765 11.0768 139.587 10.8262C139.414 10.571 139.195 10.3704 138.931 10.2246C138.671 10.0788 138.366 10.0059 138.015 10.0059C137.668 10.0059 137.363 10.0788 137.099 10.2246C136.839 10.3704 136.62 10.571 136.442 10.8262C136.269 11.0768 136.139 11.3662 136.053 11.6943C135.966 12.0179 135.923 12.362 135.923 12.7266ZM144.242 10.5254V19.3438H142.971V9.10352H144.133L144.242 10.5254ZM149.226 12.7402V12.8838C149.226 13.4215 149.162 13.9206 149.034 14.3809C148.907 14.8366 148.72 15.2331 148.474 15.5703C148.232 15.9076 147.934 16.1696 147.578 16.3564C147.223 16.5433 146.815 16.6367 146.354 16.6367C145.885 16.6367 145.47 16.5592 145.11 16.4043C144.75 16.2493 144.445 16.0238 144.194 15.7275C143.944 15.4313 143.743 15.0758 143.593 14.6611C143.447 14.2464 143.347 13.7793 143.292 13.2598V12.4941C143.347 11.9473 143.449 11.4574 143.6 11.0244C143.75 10.5915 143.948 10.2223 144.194 9.91699C144.445 9.6071 144.748 9.3724 145.104 9.21289C145.459 9.04883 145.869 8.9668 146.334 8.9668C146.799 8.9668 147.211 9.05794 147.571 9.24023C147.931 9.41797 148.234 9.67318 148.48 10.0059C148.727 10.3385 148.911 10.7373 149.034 11.2021C149.162 11.6624 149.226 12.1751 149.226 12.7402ZM147.954 12.8838V12.7402C147.954 12.3711 147.915 12.0247 147.838 11.7012C147.76 11.373 147.64 11.0859 147.476 10.8398C147.316 10.5892 147.111 10.3932 146.86 10.252C146.61 10.1061 146.311 10.0332 145.965 10.0332C145.646 10.0332 145.368 10.0879 145.131 10.1973C144.898 10.3066 144.7 10.4548 144.536 10.6416C144.372 10.8239 144.238 11.0335 144.133 11.2705C144.033 11.5029 143.957 11.7445 143.907 11.9951V13.7656C143.998 14.0846 144.126 14.3854 144.29 14.668C144.454 14.946 144.673 15.1715 144.946 15.3447C145.22 15.5133 145.564 15.5977 145.979 15.5977C146.32 15.5977 146.614 15.527 146.86 15.3857C147.111 15.2399 147.316 15.0417 147.476 14.791C147.64 14.5404 147.76 14.2533 147.838 13.9297C147.915 13.6016 147.954 13.2529 147.954 12.8838ZM152.104 10.2656V16.5H150.839V9.10352H152.069L152.104 10.2656ZM154.414 9.0625L154.407 10.2383C154.302 10.2155 154.202 10.2018 154.106 10.1973C154.015 10.1882 153.91 10.1836 153.792 10.1836C153.5 10.1836 153.243 10.2292 153.02 10.3203C152.796 10.4115 152.607 10.5391 152.452 10.7031C152.297 10.8672 152.174 11.0632 152.083 11.291C151.996 11.5143 151.939 11.7604 151.912 12.0293L151.557 12.2344C151.557 11.7878 151.6 11.3685 151.687 10.9766C151.778 10.5846 151.917 10.2383 152.104 9.9375C152.29 9.63216 152.527 9.39518 152.814 9.22656C153.106 9.05339 153.452 8.9668 153.854 8.9668C153.945 8.9668 154.049 8.97819 154.168 9.00098C154.286 9.01921 154.368 9.03971 154.414 9.0625ZM158.516 16.6367C158.001 16.6367 157.534 16.5501 157.114 16.377C156.7 16.1992 156.342 15.9508 156.041 15.6318C155.745 15.3128 155.517 14.9346 155.357 14.4971C155.198 14.0596 155.118 13.5811 155.118 13.0615V12.7744C155.118 12.1729 155.207 11.6374 155.385 11.168C155.562 10.694 155.804 10.293 156.109 9.96484C156.415 9.63672 156.761 9.38835 157.148 9.21973C157.536 9.05111 157.937 8.9668 158.352 8.9668C158.88 8.9668 159.336 9.05794 159.719 9.24023C160.106 9.42253 160.423 9.67773 160.669 10.0059C160.915 10.3294 161.097 10.7122 161.216 11.1543C161.334 11.5918 161.394 12.0703 161.394 12.5898V13.1572H155.87V12.125H160.129V12.0293C160.111 11.7012 160.042 11.3822 159.924 11.0723C159.81 10.7624 159.628 10.5072 159.377 10.3066C159.126 10.1061 158.785 10.0059 158.352 10.0059C158.064 10.0059 157.8 10.0674 157.559 10.1904C157.317 10.3089 157.11 10.4867 156.937 10.7236C156.763 10.9606 156.629 11.25 156.533 11.5918C156.438 11.9336 156.39 12.3278 156.39 12.7744V13.0615C156.39 13.4124 156.438 13.7428 156.533 14.0527C156.633 14.3581 156.777 14.627 156.964 14.8594C157.155 15.0918 157.385 15.2741 157.654 15.4062C157.928 15.5384 158.238 15.6045 158.584 15.6045C159.031 15.6045 159.409 15.5133 159.719 15.3311C160.029 15.1488 160.3 14.9049 160.532 14.5996L161.298 15.208C161.138 15.4495 160.936 15.6797 160.689 15.8984C160.443 16.1172 160.14 16.2949 159.78 16.4316C159.425 16.5684 159.003 16.6367 158.516 16.6367ZM167.177 14.5381C167.177 14.3558 167.136 14.1872 167.054 14.0322C166.976 13.8727 166.814 13.7292 166.568 13.6016C166.327 13.4694 165.962 13.3555 165.475 13.2598C165.064 13.1732 164.693 13.0706 164.36 12.9521C164.032 12.8337 163.752 12.6901 163.52 12.5215C163.292 12.3529 163.116 12.1546 162.993 11.9268C162.87 11.6989 162.809 11.4323 162.809 11.127C162.809 10.8353 162.872 10.5596 163 10.2998C163.132 10.04 163.317 9.8099 163.554 9.60938C163.795 9.40885 164.085 9.25163 164.422 9.1377C164.759 9.02376 165.135 8.9668 165.55 8.9668C166.142 8.9668 166.648 9.07161 167.067 9.28125C167.487 9.49089 167.808 9.77116 168.031 10.1221C168.255 10.4684 168.366 10.8535 168.366 11.2773H167.102C167.102 11.0723 167.04 10.874 166.917 10.6826C166.799 10.4867 166.623 10.3249 166.391 10.1973C166.163 10.0697 165.882 10.0059 165.55 10.0059C165.199 10.0059 164.914 10.0605 164.695 10.1699C164.481 10.2747 164.324 10.4092 164.224 10.5732C164.128 10.7373 164.08 10.9105 164.08 11.0928C164.08 11.2295 164.103 11.3525 164.148 11.4619C164.199 11.5667 164.285 11.6647 164.408 11.7559C164.531 11.8424 164.704 11.9245 164.928 12.002C165.151 12.0794 165.436 12.1569 165.782 12.2344C166.388 12.3711 166.887 12.5352 167.279 12.7266C167.671 12.918 167.963 13.1527 168.154 13.4307C168.346 13.7087 168.441 14.0459 168.441 14.4424C168.441 14.766 168.373 15.0622 168.236 15.3311C168.104 15.5999 167.91 15.8324 167.655 16.0283C167.405 16.2197 167.104 16.3701 166.753 16.4795C166.407 16.5843 166.017 16.6367 165.584 16.6367C164.932 16.6367 164.381 16.5205 163.93 16.2881C163.479 16.0557 163.137 15.7549 162.904 15.3857C162.672 15.0166 162.556 14.627 162.556 14.2168H163.827C163.845 14.5632 163.946 14.8389 164.128 15.0439C164.31 15.2445 164.534 15.388 164.798 15.4746C165.062 15.5566 165.324 15.5977 165.584 15.5977C165.93 15.5977 166.22 15.5521 166.452 15.4609C166.689 15.3698 166.869 15.2445 166.992 15.085C167.115 14.9255 167.177 14.7432 167.177 14.5381ZM173.199 9.10352V10.0742H169.2V9.10352H173.199ZM170.554 7.30566H171.818V14.668C171.818 14.9186 171.857 15.1077 171.935 15.2354C172.012 15.363 172.112 15.4473 172.235 15.4883C172.358 15.5293 172.491 15.5498 172.632 15.5498C172.737 15.5498 172.846 15.5407 172.96 15.5225C173.078 15.4997 173.167 15.4814 173.227 15.4678L173.233 16.5C173.133 16.5319 173.001 16.5615 172.837 16.5889C172.677 16.6208 172.484 16.6367 172.256 16.6367C171.946 16.6367 171.661 16.5752 171.401 16.4521C171.142 16.3291 170.934 16.124 170.779 15.8369C170.629 15.5452 170.554 15.1533 170.554 14.6611V7.30566ZM174.211 12.8838V12.7266C174.211 12.1934 174.288 11.6989 174.443 11.2432C174.598 10.7829 174.822 10.3841 175.113 10.0469C175.405 9.70508 175.758 9.44076 176.173 9.25391C176.588 9.0625 177.052 8.9668 177.567 8.9668C178.087 8.9668 178.554 9.0625 178.969 9.25391C179.388 9.44076 179.743 9.70508 180.035 10.0469C180.331 10.3841 180.557 10.7829 180.712 11.2432C180.867 11.6989 180.944 12.1934 180.944 12.7266V12.8838C180.944 13.417 180.867 13.9115 180.712 14.3672C180.557 14.8229 180.331 15.2217 180.035 15.5635C179.743 15.9007 179.39 16.165 178.976 16.3564C178.565 16.5433 178.101 16.6367 177.581 16.6367C177.062 16.6367 176.594 16.5433 176.18 16.3564C175.765 16.165 175.41 15.9007 175.113 15.5635C174.822 15.2217 174.598 14.8229 174.443 14.3672C174.288 13.9115 174.211 13.417 174.211 12.8838ZM175.476 12.7266V12.8838C175.476 13.2529 175.519 13.6016 175.605 13.9297C175.692 14.2533 175.822 14.5404 175.995 14.791C176.173 15.0417 176.394 15.2399 176.658 15.3857C176.923 15.527 177.23 15.5977 177.581 15.5977C177.927 15.5977 178.23 15.527 178.49 15.3857C178.755 15.2399 178.973 15.0417 179.146 14.791C179.32 14.5404 179.45 14.2533 179.536 13.9297C179.627 13.6016 179.673 13.2529 179.673 12.8838V12.7266C179.673 12.362 179.627 12.0179 179.536 11.6943C179.45 11.3662 179.317 11.0768 179.14 10.8262C178.966 10.571 178.748 10.3704 178.483 10.2246C178.224 10.0788 177.918 10.0059 177.567 10.0059C177.221 10.0059 176.916 10.0788 176.651 10.2246C176.392 10.3704 176.173 10.571 175.995 10.8262C175.822 11.0768 175.692 11.3662 175.605 11.6943C175.519 12.0179 175.476 12.362 175.476 12.7266Z" fill="#808698"/>
</svg>
