<svg width="144" height="17" viewBox="0 0 144 17" fill="none" xmlns="http://www.w3.org/2000/svg">
<path d="M27.4268 6.25857L30.129 0.5L32.8312 6.25857H27.4268Z" fill="#475576"/>
<path d="M113.337 6.25857L116.041 0.5L118.743 6.25857H113.337Z" fill="#475576"/>
<path d="M67.9411 7.00769V10.1532H67.6729C67.4728 9.33258 67.0974 8.70267 66.5487 8.26551C66 7.82836 65.3791 7.60978 64.686 7.60978C64.1064 7.60978 63.5742 7.77272 63.0894 8.0986C62.6047 8.42448 62.2519 8.84972 62.0271 9.37629C61.7404 10.0499 61.596 10.799 61.596 11.6257C61.596 12.4523 61.7012 13.1776 61.9116 13.8472C62.122 14.5109 62.45 15.0156 62.8976 15.3594C63.3452 15.6992 63.9249 15.8681 64.6365 15.8681C65.2203 15.8681 65.7566 15.7429 66.2393 15.4925C66.7282 15.2422 67.2418 14.811 67.7802 14.2009V14.9838C67.2604 15.5144 66.7158 15.9019 66.1506 16.1423C65.5895 16.3788 64.9315 16.498 64.1765 16.498C63.1864 16.498 62.3056 16.3033 61.532 15.9158C60.7647 15.5283 60.1706 14.9699 59.7519 14.2427C59.3352 13.5154 59.1289 12.7404 59.1289 11.9198C59.1289 11.0534 59.3599 10.2327 59.822 9.45777C60.2882 8.68082 60.9132 8.07873 61.6991 7.65151C62.4892 7.2223 63.3266 7.00769 64.2136 7.00769C64.8655 7.00769 65.5565 7.14679 66.2826 7.42299C66.7034 7.58394 66.9695 7.66343 67.085 7.66343C67.2315 7.66343 67.3573 7.61176 67.4604 7.51042C67.5718 7.40312 67.642 7.23621 67.6729 7.00769H67.9411Z" fill="#475576"/>
<path d="M72.4343 7.70513V11.6813H72.8242C73.4595 11.6813 73.934 11.6256 74.2496 11.5144C74.5652 11.3991 74.8106 11.1925 74.9901 10.8984C75.1737 10.6003 75.2644 10.2108 75.2644 9.73394C75.2644 9.04244 75.0974 8.53176 74.7652 8.2019C74.4373 7.87205 73.903 7.70712 73.1687 7.70712H72.4364L72.4343 7.70513ZM72.4343 12.1562V14.6997C72.4343 15.1905 72.4632 15.5005 72.523 15.6296C72.587 15.7548 72.6963 15.8542 72.851 15.9317C73.0057 16.0072 73.2966 16.0449 73.7215 16.0449V16.2933H68.9668V16.0449C69.3959 16.0449 69.6846 16.0072 69.8352 15.9317C69.9899 15.8522 70.0972 15.7488 70.157 15.6237C70.221 15.4985 70.2519 15.1905 70.2519 14.6997V8.80995C70.2519 8.31914 70.2189 8.01114 70.157 7.88596C70.0972 7.7568 69.9899 7.65347 69.8352 7.57796C69.6805 7.50245 69.3897 7.46469 68.9668 7.46469V7.21631H73.2821C74.4063 7.21631 75.2273 7.29182 75.7471 7.44284C76.2669 7.59385 76.6919 7.87602 77.0219 8.28536C77.3499 8.69073 77.5149 9.16763 77.5149 9.71805C77.5149 10.3877 77.2674 10.9401 76.7744 11.3793C76.4588 11.6555 76.0194 11.8621 75.4521 12.0012L77.6861 15.0732C77.977 15.4707 78.1853 15.719 78.3091 15.8164C78.4968 15.9555 78.7134 16.031 78.9609 16.0429V16.2913H76.0359L73.0428 12.1542H72.4323L72.4343 12.1562Z" fill="#475576"/>
<path d="M83.9778 16.045V16.2933H79.1221V16.045H79.4294C79.6976 16.045 79.9162 15.9973 80.0813 15.9039C80.1988 15.8403 80.2917 15.735 80.3556 15.582C80.4051 15.4747 80.4299 15.1945 80.4299 14.7375V8.76826C80.4299 8.30328 80.4051 8.01316 80.3556 7.89791C80.304 7.78266 80.203 7.68132 80.0462 7.59588C79.8956 7.50646 79.6893 7.46274 79.4294 7.46274H79.1221V7.21436H83.9778V7.46274H83.6684C83.4003 7.46274 83.1816 7.51043 83.0186 7.60382C82.899 7.66542 82.8062 7.77273 82.7381 7.92573C82.6886 8.03303 82.6638 8.31321 82.6638 8.76826V14.7375C82.6638 15.2024 82.6886 15.4925 82.7381 15.6078C82.7938 15.725 82.8969 15.8264 83.0475 15.9158C83.2022 16.0012 83.4106 16.043 83.6705 16.043H83.9799L83.9778 16.045Z" fill="#475576"/>
<path d="M93.1487 7.21638V9.67241H92.9012C92.7547 9.10609 92.5918 8.70073 92.4144 8.45433C92.237 8.20396 91.9915 8.00525 91.6821 7.8582C91.5088 7.77872 91.2035 7.73699 90.7703 7.73699H90.0772V14.7375C90.0772 15.2025 90.102 15.4926 90.1536 15.6078C90.2093 15.7251 90.3103 15.8264 90.4609 15.9158C90.6156 16.0013 90.826 16.043 91.0921 16.043H91.3995V16.2914H86.5355V16.043H86.8449C87.113 16.043 87.3317 15.9953 87.4947 15.9019C87.6143 15.8383 87.7071 15.733 87.7752 15.58C87.8247 15.4727 87.8515 15.1925 87.8515 14.7355V7.73501H87.1791C86.554 7.73501 86.1002 7.86417 85.8156 8.12249C85.4174 8.48414 85.1678 8.99879 85.0626 9.66844H84.8027V7.2124H93.1466L93.1487 7.21638Z" fill="#475576"/>
<path d="M97.4782 7.73898V11.433H97.6638C98.2517 11.433 98.6808 11.2521 98.9448 10.8905C99.2089 10.5288 99.378 9.99631 99.4523 9.29089H99.7122V14.042H99.4523C99.3966 13.5234 99.2811 13.1001 99.1016 12.7703C98.9283 12.4404 98.7262 12.2199 98.4931 12.1086C98.26 11.9913 97.9217 11.9337 97.4803 11.9337V14.4911C97.4803 14.9899 97.5009 15.2959 97.5421 15.4091C97.5875 15.5204 97.67 15.6118 97.7897 15.6833C97.9093 15.7549 98.1011 15.7906 98.3652 15.7906H98.9201C99.7885 15.7906 100.482 15.5939 101.001 15.2005C101.527 14.807 101.905 14.2109 102.132 13.4061H102.386L101.967 16.2914H93.9385V16.043H94.2458C94.5161 16.043 94.7326 15.9953 94.8977 15.9019C95.0152 15.8383 95.1081 15.733 95.172 15.58C95.2215 15.4727 95.2463 15.1925 95.2463 14.7355V8.7663C95.2463 8.35498 95.236 8.10262 95.2133 8.00922C95.1679 7.85224 95.0833 7.73302 94.9596 7.64757C94.7863 7.52239 94.5491 7.46079 94.2479 7.46079H93.9405V7.2124H101.715V9.89497H101.455C101.323 9.23923 101.135 8.76829 100.894 8.48215C100.657 8.19601 100.319 7.98737 99.8813 7.85224C99.6255 7.77276 99.147 7.73103 98.4436 7.73103H97.4844L97.4782 7.73898Z" fill="#475576"/>
<path d="M106.738 7.70516V11.6813H107.128C107.763 11.6813 108.238 11.6257 108.553 11.5144C108.869 11.3992 109.114 11.1925 109.294 10.8984C109.477 10.6003 109.568 10.2109 109.568 9.73398C109.568 9.04247 109.401 8.53179 109.069 8.20193C108.741 7.87208 108.207 7.70715 107.472 7.70715H106.74L106.738 7.70516ZM106.738 12.1562V14.6997C106.738 15.1905 106.767 15.5005 106.827 15.6297C106.891 15.7548 107 15.8542 107.155 15.9317C107.309 16.0072 107.6 16.045 108.025 16.045V16.2933H103.271V16.045C103.7 16.045 103.988 16.0072 104.141 15.9317C104.296 15.8522 104.403 15.7489 104.463 15.6237C104.527 15.4985 104.56 15.1905 104.56 14.6997V8.80998C104.56 8.31917 104.527 8.01117 104.463 7.88599C104.403 7.75683 104.296 7.6535 104.141 7.57799C103.986 7.50248 103.695 7.46472 103.271 7.46472V7.21634H107.586C108.71 7.21634 109.531 7.29185 110.053 7.44287C110.573 7.59389 110.998 7.87605 111.328 8.28539C111.656 8.69076 111.821 9.16766 111.821 9.71808C111.821 10.3877 111.573 10.9401 111.082 11.3793C110.767 11.6555 110.325 11.8621 109.76 12.0012L111.994 15.0733C112.285 15.4707 112.493 15.7191 112.617 15.8164C112.805 15.9555 113.021 16.031 113.269 16.043V16.2914H110.344L107.351 12.1542H106.74L106.738 12.1562Z" fill="#475576"/>
<path d="M118.282 16.045V16.2934H113.424V16.045H113.733C114.003 16.045 114.22 15.9973 114.385 15.9039C114.505 15.8403 114.595 15.735 114.659 15.582C114.709 15.4747 114.734 15.1945 114.734 14.7375V8.76829C114.734 8.30331 114.709 8.01319 114.659 7.89794C114.608 7.78269 114.507 7.68135 114.35 7.59591C114.199 7.50649 113.993 7.46277 113.733 7.46277H113.424V7.21439H118.282V7.46277H117.972C117.702 7.46277 117.485 7.51046 117.322 7.60385C117.203 7.66545 117.11 7.77276 117.042 7.92576C116.992 8.03306 116.968 8.31324 116.968 8.76829V14.7375C116.968 15.2025 116.992 15.4926 117.042 15.6078C117.098 15.7251 117.201 15.8264 117.351 15.9158C117.506 16.0013 117.714 16.043 117.974 16.043H118.284L118.282 16.045Z" fill="#475576"/>
<path d="M124.205 13.2136L122.821 10.0879L121.396 13.2136H124.203H124.205ZM124.438 13.7083H121.156L120.767 14.5926C120.639 14.8867 120.575 15.1291 120.575 15.3219C120.575 15.5762 120.68 15.763 120.89 15.8842C121.014 15.9557 121.317 16.0094 121.8 16.0452V16.2935H118.71V16.0452C119.044 15.9955 119.316 15.8623 119.533 15.6438C119.748 15.4212 120.012 14.9642 120.327 14.2727L123.648 7.03174H123.778L127.128 14.4734C127.448 15.1788 127.71 15.6219 127.916 15.8047C128.071 15.9438 128.292 16.0233 128.574 16.0452V16.2935H124.081V16.0452H124.267C124.628 16.0452 124.882 15.9955 125.026 15.8981C125.127 15.8266 125.177 15.7232 125.177 15.5901C125.177 15.5106 125.162 15.4272 125.135 15.3417C125.127 15.302 125.057 15.1351 124.929 14.841L124.436 13.7083H124.438Z" fill="#475576"/>
<path d="M133.013 16.1823V16.3194H130.319V16.1823H130.491C130.639 16.1823 130.761 16.1564 130.852 16.1048C130.918 16.069 130.967 16.0114 131.004 15.9259C131.033 15.8663 131.045 15.7113 131.045 15.459V12.1485C131.045 11.8902 131.031 11.7292 131.004 11.6656C130.977 11.602 130.92 11.5464 130.833 11.4987C130.748 11.449 130.635 11.4252 130.491 11.4252H130.319V11.2881H133.013V11.4252H132.842C132.694 11.4252 132.574 11.451 132.481 11.5027C132.415 11.5385 132.364 11.5961 132.324 11.6795C132.298 11.7392 132.283 11.8961 132.283 12.1485V15.459C132.283 15.7153 132.298 15.8763 132.324 15.9418C132.355 16.0054 132.413 16.063 132.496 16.1127C132.58 16.1604 132.696 16.1843 132.84 16.1843H133.011L133.013 16.1823Z" fill="#475576"/>
<path d="M135.128 11.2881L137.67 14.4078V12.2439C137.67 11.9418 137.626 11.7372 137.537 11.6319C137.416 11.4888 137.212 11.4192 136.927 11.4252V11.2881H138.629V11.4252C138.41 11.453 138.264 11.4888 138.187 11.5325C138.115 11.5742 138.055 11.6458 138.012 11.7451C137.971 11.8425 137.952 12.0074 137.952 12.2459V16.4346H137.822L134.34 12.2459V15.4451C134.34 15.7352 134.408 15.9299 134.542 16.0313C134.678 16.1326 134.835 16.1823 135.011 16.1823H135.132V16.3194H133.305V16.1823C133.589 16.1803 133.785 16.1227 133.897 16.0114C134.008 15.9001 134.064 15.7113 134.064 15.4431V11.8922L133.954 11.759C133.845 11.6259 133.748 11.5385 133.666 11.4947C133.583 11.453 133.464 11.4292 133.305 11.4252V11.2881H135.132H135.128Z" fill="#475576"/>
<path d="M144 11.1729V12.9175H143.851C143.74 12.4625 143.532 12.1147 143.228 11.8703C142.925 11.6279 142.581 11.5067 142.195 11.5067C141.873 11.5067 141.578 11.5961 141.31 11.7769C141.042 11.9577 140.846 12.1942 140.722 12.4863C140.563 12.8599 140.483 13.2752 140.483 13.7322C140.483 14.1892 140.541 14.5926 140.658 14.9642C140.776 15.3338 140.957 15.612 141.205 15.8028C141.452 15.9895 141.774 16.0849 142.17 16.0849C142.494 16.0849 142.791 16.0154 143.059 15.8763C143.329 15.7372 143.616 15.4987 143.913 15.1609V15.5941C143.624 15.8882 143.323 16.1028 143.01 16.2359C142.698 16.3671 142.333 16.4327 141.916 16.4327C141.368 16.4327 140.879 16.3254 140.452 16.1108C140.027 15.8962 139.697 15.5862 139.464 15.1828C139.233 14.7794 139.117 14.3502 139.117 13.8952C139.117 13.4143 139.245 12.9612 139.501 12.53C139.759 12.1008 140.105 11.765 140.541 11.5285C140.978 11.2921 141.444 11.1729 141.935 11.1729C142.296 11.1729 142.68 11.2503 143.082 11.4034C143.315 11.4928 143.463 11.5365 143.527 11.5365C143.608 11.5365 143.678 11.5087 143.736 11.451C143.796 11.3914 143.835 11.298 143.853 11.1729H144.002H144Z" fill="#475576"/>
<path d="M3.59128 7.57621V14.6582C3.59128 15.0337 3.60985 15.2623 3.64698 15.3477C3.68411 15.4331 3.74599 15.4967 3.83469 15.5424C3.96052 15.61 4.13998 15.6418 4.37514 15.6418C5.14868 15.6418 5.73863 15.3874 6.14706 14.8787C6.70401 14.1912 6.98042 13.1261 6.98042 11.6795C6.98042 10.5151 6.79064 9.58515 6.41109 8.88769C6.10993 8.34323 5.72213 7.97363 5.25182 7.77691C4.91765 7.6398 4.36482 7.57025 3.59128 7.57621ZM0 16.1366V15.8882H0.311478C0.585827 15.8882 0.794167 15.8484 0.936498 15.767C1.08502 15.6835 1.19434 15.5683 1.26242 15.4252C1.30367 15.3318 1.3243 15.0516 1.3243 14.5827V8.61347C1.3243 8.14849 1.29955 7.85838 1.24798 7.74313C1.19641 7.62788 1.09327 7.52654 0.934436 7.44308C0.78179 7.35366 0.57345 7.30796 0.309416 7.30796H0V7.05957H4.2163C5.34258 7.05957 6.24814 7.20661 6.93297 7.5007C7.77252 7.86235 8.40579 8.4088 8.83691 9.14005C9.27216 9.87129 9.48875 10.6999 9.48875 11.6239C9.48875 12.2618 9.38148 12.8519 9.16902 13.3904C8.95449 13.9269 8.68014 14.3701 8.34185 14.7218C8.00355 15.0695 7.61163 15.3517 7.16813 15.5663C6.7267 15.7769 6.18831 15.9398 5.54886 16.0551C5.26626 16.1088 4.82276 16.1346 4.2163 16.1346H0V16.1366Z" fill="#475576"/>
<path d="M13.9653 7.58419V11.2782H14.153C14.7512 11.2782 15.1844 11.0974 15.4526 10.7357C15.7207 10.3741 15.8919 9.84152 15.9662 9.13611H16.2302V13.8872H15.9662C15.9105 13.3686 15.7929 12.9453 15.6114 12.6155C15.4361 12.2856 15.2298 12.0651 14.9926 11.9518C14.7553 11.8366 14.4129 11.7769 13.9632 11.7769V14.3343C13.9632 14.8351 13.9839 15.1411 14.0272 15.2504C14.0746 15.3616 14.1571 15.453 14.2768 15.5246C14.3985 15.5961 14.5924 15.6319 14.8606 15.6319H15.4237C16.3045 15.6319 17.0079 15.4352 17.536 15.0437C18.0682 14.6503 18.4498 14.0522 18.6829 13.2494H18.9407L18.5158 16.1346H10.374V15.8862H10.6855C10.9578 15.8862 11.1785 15.8385 11.3456 15.7451C11.4652 15.6835 11.5581 15.5762 11.6241 15.4232C11.6756 15.3159 11.7004 15.0358 11.7004 14.5807V8.61152C11.7004 8.20019 11.6901 7.94783 11.6653 7.85444C11.6199 7.69746 11.5333 7.57823 11.4075 7.49279C11.2321 7.3676 10.9908 7.306 10.6855 7.306H10.374V7.05762H18.26V9.74217H17.996C17.8619 9.08643 17.6721 8.61549 17.4266 8.32935C17.1853 8.0452 16.8429 7.83457 16.3973 7.70143C16.1374 7.61996 15.6527 7.58221 14.9389 7.58221H13.9653V7.58419Z" fill="#475576"/>
<path d="M26.2635 6.85459L26.3398 9.87894H26.0551C25.9211 9.11987 25.589 8.51182 25.0609 8.05082C24.5369 7.58584 23.9697 7.35534 23.3591 7.35534C22.8867 7.35534 22.5113 7.47854 22.2328 7.72295C21.9605 7.96339 21.8244 8.24357 21.8244 8.55951C21.8244 8.76021 21.8718 8.93905 21.9709 9.09404C22.1049 9.30467 22.3195 9.51133 22.6165 9.716C22.8352 9.86304 23.3364 10.1253 24.1244 10.4989C25.2259 11.0215 25.9706 11.5143 26.3542 11.9793C26.7338 12.4443 26.9236 12.9748 26.9236 13.5709C26.9236 14.33 26.6142 14.9838 25.9995 15.5322C25.3889 16.0767 24.6091 16.3489 23.6644 16.3489C23.3674 16.3489 23.0868 16.3211 22.8228 16.2614C22.5587 16.2038 22.2287 16.0945 21.8285 15.9336C21.6057 15.8442 21.4242 15.7985 21.2798 15.7985C21.1602 15.7985 21.0323 15.8442 20.8982 15.9336C20.7641 16.023 20.6548 16.1581 20.5723 16.3429H20.3145V12.9152H20.5723C20.7765 13.8789 21.1664 14.6142 21.746 15.1229C22.3298 15.6276 22.9569 15.8799 23.6293 15.8799C24.1471 15.8799 24.5596 15.7428 24.8649 15.4706C25.1764 15.1984 25.3311 14.8804 25.3311 14.5188C25.3311 14.3042 25.2713 14.0975 25.1496 13.8968C25.0341 13.6961 24.8567 13.5054 24.6153 13.3285C24.374 13.1457 23.947 12.9092 23.3364 12.6191C22.4804 12.2118 21.8636 11.866 21.4882 11.5819C21.1127 11.2957 20.824 10.9778 20.6197 10.6241C20.4217 10.2724 20.3206 9.88291 20.3206 9.45966C20.3206 8.73636 20.5971 8.12037 21.1478 7.61167C21.6986 7.10298 22.3937 6.84863 23.2333 6.84863C23.5386 6.84863 23.8356 6.8844 24.1223 6.95594C24.3389 7.00959 24.605 7.10894 24.9144 7.25797C25.23 7.40104 25.4487 7.47258 25.5745 7.47258C25.7003 7.47258 25.789 7.43681 25.8592 7.36527C25.9293 7.29374 25.9933 7.12285 26.0551 6.85062H26.2635V6.85459Z" fill="#475576"/>
<path d="M32.7032 15.8901V16.1385H27.7773V15.8901H28.0888C28.3611 15.8901 28.5839 15.8424 28.7489 15.7491C28.8706 15.6875 28.9634 15.5802 29.0274 15.4271C29.079 15.3198 29.1037 15.0397 29.1037 14.5846V8.61542C29.1037 8.15045 29.079 7.86033 29.0274 7.74508C28.9758 7.62983 28.8727 7.52849 28.7159 7.44503C28.5633 7.35561 28.3549 7.30991 28.0909 7.30991H27.7794V7.06152H32.7053V7.30991H32.3918C32.1195 7.30991 31.8988 7.3576 31.7317 7.45099C31.61 7.51458 31.5151 7.62188 31.447 7.7729C31.3954 7.8802 31.3707 8.16038 31.3707 8.61741V14.5866C31.3707 15.0516 31.3954 15.3397 31.447 15.457C31.5027 15.5722 31.6058 15.6755 31.7606 15.765C31.9173 15.8504 32.1277 15.8921 32.3938 15.8921H32.7074L32.7032 15.8901Z" fill="#475576"/>
<path d="M42.8478 6.85472V10.0539H42.5899C42.2805 9.17961 41.8143 8.51393 41.1934 8.05889C40.5725 7.60385 39.8939 7.37534 39.1575 7.37534C38.4211 7.37534 37.8682 7.56808 37.4 7.95159C36.9317 8.33112 36.5996 8.86167 36.4057 9.54523C36.2118 10.2288 36.1128 10.9282 36.1128 11.6476C36.1128 12.5179 36.2201 13.2809 36.4325 13.9367C36.645 14.5924 36.9874 15.0733 37.4598 15.3813C37.9363 15.6893 38.5015 15.8423 39.1554 15.8423C39.3823 15.8423 39.6133 15.8204 39.8506 15.7747C40.0919 15.7251 40.3374 15.6575 40.587 15.5681V13.6804C40.587 13.3227 40.5622 13.0942 40.5106 12.9908C40.4591 12.8835 40.3518 12.7882 40.1909 12.7027C40.0341 12.6173 39.8402 12.5755 39.6133 12.5755H39.3699V12.3271H43.9493V12.5755C43.6027 12.5974 43.3593 12.6451 43.2191 12.7166C43.085 12.7842 42.9798 12.8974 42.9055 13.0584C42.8643 13.1438 42.8436 13.3505 42.8436 13.6804V15.5681C42.2413 15.8264 41.6142 16.0211 40.9603 16.1503C40.3106 16.2834 39.6381 16.351 38.9388 16.351C38.0436 16.351 37.301 16.2357 36.709 16.0033C36.1211 15.7668 35.5992 15.4588 35.1454 15.0793C34.6957 14.6958 34.343 14.2646 34.0892 13.7877C33.7654 13.1717 33.6045 12.4821 33.6045 11.7191C33.6045 10.354 34.1016 9.19948 35.0979 8.25959C36.0922 7.31771 37.3464 6.84677 38.8563 6.84677C39.3246 6.84677 39.7454 6.88254 40.1208 6.95407C40.325 6.98984 40.653 7.09118 41.1068 7.26207C41.5647 7.427 41.837 7.51046 41.9195 7.51046C42.0495 7.51046 42.1691 7.46475 42.2805 7.37534C42.3919 7.28194 42.495 7.10907 42.5858 6.85472H42.8436H42.8478Z" fill="#475576"/>
<path d="M47.6425 7.06156L52.292 12.691V8.78833C52.292 8.24387 52.2115 7.87626 52.0486 7.68352C51.8258 7.42519 51.4524 7.30001 50.9305 7.30796V7.05957H54.0432V7.30796C53.6451 7.35763 53.377 7.42122 53.2367 7.50269C53.1026 7.5782 52.9954 7.70537 52.917 7.88421C52.8427 8.05709 52.8056 8.35912 52.8056 8.78833V16.3452H52.5704L46.1985 8.78833V14.5588C46.1985 15.0794 46.3202 15.4331 46.5678 15.616C46.8174 15.7988 47.102 15.8902 47.4218 15.8902H47.6445V16.1386H44.3028V15.8902C44.8227 15.8862 45.1836 15.7829 45.3858 15.5822C45.59 15.3815 45.6911 15.0397 45.6911 14.5588V8.15445L45.4889 7.91203C45.2909 7.67159 45.1135 7.51263 44.9609 7.43712C44.8082 7.36161 44.5875 7.31988 44.3008 7.30994V7.06156H47.6425Z" fill="#475576"/>
</svg>
