<svg width="64" height="64" viewBox="0 0 64 64" fill="none" xmlns="http://www.w3.org/2000/svg">
<path d="M53.0003 33.0606C50.6229 33.0295 48.3517 32.0713 46.6705 30.3901C44.9893 28.7089 44.0311 26.4377 44 24.0603C43.9602 22.6253 44.2231 21.1979 44.7715 19.8712C45.3199 18.5445 46.1416 17.3482 47.1831 16.3601C47.2751 16.2659 47.3846 16.1907 47.5056 16.1388C47.6266 16.0869 47.7566 16.0594 47.8883 16.0578C48.0199 16.0562 48.1506 16.0805 48.2728 16.1293C48.395 16.1782 48.5064 16.2507 48.6007 16.3426C48.6949 16.4345 48.7701 16.5441 48.822 16.6651C48.8738 16.7861 48.9014 16.9161 48.903 17.0478C48.9046 17.1794 48.8803 17.3101 48.8314 17.4323C48.7826 17.5545 48.7101 17.6659 48.6182 17.7602C47.7595 18.5642 47.082 19.542 46.6305 20.6283C46.1791 21.7146 45.9642 22.8845 46.0001 24.0603C46.0001 25.9169 46.7376 27.6974 48.0504 29.0102C49.3632 30.323 51.1437 31.0606 53.0003 31.0606C54.8569 31.0606 56.6374 30.323 57.9502 29.0102C59.263 27.6974 60.0005 25.9169 60.0005 24.0603C60.0005 20.1762 58.1345 18.4252 56.1584 16.5711C54.9031 15.5134 53.8354 14.2512 53.0003 12.838C52.3904 13.924 51.6143 14.908 50.7002 15.7541C50.5107 15.9398 50.2552 16.0425 49.99 16.0398C49.7247 16.0371 49.4713 15.9291 49.2857 15.7396C49.1 15.5501 48.9973 15.2946 49 15.0293C49.0027 14.764 49.1107 14.5107 49.3002 14.3251C50.0919 13.6718 50.7403 12.8623 51.2049 11.947C51.6695 11.0318 51.9403 10.0305 52.0003 9.00589C52.0003 8.74067 52.1056 8.4863 52.2932 8.29876C52.4807 8.11122 52.7351 8.00586 53.0003 8.00586C53.2655 8.00586 53.5199 8.11122 53.7074 8.29876C53.895 8.4863 54.0003 8.74067 54.0003 9.00589C54.1573 11.95 55.7194 13.415 57.5274 15.1131C59.6235 17.0811 62.0006 19.3102 62.0006 24.0603C61.9695 26.4377 61.0113 28.7089 59.3301 30.3901C57.6489 32.0713 55.3777 33.0295 53.0003 33.0606Z" fill="#606C7A"/>
<path d="M57.0003 25.0605C56.735 25.0605 56.4807 24.9551 56.2931 24.7676C56.1056 24.58 56.0002 24.3257 56.0002 24.0604C56.0002 21.9074 55.2452 21.1993 53.4212 19.4883C53.3214 19.3996 53.2405 19.2918 53.1831 19.1712C53.1257 19.0507 53.093 18.9199 53.087 18.7866C53.0809 18.6532 53.1016 18.52 53.1479 18.3948C53.1941 18.2696 53.2649 18.1549 53.3562 18.0575C53.4475 17.9601 53.5573 17.8819 53.6793 17.8276C53.8012 17.7734 53.9328 17.744 54.0662 17.7414C54.1997 17.7388 54.3323 17.7629 54.4563 17.8123C54.5803 17.8618 54.6932 17.9355 54.7882 18.0293C56.7233 19.8423 58.0003 21.0403 58.0003 24.0604C58.0003 24.3257 57.8949 24.58 57.7074 24.7676C57.5199 24.9551 57.2655 25.0605 57.0003 25.0605Z" fill="#606C7A"/>
<path d="M32.0003 33.0606C29.6229 33.0295 27.3517 32.0713 25.6705 30.3901C23.9893 28.7089 23.0311 26.4377 23 24.0603C22.9602 22.6253 23.2231 21.1979 23.7715 19.8712C24.3199 18.5445 25.1416 17.3482 26.1831 16.3601C26.2751 16.2659 26.3846 16.1907 26.5056 16.1388C26.6266 16.0869 26.7566 16.0594 26.8883 16.0578C27.0199 16.0562 27.1506 16.0805 27.2728 16.1293C27.395 16.1782 27.5064 16.2507 27.6007 16.3426C27.6949 16.4345 27.7701 16.5441 27.822 16.6651C27.8738 16.7861 27.9014 16.9161 27.903 17.0478C27.9046 17.1794 27.8803 17.3101 27.8314 17.4323C27.7826 17.5545 27.7101 17.6659 27.6182 17.7602C26.7595 18.5642 26.082 19.542 25.6305 20.6283C25.1791 21.7146 24.9642 22.8845 25.0001 24.0603C25.0001 25.9169 25.7376 27.6974 27.0504 29.0102C28.3632 30.323 30.1437 31.0606 32.0003 31.0606C33.8569 31.0606 35.6374 30.323 36.9502 29.0102C38.263 27.6974 39.0005 25.9169 39.0005 24.0603C39.0005 20.1762 37.1345 18.4252 35.1584 16.5711C33.9031 15.5134 32.8354 14.2512 32.0003 12.838C31.3904 13.924 30.6143 14.908 29.7002 15.7541C29.6064 15.846 29.4954 15.9186 29.3735 15.9676C29.2516 16.0166 29.1213 16.0412 28.99 16.0398C28.8586 16.0385 28.7288 16.0113 28.608 15.9597C28.4871 15.9082 28.3776 15.8334 28.2857 15.7396C28.1938 15.6458 28.1212 15.5347 28.0722 15.4129C28.0232 15.291 27.9986 15.1607 28 15.0293C28.0027 14.764 28.1107 14.5107 28.3002 14.3251C29.0919 13.6718 29.7403 12.8623 30.2049 11.947C30.6695 11.0318 30.9403 10.0305 31.0003 9.00589C31.0003 8.74067 31.1056 8.4863 31.2932 8.29876C31.4807 8.11122 31.7351 8.00586 32.0003 8.00586C32.2655 8.00586 32.5199 8.11122 32.7074 8.29876C32.895 8.4863 33.0003 8.74067 33.0003 9.00589C33.1573 11.95 34.7194 13.415 36.5274 15.1131C38.6235 17.0811 41.0006 19.3102 41.0006 24.0603C40.9695 26.4377 40.0113 28.7089 38.3301 30.3901C36.6489 32.0713 34.3777 33.0295 32.0003 33.0606Z" fill="#606C7A"/>
<path d="M35.9983 25.0605C35.7331 25.0605 35.4787 24.9551 35.2912 24.7676C35.1036 24.58 34.9983 24.3257 34.9983 24.0604C34.9983 21.9074 34.2433 21.1993 32.4192 19.4883C32.3195 19.3996 32.2385 19.2918 32.1812 19.1712C32.1238 19.0507 32.0911 18.9199 32.085 18.7866C32.079 18.6532 32.0997 18.52 32.1459 18.3948C32.1921 18.2696 32.263 18.1549 32.3543 18.0575C32.4455 17.9601 32.5554 17.8819 32.6773 17.8276C32.7993 17.7734 32.9308 17.744 33.0643 17.7414C33.1977 17.7388 33.3304 17.7629 33.4544 17.8123C33.5784 17.8618 33.6912 17.9355 33.7862 18.0293C35.7213 19.8423 36.9983 21.0403 36.9983 24.0604C36.9983 24.3257 36.893 24.58 36.7054 24.7676C36.5179 24.9551 36.2635 25.0605 35.9983 25.0605Z" fill="#606C7A"/>
<path d="M10.9983 33.0606C8.62099 33.0295 6.34975 32.0713 4.66856 30.3901C2.98737 28.7089 2.02916 26.4377 1.99807 24.0603C1.95825 22.6253 2.22112 21.1979 2.76955 19.8712C3.31798 18.5445 4.13969 17.3482 5.18117 16.3601C5.2731 16.2659 5.38269 16.1907 5.50368 16.1388C5.62467 16.0869 5.75469 16.0594 5.88632 16.0578C6.01795 16.0562 6.14861 16.0805 6.27084 16.1293C6.39308 16.1782 6.50449 16.2507 6.59871 16.3426C6.69294 16.4345 6.76814 16.5441 6.82001 16.6651C6.87189 16.7861 6.89942 16.9161 6.90105 17.0478C6.90267 17.1794 6.87836 17.3101 6.82948 17.4323C6.78061 17.5545 6.70814 17.6659 6.61622 17.7602C5.75758 18.5642 5.08001 19.542 4.62859 20.6283C4.17718 21.7146 3.96226 22.8845 3.99814 24.0603C4.02248 25.9093 4.76781 27.6758 6.07537 28.9833C7.38292 30.2909 9.14935 31.0362 10.9983 31.0606C12.8474 31.0362 14.6138 30.2909 15.9213 28.9833C17.2289 27.6758 17.9742 25.9093 17.9986 24.0603C17.9986 20.1762 16.1325 18.4252 14.1564 16.5711C12.9011 15.5134 11.8334 14.2512 10.9983 12.838C10.3884 13.924 9.61236 14.908 8.69828 15.7541C8.60445 15.846 8.49343 15.9186 8.37156 15.9676C8.24969 16.0166 8.11936 16.0412 7.988 16.0398C7.85665 16.0385 7.72685 16.0113 7.60601 15.9597C7.48517 15.9082 7.37566 15.8334 7.28374 15.7396C7.19181 15.6458 7.11926 15.5347 7.07024 15.4129C7.02122 15.291 6.99668 15.1607 6.99802 15.0293C6.99937 14.898 7.02658 14.7682 7.07809 14.6473C7.1296 14.5265 7.2044 14.417 7.29824 14.3251C8.08996 13.6718 8.73839 12.8623 9.20298 11.947C9.66757 11.0318 9.93833 10.0305 9.99832 9.00589C9.99832 8.74067 10.1037 8.4863 10.2912 8.29876C10.4788 8.11122 10.7331 8.00586 10.9983 8.00586C11.2636 8.00586 11.5179 8.11122 11.7055 8.29876C11.893 8.4863 11.9984 8.74067 11.9984 9.00589C12.1554 11.95 13.7174 13.415 15.5255 15.1131C17.6215 17.0811 19.9986 19.3102 19.9986 24.0603C19.9675 26.4377 19.0093 28.7089 17.3281 30.3901C15.6469 32.0713 13.3757 33.0295 10.9983 33.0606Z" fill="#606C7A"/>
<path d="M14.9983 25.0605C14.7331 25.0605 14.4787 24.9551 14.2912 24.7676C14.1036 24.58 13.9983 24.3257 13.9983 24.0604C13.9983 21.9074 13.2433 21.1993 11.4192 19.4883C11.3195 19.3996 11.2385 19.2918 11.1812 19.1712C11.1238 19.0507 11.0911 18.9199 11.085 18.7866C11.079 18.6532 11.0997 18.52 11.1459 18.3948C11.1921 18.2696 11.263 18.1549 11.3543 18.0575C11.4455 17.9601 11.5554 17.8819 11.6773 17.8276C11.7993 17.7734 11.9308 17.744 12.0643 17.7414C12.1978 17.7388 12.3304 17.7629 12.4544 17.8123C12.5784 17.8618 12.6912 17.9355 12.7862 18.0293C14.7213 19.8423 15.9983 21.0403 15.9983 24.0604C15.9983 24.3257 15.893 24.58 15.7054 24.7676C15.5179 24.9551 15.2635 25.0605 14.9983 25.0605Z" fill="#606C7A"/>
<path d="M63 37.0606H0.998077C0.732853 37.0606 0.478491 36.9552 0.290949 36.7677C0.103407 36.5802 -0.00195312 36.3258 -0.00195312 36.0606C-0.00195312 35.7954 0.103407 35.541 0.290949 35.3534C0.478491 35.1659 0.732853 35.0605 0.998077 35.0605H63C63.2652 35.0605 63.5196 35.1659 63.7071 35.3534C63.8946 35.541 64 35.7954 64 36.0606C64 36.3258 63.8946 36.5802 63.7071 36.7677C63.5196 36.9552 63.2652 37.0606 63 37.0606Z" fill="#606C7A"/>
<path d="M31.9981 56.0611C31.7329 56.0611 31.4785 55.9557 31.2909 55.7682C31.1034 55.5806 30.998 55.3263 30.998 55.061V40.0606C30.998 39.7954 31.1034 39.541 31.2909 39.3534C31.4785 39.1659 31.7329 39.0605 31.9981 39.0605C32.2633 39.0605 32.5177 39.1659 32.7052 39.3534C32.8927 39.541 32.9981 39.7954 32.9981 40.0606V55.061C32.9981 55.3263 32.8927 55.5806 32.7052 55.7682C32.5177 55.9557 32.2633 56.0611 31.9981 56.0611Z" fill="#606C7A"/>
<path d="M31.9996 56.0611C31.7344 56.0611 31.4801 55.9557 31.2926 55.7681L27.2924 51.768C27.1103 51.5794 27.0095 51.3268 27.0118 51.0646C27.014 50.8024 27.1192 50.5516 27.3046 50.3661C27.49 50.1807 27.7409 50.0756 28.0031 50.0733C28.2653 50.071 28.5179 50.1718 28.7065 50.354L31.9996 53.6471L35.2927 50.354C35.4813 50.1718 35.7339 50.071 35.9961 50.0733C36.2583 50.0756 36.5091 50.1807 36.6945 50.3661C36.88 50.5516 36.9851 50.8024 36.9874 51.0646C36.9897 51.3268 36.8889 51.5794 36.7067 51.768L32.7066 55.7681C32.5191 55.9557 32.2648 56.0611 31.9996 56.0611Z" fill="#606C7A"/>
<path d="M11 56.0611C10.7348 56.0611 10.4804 55.9557 10.2929 55.7682C10.1054 55.5806 10 55.3263 10 55.061V40.0606C10 39.7954 10.1054 39.541 10.2929 39.3534C10.4804 39.1659 10.7348 39.0605 11 39.0605C11.2653 39.0605 11.5196 39.1659 11.7072 39.3534C11.8947 39.541 12.0001 39.7954 12.0001 40.0606V55.061C12.0001 55.3263 11.8947 55.5806 11.7072 55.7682C11.5196 55.9557 11.2653 56.0611 11 56.0611Z" fill="#606C7A"/>
<path d="M10.9976 56.0611C10.7324 56.0611 10.4781 55.9557 10.2906 55.7681L6.29049 51.768C6.10832 51.5794 6.00752 51.3268 6.0098 51.0646C6.01208 50.8024 6.11725 50.5516 6.30267 50.3661C6.48808 50.1807 6.7389 50.0756 7.00111 50.0733C7.26331 50.071 7.51592 50.1718 7.70453 50.354L10.9976 53.6471L14.2907 50.354C14.4793 50.1718 14.7319 50.071 14.9942 50.0733C15.2564 50.0756 15.5072 50.1807 15.6926 50.3661C15.878 50.5516 15.9832 50.8024 15.9855 51.0646C15.9877 51.3268 15.8869 51.5794 15.7048 51.768L11.7047 55.7681C11.5172 55.9557 11.2628 56.0611 10.9976 56.0611Z" fill="#606C7A"/>
<path d="M53 56.0611C52.7348 56.0611 52.4804 55.9557 52.2929 55.7682C52.1054 55.5806 52 55.3263 52 55.061V40.0606C52 39.7954 52.1054 39.541 52.2929 39.3534C52.4804 39.1659 52.7348 39.0605 53 39.0605C53.2653 39.0605 53.5196 39.1659 53.7072 39.3534C53.8947 39.541 54.0001 39.7954 54.0001 40.0606V55.061C54.0001 55.3263 53.8947 55.5806 53.7072 55.7682C53.5196 55.9557 53.2653 56.0611 53 56.0611Z" fill="#606C7A"/>
<path d="M52.9996 56.0611C52.7344 56.0611 52.4801 55.9557 52.2926 55.7681L48.2924 51.768C48.1103 51.5794 48.0095 51.3268 48.0118 51.0646C48.014 50.8024 48.1192 50.5516 48.3046 50.3661C48.49 50.1807 48.7409 50.0756 49.0031 50.0733C49.2653 50.071 49.5179 50.1718 49.7065 50.354L52.9996 53.6471L56.2927 50.354C56.4813 50.1718 56.7339 50.071 56.9961 50.0733C57.2583 50.0756 57.5091 50.1807 57.6945 50.3661C57.88 50.5516 57.9851 50.8024 57.9874 51.0646C57.9897 51.3268 57.8889 51.5794 57.7067 51.768L53.7066 55.7681C53.5191 55.9557 53.2648 56.0611 52.9996 56.0611Z" fill="#606C7A"/>
</svg>
