<svg width="40" height="40" viewBox="0 0 40 40" fill="none" xmlns="http://www.w3.org/2000/svg">
<path d="M20 4C11.1776 4 4 11.1776 4 20C4 28.8224 11.1776 36 20 36C28.8224 36 36 28.8224 36 20C36 11.1776 28.8232 4 20 4ZM20 34.4C12.06 34.4 5.6 27.94 5.6 20C5.6 12.06 12.06 5.6 20 5.6C27.94 5.6 34.4 12.06 34.4 20C34.4 27.94 27.94 34.4 20 34.4ZM32.8 20C32.8 20.4416 32.4416 20.8 32 20.8H31.1992C30.7576 20.8 30.4 20.4416 30.4 20C30.4 19.5584 30.7584 19.2 31.2 19.2H32.0008C32.4424 19.2 32.8 19.5584 32.8 20ZM20.8 31.2V32C20.8 32.4416 20.4424 32.8 20 32.8C19.5576 32.8 19.2 32.4416 19.2 32V31.2C19.2 30.7584 19.5576 30.4 20 30.4C20.4424 30.4 20.8 30.7584 20.8 31.2ZM8.8 20.8H7.9992C7.5576 20.8 7.2 20.4416 7.2 20C7.2 19.5584 7.5584 19.2 8 19.2H8.0008H8.8008C9.2424 19.2 9.6 19.5584 9.6 20C9.6 20.4416 9.2416 20.8 8.8 20.8ZM21.0344 9.3656C21.1912 9.5216 21.3952 9.6 21.6 9.6C21.8048 9.6 22.0096 9.5216 22.1656 9.3656C22.4784 9.0528 22.4784 8.5472 22.1656 8.2344L20.5656 6.6344C20.2528 6.3216 19.7472 6.3216 19.4344 6.6344L17.8344 8.2344C17.5216 8.5472 17.5216 9.0528 17.8344 9.3656C18.1472 9.6784 18.6528 9.6784 18.9656 9.3656L19.2 9.1312V11.6688L17.8344 13.0344C17.5216 13.3472 17.5216 13.8528 17.8344 14.1656C18.1472 14.4784 18.6528 14.4784 18.9656 14.1656L19.2 13.9312V17.7472C18.2712 18.0784 17.6 18.9584 17.6 20C17.6 21.3232 18.6768 22.4 20 22.4C21.3232 22.4 22.4 21.3232 22.4 20C22.4 18.9584 21.7288 18.0784 20.8 17.7472V13.9312L21.0344 14.1656C21.1912 14.3216 21.3952 14.4 21.6 14.4C21.8048 14.4 22.0096 14.3216 22.1656 14.1656C22.4784 13.8528 22.4784 13.3472 22.1656 13.0344L20.8 11.6688V9.1312L21.0344 9.3656ZM20 20.8C19.5584 20.8 19.2 20.4408 19.2 20C19.2 19.5592 19.5584 19.2 20 19.2C20.4416 19.2 20.8 19.5592 20.8 20C20.8 20.4408 20.4416 20.8 20 20.8ZM10.9936 25.2008C11.2144 25.5832 11.0832 26.0728 10.7008 26.2936C10.7008 26.2936 10.7008 26.2936 10.7 26.2936L10.0072 26.6936C9.6248 26.9136 9.136 26.7824 8.9152 26.4C8.6944 26.0176 8.8256 25.528 9.208 25.3072L9.9016 24.9072C10.284 24.6864 10.7728 24.8184 10.9936 25.2008ZM15.0936 30.1L14.6928 30.7936C14.472 31.176 13.9824 31.3064 13.6 31.0856C13.2176 30.8648 13.0864 30.3752 13.3072 29.9928L13.7072 29.2992C13.928 28.9168 14.4176 28.7864 14.8 29.0072C15.184 29.228 15.3144 29.7176 15.0936 30.1ZM31.0856 26.4C30.8648 26.7824 30.376 26.9136 29.9936 26.6936L29.3008 26.2936C28.9184 26.0728 28.7864 25.584 29.0072 25.2008C29.228 24.8184 29.7168 24.6872 30.0992 24.9072L30.792 25.3072C31.1736 25.528 31.3064 26.0168 31.0856 26.4ZM26.6928 29.9928C26.9136 30.3752 26.7832 30.8648 26.4 31.0856C26.0176 31.3064 25.528 31.176 25.3072 30.7936L24.9072 30.1008C24.6864 29.7184 24.8168 29.228 25.2 29.0072C25.5824 28.7864 26.072 28.9168 26.2928 29.2992L26.6928 29.9928ZM29.0064 14.7992C28.7856 14.4168 28.9168 13.9272 29.2992 13.7064L29.9928 13.3064C30.3752 13.0864 30.864 13.2176 31.0848 13.6C31.3056 13.9824 31.1744 14.472 30.792 14.6928C30.792 14.6928 30.792 14.6928 30.7912 14.6928L30.0984 15.0928C29.716 15.3128 29.2272 15.1816 29.0064 14.7992ZM26.6928 10.0072L26.292 10.7008C26.0712 11.0832 25.5816 11.2136 25.1992 10.9928C24.8168 10.772 24.6864 10.2824 24.9064 9.9C24.9064 9.9 24.9064 9.9 24.9064 9.8992L25.3064 9.2064C25.528 8.824 26.0176 8.6936 26.4 8.9144C26.7824 9.1352 26.9136 9.6248 26.6928 10.0072ZM10.9936 14.7992C10.7728 15.1816 10.284 15.3128 9.9016 15.0928L9.2088 14.6928C8.8264 14.472 8.6936 13.9824 8.9152 13.6C9.136 13.2176 9.6248 13.0864 10.0072 13.3064L10.7 13.7064H10.7008C11.0832 13.9272 11.2152 14.416 10.9936 14.7992ZM15.0936 9.9C15.3144 10.2824 15.184 10.772 14.8008 10.9928C14.4184 11.2136 13.9288 11.0832 13.708 10.7008L13.308 10.008C13.308 10.0072 13.308 10.0072 13.308 10.0072C13.0872 9.6248 13.2176 9.1352 13.6008 8.9144C13.9832 8.6936 14.4728 8.824 14.6936 9.2064L15.0936 9.9Z" fill="#606C7A"/>
</svg>
