<svg width="40" height="40" viewBox="0 0 40 40" fill="none" xmlns="http://www.w3.org/2000/svg">
<path d="M27.6565 7.74984H25.0048V4.704C25.0048 4.41734 24.754 4.1665 24.4673 4.1665H16.2257C15.939 4.1665 15.6882 4.41734 15.6882 4.704V7.74984H13.0365C9.05898 7.74984 5.83398 10.9748 5.83398 14.9165V28.2465C5.83398 30.2173 7.44648 31.794 9.38148 31.794H10.0982V35.8432C10.0982 36.1298 10.349 36.3807 10.6357 36.3807H29.9857C30.2723 36.3807 30.5232 36.1298 30.5232 35.8432V31.8298H31.2398C33.2107 31.8298 34.7873 30.2173 34.7873 28.2823V14.9165C34.859 10.9748 31.634 7.74984 27.6565 7.74984ZM16.7632 5.2415H23.9298V8.43067C23.9298 10.4015 22.3173 12.014 20.3465 12.014C18.3757 12.014 16.7632 10.4015 16.7632 8.43067V5.2415ZM13.0365 8.82484H15.724C15.9032 11.2257 17.9098 13.089 20.3465 13.089C22.7831 13.089 24.7898 11.1898 24.969 8.82484H27.6565C31.0248 8.82484 33.784 11.584 33.784 14.9523V17.7115H29.3048C29.0182 17.7115 28.7673 17.9623 28.7673 18.249V25.774H23.9298C23.2132 24.5198 21.8873 23.6598 20.3465 23.6598C18.8415 23.6598 17.4798 24.484 16.7632 25.774H11.9257V18.249C11.9257 17.9623 11.6748 17.7115 11.3882 17.7115H6.90898V14.9165C6.90898 11.5482 9.66815 8.82484 13.0365 8.82484ZM6.90898 28.2823V18.7507H10.8507V26.2757C10.8507 26.5623 11.1015 26.8132 11.3882 26.8132H17.0857C17.3007 26.8132 17.4798 26.7057 17.5873 26.4907C18.089 25.4157 19.164 24.699 20.3465 24.699C22.0307 24.699 23.3565 26.0607 23.3565 27.709C23.3565 29.3573 21.9948 30.719 20.3465 30.719H9.41732C8.01982 30.7548 6.90898 29.644 6.90898 28.2823ZM29.484 35.3415H11.209V31.8298H20.3465H29.484V35.3415ZM33.784 28.2823C33.784 29.644 32.6731 30.7548 31.3115 30.7548H23.1056C23.9298 30.0023 24.4315 28.9273 24.4315 27.7448C24.4315 27.4223 24.3956 27.1357 24.324 26.849H29.3048C29.5915 26.849 29.8423 26.5982 29.8423 26.3115V18.7865H33.784V28.2823Z" fill="#606C7A"/>
<path d="M24.3598 18.858L25.9006 19.4313L24.539 21.3305C24.3598 21.5813 24.4315 21.9038 24.6465 22.083C24.754 22.1547 24.8615 22.1905 24.969 22.1905C25.1481 22.1905 25.2915 22.1188 25.399 21.9755L27.1906 19.503C27.2981 19.3597 27.334 19.1805 27.2623 19.0372C27.1906 18.8938 27.0831 18.7505 26.9398 18.6788L25.3631 18.1055L26.9756 15.8838C27.1548 15.633 27.0831 15.3105 26.8681 15.1313C26.6173 14.9522 26.2948 15.0238 26.1156 15.2388L24.109 18.0338C24.0015 18.1772 23.9656 18.3563 24.0373 18.4997C24.0731 18.6788 24.1806 18.7863 24.3598 18.858Z" fill="#606C7A"/>
<path d="M14.005 19.8971C14.1483 20.0046 14.3275 20.0046 14.4708 19.9329L16.0116 19.3596L16.2266 21.6887C16.2625 21.9754 16.4775 22.1904 16.7641 22.1904H16.8C17.0866 22.1546 17.3016 21.9037 17.3016 21.6171L17.015 18.6071C17.015 18.4279 16.9075 18.2846 16.7641 18.2129C16.6208 18.1412 16.4416 18.1054 16.2983 18.1771L14.7575 18.7504L14.5066 16.0271C14.4708 15.7404 14.22 15.5254 13.9333 15.5254C13.6466 15.5612 13.4316 15.8121 13.4316 16.0987L13.7541 19.5029C13.7541 19.6462 13.8616 19.7896 14.005 19.8971Z" fill="#606C7A"/>
<path d="M19.4155 18.4643H21.0638L20.3472 21.116C20.2755 21.4026 20.4547 21.6893 20.7413 21.761C20.7772 21.761 20.8488 21.7968 20.8847 21.7968C21.1355 21.7968 21.3505 21.6535 21.3863 21.4026L22.2822 18.106C22.318 17.9268 22.2822 17.7835 22.1747 17.6401C22.0672 17.4968 21.9238 17.4251 21.7447 17.4251H20.1322L20.7413 15.1676C20.813 14.881 20.6338 14.5943 20.3472 14.5226C20.0605 14.451 19.7738 14.6301 19.7022 14.9168L18.9138 17.7835C18.878 17.9626 18.9138 18.106 19.0213 18.2493C19.093 18.3926 19.2722 18.4643 19.4155 18.4643Z" fill="#606C7A"/>
</svg>
