<svg width="40" height="40" viewBox="0 0 40 40" fill="none" xmlns="http://www.w3.org/2000/svg">
<path d="M36.6752 28.436L24.0975 7.09278C23.3298 5.78348 21.9626 5 20.443 5C18.9234 5 17.5562 5.78348 16.7885 7.08752L4.21084 28.436C3.42736 29.7663 3.41684 31.3595 4.17929 32.6951C4.94173 34.036 6.32465 34.8352 7.86531 34.8352H33.0154C34.5614 34.8352 35.939 34.036 36.7015 32.6951C37.4692 31.3543 37.4587 29.761 36.6752 28.436ZM35.8181 32.1903C35.2344 33.2104 34.188 33.8151 33.0154 33.8151H7.86531C6.69272 33.8151 5.64634 33.2052 5.06267 32.1903C4.47901 31.1755 4.49478 29.9608 5.08896 28.9513L17.6667 7.60809C18.2503 6.61428 19.2915 6.0201 20.443 6.0201C21.5946 6.0201 22.6357 6.61428 23.2194 7.60809L35.7971 28.9513C36.3912 29.9608 36.4018 31.1702 35.8181 32.1903Z" fill="#606C7A"/>
<path d="M22.7155 14.1967C22.237 13.3817 21.3905 12.8979 20.444 12.8979C19.5028 12.8979 18.6509 13.3817 18.1724 14.1967L11.016 26.3433C10.5269 27.1688 10.5217 28.1574 10.9949 28.9882C11.4682 29.819 12.3253 30.3185 13.2823 30.3185H27.5952C28.5522 30.3185 29.4093 29.8242 29.8825 28.9882C30.3558 28.1574 30.3505 27.1688 29.8615 26.3433L22.7155 14.1967ZM29.0044 28.4834C28.7152 28.9934 28.1894 29.2984 27.6004 29.2984H13.2875C12.6986 29.2984 12.1728 28.9934 11.8836 28.4834C11.5944 27.9733 11.5944 27.3686 11.8941 26.8638L19.0505 14.7173C19.345 14.2178 19.8656 13.9233 20.444 13.9233C21.0224 13.9233 21.5429 14.223 21.8374 14.7173L28.9939 26.8638C29.2936 27.3634 29.2936 27.9733 29.0044 28.4834Z" fill="#606C7A"/>
<path d="M20.0281 24.6236C20.1175 24.7077 20.2384 24.7445 20.3804 24.7445C20.5224 24.7445 20.638 24.7025 20.7274 24.6236C20.8116 24.5395 20.8589 24.4343 20.8694 24.3028L21.0745 20.6378V19.5389C21.0745 19.3443 21.0061 19.1761 20.8747 19.0446C20.6117 18.7712 20.149 18.7712 19.8756 19.0393C19.7441 19.1761 19.6758 19.3443 19.6758 19.5389V20.6431L19.8756 24.3081C19.8861 24.4343 19.9387 24.5447 20.0281 24.6236Z" fill="#606C7A"/>
<path d="M20.3805 25.3545C20.1649 25.3545 19.9809 25.4386 19.8284 25.5911C19.6759 25.7436 19.5918 25.9276 19.5918 26.1432C19.5918 26.3641 19.6759 26.5534 19.8284 26.7059C19.9809 26.8583 20.1649 26.9372 20.3805 26.9372C20.6014 26.9372 20.7907 26.8583 20.9432 26.7059C21.0957 26.5534 21.1745 26.3641 21.1745 26.1432C21.1745 25.9276 21.0957 25.7436 20.9432 25.5911C20.7854 25.4334 20.6014 25.3545 20.3805 25.3545Z" fill="#606C7A"/>
<path d="M35.5378 15.8843C35.6325 16.0473 35.8007 16.1367 35.9795 16.1367C36.0689 16.1367 36.1583 16.1157 36.2372 16.0683C36.4791 15.9264 36.5579 15.6109 36.416 15.369L34.5072 12.1247C34.3653 11.8828 34.0498 11.7987 33.8079 11.9459C33.566 12.0879 33.4871 12.4034 33.6291 12.6452L35.5378 15.8843Z" fill="#606C7A"/>
<path d="M34.2499 19.8174C34.3445 19.9804 34.5128 20.0698 34.6916 20.0698C34.781 20.0698 34.8704 20.0488 34.9492 20.0015C35.1911 19.8595 35.27 19.544 35.128 19.3021L30.4955 11.4411C30.3535 11.1992 30.038 11.1151 29.7962 11.2623C29.5543 11.4043 29.4754 11.7198 29.6174 11.9616L34.2499 19.8174Z" fill="#606C7A"/>
<path d="M4.64772 16.0635C4.7266 16.1108 4.81599 16.1318 4.90538 16.1318C5.0789 16.1318 5.25242 16.0424 5.34707 15.8794L7.25581 12.6351C7.39778 12.3932 7.31891 12.0777 7.07703 11.9357C6.83515 11.7938 6.51965 11.8726 6.37768 12.1145L4.46894 15.3589C4.32697 15.6112 4.40584 15.9215 4.64772 16.0635Z" fill="#606C7A"/>
<path d="M5.94068 19.9966C6.01955 20.0439 6.10894 20.0649 6.19833 20.0649C6.37185 20.0649 6.54538 19.9756 6.64002 19.8126L11.2725 11.9515C11.4145 11.7096 11.3356 11.3941 11.0938 11.2521C10.8519 11.1102 10.5364 11.189 10.3944 11.4309L5.75664 19.2972C5.61467 19.5391 5.6988 19.8546 5.94068 19.9966Z" fill="#606C7A"/>
</svg>
