<?xml version="1.0" encoding="utf-8"?><svg viewBox="0 0 256 256" xmlns="http://www.w3.org/2000/svg" xmlns:xlink="http://www.w3.org/1999/xlink"><style>:root>svg{display:none}:root>svg:target{display:block}</style><svg fill="none" viewBox="0 0 26 13" id="arrow-down" xmlns="http://www.w3.org/2000/svg"><path d="M20.353 13 26 7.514l-1.337-1.298-3.369 3.282V.286H0v1.828h19.412v7.384l-3.37-3.282-1.336 1.298L20.353 13Z" fill="#fff"/></svg><svg fill="none" viewBox="0 0 14 18" id="arrow-download" xmlns="http://www.w3.org/2000/svg"><path d="M7.853 13.357 13.5 7.871l-1.336-1.298-3.37 3.282V.643H.5V2.47h6.412v7.384l-3.37-3.282-1.336 1.298 5.647 5.486ZM1 16h13v2H1z" fill="currentColor"/></svg><svg fill="none" viewBox="0 0 13 14" id="arrow-right" xmlns="http://www.w3.org/2000/svg"><path d="M12.714 6.147 7.23.5 5.93 1.836l3.283 3.37H0V13.5h1.829V7.088h7.384l-3.283 3.37 1.299 1.336 5.485-5.647Z" fill="currentColor"/></svg><svg fill="none" viewBox="0 0 22 22" id="close" xmlns="http://www.w3.org/2000/svg"><rect x=".414" y="20.5" width="28" height="2" rx="1" transform="rotate(-45 .414 20.5)" fill="currentColor"/><rect x="1.414" y=".5" width="28" height="2" rx="1" transform="rotate(45 1.414 .5)" fill="currentColor"/></svg><svg fill="none" viewBox="0 0 16 16" id="facebook" xmlns="http://www.w3.org/2000/svg"><g clip-path="url(#ea)"><path d="M16 8a8 8 0 1 0-9.25 7.903v-5.59H4.719V8H6.75V6.237c0-2.005 1.194-3.112 3.022-3.112.875 0 1.79.156 1.79.156V5.25h-1.008c-.994 0-1.304.617-1.304 1.25V8h2.219l-.355 2.313H9.25v5.59A8.002 8.002 0 0 0 16 8Z" fill="currentColor"/></g><defs><clipPath id="ea"><path fill="#fff" d="M0 0h16v16H0z"/></clipPath></defs></svg><svg fill="none" viewBox="0 0 16 16" id="linkedin" xmlns="http://www.w3.org/2000/svg"><g clip-path="url(#fa)"><path d="M14.816 0H1.18C.528 0 0 .516 0 1.153v13.69A1.17 1.17 0 0 0 1.181 16h13.635c.653 0 1.184-.519 1.184-1.153V1.153C16 .516 15.469 0 14.816 0ZM4.746 13.634H2.373V5.997h2.375v7.637ZM3.56 4.956a1.376 1.376 0 1 1-.004-2.751 1.376 1.376 0 0 1 .004 2.751Zm10.075 8.678h-2.372V9.922c0-.885-.015-2.025-1.234-2.025-1.234 0-1.422.966-1.422 1.962v3.775H6.237V5.997h2.275V7.04h.032c.315-.6 1.09-1.235 2.243-1.235 2.404 0 2.847 1.582 2.847 3.638v4.19Z" fill="currentColor"/></g><defs><clipPath id="fa"><path fill="#fff" d="M0 0h16v16H0z"/></clipPath></defs></svg><svg xml:space="preserve" viewBox="0 0 256 256" id="twitter" xmlns="http://www.w3.org/2000/svg"><g style="stroke:none;stroke-width:0;stroke-dasharray:none;stroke-linecap:butt;stroke-linejoin:miter;stroke-miterlimit:10;fill:none;fill-rule:nonzero;opacity:1"><path d="m.219 2.882 34.748 46.461L0 87.118h7.87l30.614-33.073 24.735 33.073H90L53.297 38.043 85.844 2.882h-7.87L49.781 33.341 27.001 2.882H.219zm11.574 5.797h12.303L78.425 81.32H66.122L11.793 8.679z" style="stroke:none;stroke-width:1;stroke-dasharray:none;stroke-linecap:butt;stroke-linejoin:miter;stroke-miterlimit:10;fill:currentColor;fill-rule:nonzero;opacity:1" transform="matrix(2.81 0 0 2.81 1.407 1.407)"/></g></svg></svg>