<svg width="16" height="16" viewBox="0 0 16 16" fill="none" xmlns="http://www.w3.org/2000/svg">
<path d="M15.6 3.82143C15.4 3.07143 14.9 2.53571 14.2 2.32143C13 2 7.89999 2 7.89999 2C7.89999 2 2.90001 2 1.60001 2.32143C0.900006 2.53571 0.399997 3.07143 0.199997 3.82143C-3.05474e-06 5.21429 0 8 0 8C0 8 3.03984e-06 10.7857 0.300003 12.1786C0.500003 12.9286 0.999997 13.4643 1.7 13.6786C2.9 14 8 14 8 14C8 14 13 14 14.3 13.6786C15 13.4643 15.5 12.9286 15.7 12.1786C16 10.7857 16 8 16 8C16 8 16 5.21429 15.6 3.82143ZM6.39999 10.5714V5.42857L10.6 8L6.39999 10.5714Z" fill="#C1C4CD"/>
</svg>
