<svg width="160" height="160" viewBox="0 0 160 160" fill="none" xmlns="http://www.w3.org/2000/svg">
<path d="M33.7297 9.54346C30.5528 9.54346 27.9866 12.1143 27.9866 15.2889V102.903C27.9864 104.426 28.5913 105.887 29.6684 106.965C30.7454 108.042 32.2063 108.648 33.7297 108.648H126.809C129.989 108.648 132.554 106.074 132.554 102.903V15.2889C132.554 12.1136 129.989 9.54346 126.809 9.54346H33.7297ZM37.005 13.1048H123.426C126.602 13.1048 129.169 15.6772 129.169 18.8495V99.6267C129.169 102.8 126.602 105.373 123.426 105.373H37.005C33.8351 105.373 31.2619 102.799 31.2619 99.6267V18.8495C31.2619 17.3262 31.8669 15.8652 32.9439 14.7879C34.0209 13.7106 35.4817 13.1052 37.005 13.1048ZM33.832 117.997C30.662 117.997 28.0935 120.567 28.0935 123.739V144.842C28.0937 145.595 28.2423 146.341 28.5308 147.037C28.8193 147.733 29.242 148.365 29.7749 148.898C30.3078 149.431 30.9403 149.853 31.6364 150.141C32.3325 150.429 33.0786 150.577 33.832 150.577H127.064C128.585 150.577 130.043 149.972 131.119 148.897C132.194 147.821 132.799 146.363 132.799 144.842V123.739C132.799 120.567 130.229 117.997 127.064 117.997H33.832ZM34.2965 120.798H126.209C128.117 120.798 129.647 122.341 129.647 124.242V144.608C129.648 145.06 129.56 145.507 129.387 145.925C129.215 146.342 128.962 146.722 128.642 147.041C128.323 147.36 127.943 147.614 127.526 147.786C127.108 147.958 126.661 148.047 126.209 148.046H34.2965C32.3947 148.046 30.8512 146.51 30.8512 144.608V124.242C30.8516 123.328 31.2148 122.452 31.8609 121.807C32.5069 121.161 33.383 120.798 34.2965 120.798ZM80.5051 18.0574L71.0399 48.3402L38.6915 48.5117L64.8492 66.5731L55.2071 96.8544L80.3305 78.793L106.316 97.0282L96.5048 66.5731L121.627 48.5117H90.3041L80.5051 18.0574ZM80.3313 28.5515L86.8681 52.1223H110.616L91.6868 65.8871L99.95 88.0844L79.9868 73.8012L62.0884 87.5645L69.1458 65.0273L50.9075 51.9508L73.9622 52.1223L80.3313 28.5515Z" fill="#999EAD"/>
<path d="M85.0529 126.115L85.1052 143.409L88.8765 143.359V136.441H90.5053L90.5546 143.359L94.1228 143.409V136.441L92.3387 134.763L94.1228 133.14V128.526L91.602 126.117L85.0529 126.115ZM88.8742 129.417H90.503V133.14L88.8742 133.189V129.417ZM75.8807 126.065L73.5744 143.303H77.4526L77.6618 140.163H79.812L80.1257 143.303H83.9501L81.4885 126.065H75.8807ZM78.6576 129.782L79.549 136.861H77.9756L78.6576 129.782ZM51.4094 140.107L51.3587 143.358H55.1838V140.107H51.4094ZM68.6511 140.057L68.7018 143.303H72.4762V140.057H68.6511ZM103.971 126.114L102.608 134.396L101.19 126.17H96.6875L96.6383 143.359H100.15V132.402L101.823 143.359H103.34L105.019 132.402V143.359H108.587L108.481 126.115L103.971 126.114ZM59.7949 126.114L57.4617 128.449V133.819L59.938 136.297H62.8334V140.001H61.2607V137.802H57.3832V140.893L59.8472 143.358H64.143L66.6593 140.837V135.548L64.0915 132.984H61.3168V129.366H62.7295L62.7818 131.615H66.5032V128.524L63.8823 126.115L59.7949 126.114ZM109.867 126.09L113.033 136.019L113.113 143.327H116.991V136.019L120.217 126.09H116.445L115.052 132.116L113.689 126.09H109.867ZM45.2764 126.065V140.057H43.7584V126.115L39.8263 126.072V140.943L42.3426 143.359H46.7952L49.2069 140.838V126.066L45.2764 126.065ZM80.398 36.8838L75.6354 54.5022L58.3976 54.3753L72.0348 64.1443L66.7608 80.9914L80.1388 70.7034L95.0549 81.3821L88.8796 64.7895L103.033 54.5022H85.2775L80.398 36.8838Z" fill="#F5F6F9"/>
</svg>
