<svg width="161" height="160" viewBox="0 0 161 160" fill="none" xmlns="http://www.w3.org/2000/svg">
<path fill-rule="evenodd" clip-rule="evenodd" d="M81 135C111.1 135 135.5 110.6 135.5 80.5C135.5 50.4005 111.1 26 81 26C50.9005 26 26.5 50.4005 26.5 80.5C26.5 110.6 50.9005 135 81 135ZM151.5 80.5C151.5 119.436 119.936 151 81 151C42.0639 151 10.5 119.436 10.5 80.5C10.5 41.5639 42.0639 10 81 10C119.936 10 151.5 41.5639 151.5 80.5Z" fill="#999EAD"/>
<path d="M51.2963 130.741L52.1234 131.223L50.8139 138.666C50.745 139.011 50.745 139.287 50.8139 139.494C50.8828 139.631 51.0207 139.769 51.1585 139.907L51.2963 139.976L51.0207 140.389L48.4018 138.873L48.6775 138.46C48.7464 138.529 48.8842 138.529 48.9531 138.598C49.091 138.666 49.2288 138.735 49.2977 138.735C49.4356 138.735 49.5045 138.666 49.5734 138.598C49.6423 138.529 49.6423 138.322 49.7112 137.977L50.0558 136.254L47.437 134.738L45.9208 135.979C45.7829 136.117 45.6451 136.185 45.6451 136.254C45.5762 136.323 45.5762 136.392 45.5762 136.461C45.5762 136.53 45.5762 136.599 45.6451 136.668C45.714 136.737 45.7829 136.806 45.9208 136.875C45.9897 136.944 46.0586 136.944 46.1275 137.012L45.8518 137.426L43.6465 136.185L43.9222 135.772C44.1289 135.91 44.2667 135.979 44.4046 135.979C44.5424 135.979 44.6113 135.979 44.7492 135.91C44.887 135.841 45.0938 135.703 45.3694 135.496L51.2963 130.741ZM47.9883 134.256L50.2626 135.565L50.9518 131.775L47.9883 134.256Z" fill="#F5F6F9"/>
<path d="M55.8443 133.153L58.8078 134.463L58.601 134.945L58.3943 134.876C58.1875 134.807 57.9808 134.738 57.9119 134.738C57.774 134.738 57.7051 134.807 57.5673 134.876C57.4294 134.945 57.3605 135.152 57.2227 135.496L55.0173 140.527C54.8795 140.803 54.8795 140.941 54.8795 141.079C54.8795 141.216 54.9484 141.285 54.9484 141.423C55.0173 141.492 55.1551 141.63 55.3619 141.699L55.5686 141.768L55.3619 142.25L52.3984 140.941L52.6052 140.458L52.8809 140.596C53.0876 140.665 53.2944 140.734 53.3633 140.734C53.5011 140.734 53.57 140.665 53.639 140.596C53.7079 140.527 53.8457 140.321 53.9146 140.045L56.1889 134.945C56.3267 134.669 56.3957 134.463 56.3957 134.325C56.3957 134.187 56.3957 134.118 56.3267 134.049C56.2578 133.98 56.12 133.842 55.9132 133.773L55.6376 133.635L55.8443 133.153Z" fill="#F5F6F9"/>
<path d="M59.7037 134.945L63.8388 136.254C64.5968 136.53 65.2171 136.806 65.5617 137.081C65.9063 137.357 66.182 137.702 66.2509 138.115C66.3887 138.46 66.3887 138.873 66.2509 139.287C66.113 139.7 65.9063 140.045 65.5617 140.32C65.2171 140.596 64.8725 140.734 64.3901 140.803C63.9077 140.872 63.3563 140.803 62.7361 140.596L64.0455 143.904C64.1833 144.18 64.2523 144.318 64.2523 144.387C64.3212 144.524 64.459 144.662 64.5968 144.8C64.7347 144.938 64.8725 145.007 65.0793 145.076L65.2171 145.145L65.0793 145.627L63.2185 145.076L61.4956 140.251L60.4618 139.907L59.7037 142.388C59.6348 142.664 59.5659 142.87 59.5659 142.939C59.5659 143.077 59.6348 143.215 59.7037 143.284C59.7726 143.353 59.9794 143.422 60.255 143.56L60.4618 143.628L60.324 144.111L57.2227 143.146L57.3605 142.664L57.6362 142.733C57.8429 142.801 57.9808 142.801 58.0497 142.801C58.1186 142.801 58.1875 142.801 58.2564 142.733C58.3253 142.664 58.3943 142.595 58.4632 142.526C58.4632 142.457 58.5321 142.319 58.6699 141.974L60.324 136.668C60.3929 136.461 60.4618 136.254 60.3929 136.116C60.3929 135.979 60.324 135.91 60.255 135.841C60.1861 135.772 60.0483 135.703 59.8415 135.634L59.4969 135.496L59.7037 134.945ZM61.5645 136.254L60.5996 139.287L62.2536 139.838C62.805 140.045 63.2185 140.114 63.4942 140.114C63.8388 140.114 64.1833 140.045 64.3901 139.838C64.6658 139.631 64.8725 139.356 64.9414 139.011C65.0104 138.666 65.0793 138.391 65.0104 138.115C64.9414 137.839 64.8036 137.633 64.5968 137.426C64.3901 137.219 64.0455 137.081 63.632 136.943L61.5645 136.254Z" fill="#F5F6F9"/>
<path d="M72.0409 138.184L78.5191 138.735L79.0705 141.01L78.5191 141.148C78.3124 140.596 78.1745 140.183 77.9678 139.976C77.761 139.7 77.5543 139.562 77.2786 139.425C77.0029 139.287 76.5894 139.218 75.9692 139.149L74.1084 139.011L73.8327 142.25L74.6598 142.319C75.0733 142.388 75.4178 142.319 75.6246 142.25C75.8314 142.181 75.9692 142.043 76.107 141.906C76.2449 141.699 76.3138 141.492 76.3138 141.148V140.941L76.934 141.01L76.5894 144.731L75.9692 144.662V144.318C75.9692 143.973 75.9692 143.766 75.9003 143.56C75.8313 143.353 75.6935 143.215 75.5557 143.146C75.4178 143.077 75.0733 143.008 74.6598 142.939L73.7638 142.87L73.5571 145.489C73.5571 145.765 73.5571 145.903 73.5571 145.972C73.626 146.041 73.6949 146.179 73.7638 146.179C73.8327 146.247 74.0395 146.247 74.3152 146.316H74.5219L74.453 146.799L71.2139 146.523L71.2828 146.041H71.4895C71.7652 146.041 71.903 146.041 72.0409 146.041C72.1098 145.972 72.2476 145.903 72.2476 145.834C72.3166 145.765 72.3165 145.558 72.3855 145.283L72.9368 139.494C72.9368 139.218 72.9368 139.08 72.9368 138.942C72.8679 138.804 72.8679 138.735 72.7301 138.667C72.6611 138.598 72.4544 138.598 72.2476 138.529H71.972L72.0409 138.184Z" fill="#F5F6F9"/>
<path d="M84.3764 138.598C85.1345 138.529 85.8925 138.736 86.5128 139.08C87.202 139.425 87.7533 139.976 88.1668 140.596C88.5803 141.217 88.7871 141.975 88.856 142.802C88.9249 144.111 88.5803 145.214 87.8222 146.041C87.0642 146.937 86.0304 147.35 84.7899 147.419C83.4115 147.488 82.2399 147.075 81.344 146.11C80.6548 145.352 80.2413 144.387 80.1724 143.284C80.1035 142.457 80.3102 141.699 80.6548 141.01C80.9994 140.321 81.4818 139.769 82.171 139.356C82.7913 138.873 83.5493 138.598 84.3764 138.598ZM84.4453 139.218C83.825 139.218 83.2737 139.425 82.8602 139.769C82.4467 140.114 82.1021 140.527 81.8264 141.079C81.5507 141.63 81.4818 142.388 81.5507 143.215C81.6197 143.973 81.7575 144.662 82.0332 145.214C82.3088 145.765 82.7223 146.179 83.2048 146.454C83.6872 146.73 84.1696 146.868 84.7899 146.799C85.3412 146.799 85.8236 146.592 86.2371 146.316C86.6506 146.041 86.9952 145.558 87.2709 144.938C87.5466 144.318 87.6155 143.629 87.6155 142.871C87.5466 142.112 87.4087 141.423 87.0642 140.803C86.7885 140.252 86.4439 139.907 86.0304 139.631C85.548 139.287 84.9966 139.218 84.4453 139.218Z" fill="#F5F6F9"/>
<path d="M89.6836 138.322L93.9565 137.357C94.7835 137.15 95.4038 137.15 95.8862 137.219C96.3686 137.288 96.7132 137.495 96.9889 137.771C97.2645 138.046 97.4713 138.391 97.5402 138.804C97.6091 139.218 97.6091 139.631 97.4713 140.045C97.3335 140.458 97.0578 140.734 96.7132 141.01C96.3686 141.285 95.8173 141.492 95.1281 141.699L97.8848 143.904C98.0916 144.111 98.2294 144.18 98.2983 144.249C98.4361 144.318 98.6429 144.387 98.7807 144.456C98.9186 144.456 99.1253 144.456 99.3321 144.456H99.4699L99.6077 144.938L97.747 145.351L93.8187 142.043L92.7849 142.25L93.3362 144.8C93.4051 145.076 93.4741 145.283 93.4741 145.351C93.543 145.489 93.6119 145.558 93.7497 145.558C93.8876 145.558 94.0254 145.558 94.37 145.489L94.5768 145.42L94.7146 145.903L91.5444 146.592L91.4065 146.11L91.6822 146.041C91.889 145.972 92.0268 145.972 92.0957 145.903C92.1646 145.834 92.2336 145.765 92.2336 145.696C92.3025 145.627 92.3025 145.489 92.3025 145.42C92.3025 145.351 92.2336 145.145 92.1646 144.8L90.993 139.356C90.9241 139.149 90.8552 138.942 90.7863 138.873C90.7174 138.804 90.6484 138.735 90.5106 138.666C90.4417 138.666 90.2349 138.666 90.0282 138.666L89.6836 138.735V138.322ZM91.9579 138.46L92.6471 141.561L94.37 141.216C94.9213 141.079 95.3348 140.941 95.5416 140.872C95.8862 140.734 96.0929 140.458 96.2308 140.183C96.3686 139.907 96.3686 139.562 96.2997 139.149C96.2308 138.804 96.0929 138.529 95.8862 138.322C95.6794 138.115 95.4727 137.977 95.197 137.908C94.9213 137.839 94.5767 137.839 94.0943 137.977L91.9579 138.46Z" fill="#F5F6F9"/>
<path d="M104.639 133.911L105.052 133.773L106.775 136.117L106.293 136.461C105.741 135.979 105.397 135.634 105.19 135.496C104.846 135.221 104.432 135.083 103.95 135.014C103.536 134.945 103.054 135.014 102.64 135.152C102.158 135.359 101.744 135.703 101.4 136.117C101.055 136.53 100.917 137.081 100.848 137.702C100.779 138.322 100.917 139.011 101.124 139.631C101.4 140.321 101.744 140.872 102.227 141.285C102.709 141.699 103.26 141.975 103.812 142.112C104.363 142.25 104.914 142.181 105.466 141.975C105.948 141.768 106.431 141.423 106.844 140.941C107.258 140.458 107.533 139.838 107.74 139.218L108.291 139.356C108.222 139.769 108.085 140.183 107.878 140.527C107.602 141.079 107.258 141.561 106.844 141.906C106.431 142.25 105.948 142.595 105.397 142.802C104.156 143.284 102.985 143.215 101.882 142.595C100.986 142.112 100.297 141.285 99.8835 140.252C99.6078 139.494 99.4699 138.736 99.6078 137.977C99.7456 137.219 100.021 136.53 100.504 135.91C100.986 135.29 101.606 134.876 102.296 134.6C102.709 134.463 103.054 134.394 103.398 134.325C103.743 134.256 104.156 134.325 104.57 134.463L104.639 133.911Z" fill="#F5F6F9"/>
<path d="M106.775 132.946L112.771 129.5L114.563 131.017L114.219 131.43C113.943 131.155 113.667 131.017 113.391 130.879C113.116 130.81 112.909 130.741 112.633 130.672C112.358 130.672 112.151 130.672 111.875 130.741C111.669 130.81 111.255 131.017 110.773 131.292L108.981 132.326L110.566 135.014L111.462 134.531C111.806 134.325 112.013 134.118 112.082 133.911C112.22 133.704 112.22 133.498 112.22 133.291C112.22 133.153 112.082 132.877 111.944 132.602L111.875 132.464L112.427 132.188L114.287 135.427L113.736 135.703L113.598 135.427C113.46 135.152 113.323 135.014 113.254 134.945C113.185 134.876 113.047 134.807 112.84 134.738C112.702 134.669 112.564 134.669 112.427 134.738C112.289 134.738 112.082 134.876 111.806 135.014L110.91 135.496L112.289 137.908C112.427 138.184 112.564 138.322 112.564 138.322C112.633 138.391 112.702 138.391 112.771 138.391C112.84 138.391 112.978 138.322 113.254 138.184L114.356 137.564C114.977 137.219 115.39 136.875 115.666 136.53C115.941 136.186 116.079 135.772 116.217 135.29C116.286 134.945 116.286 134.463 116.217 133.911L116.768 133.773L117.251 136.53L111.048 140.114L110.773 139.7L110.979 139.562C111.255 139.425 111.393 139.287 111.393 139.218C111.462 139.149 111.462 139.011 111.462 138.873C111.462 138.804 111.393 138.598 111.255 138.391L108.36 133.291C108.223 133.084 108.085 132.946 108.016 132.877C107.947 132.809 107.809 132.809 107.671 132.809C107.602 132.809 107.396 132.946 107.051 133.153L106.775 132.946Z" fill="#F5F6F9"/>
<path d="M29.8633 36.8751L32.2065 34.4629L32.5511 34.8075L32.4822 34.9454C32.2754 35.1521 32.1376 35.29 32.1376 35.4278C32.1376 35.4967 32.1376 35.6345 32.1376 35.7035C32.2065 35.8413 32.2754 35.9791 32.5511 36.1859L35.3767 38.9426C35.8591 39.425 36.3415 39.7696 36.6861 39.8385C37.0307 39.9764 37.4442 39.9764 37.9266 39.8385C38.3402 39.7007 38.7537 39.4939 39.0982 39.1493C39.4428 38.8048 39.6496 38.3912 39.7874 37.9088C39.9253 37.4264 39.9253 37.0129 39.7874 36.6683C39.6496 36.3237 39.3739 35.8413 38.8226 35.3589L36.0659 32.6711C35.8591 32.4643 35.7213 32.3265 35.5834 32.3265C35.4456 32.2576 35.3078 32.2576 35.2389 32.3265C35.101 32.3954 34.9632 32.4643 34.8254 32.6022L34.6875 32.8089L34.3429 32.4643L36.4105 30.3279L36.755 30.6725L36.6172 30.8103C36.2037 31.086 36.1348 31.2927 36.1348 31.4995C36.1348 31.7062 36.2726 31.913 36.5483 32.1197L39.4428 34.9454C39.9942 35.4967 40.3388 35.9791 40.4766 36.5305C40.6144 37.0818 40.6144 37.6332 40.4766 38.1845C40.3388 38.7358 39.9942 39.2872 39.5118 39.8385C39.0293 40.3209 38.5469 40.6655 37.9266 40.8034C37.3064 41.0101 36.755 41.0101 36.2726 40.8723C35.7902 40.7344 35.3078 40.4588 34.8254 39.9764L31.7241 36.944C31.5173 36.7372 31.3795 36.5994 31.2416 36.5994C31.1038 36.5305 31.0349 36.5305 30.897 36.5994C30.7592 36.5994 30.6903 36.7372 30.4835 36.8751L30.2768 37.0818L29.8633 36.8751Z" fill="#F5F6F9"/>
<path d="M37.8574 28.9494L39.9939 27.3643L47.1613 30.3278L44.1978 26.2617C43.9911 25.986 43.8533 25.8482 43.7154 25.7792C43.5776 25.7103 43.4398 25.7103 43.3019 25.7103C43.1641 25.7103 43.0262 25.7792 42.8195 25.9171L42.6127 26.0549L42.3371 25.6414L44.6803 23.9185L45.0249 24.332L44.887 24.4009C44.6803 24.5387 44.5424 24.6766 44.4735 24.7455C44.4046 24.8833 44.4046 25.0211 44.4046 25.159C44.4735 25.2968 44.5424 25.5036 44.7492 25.7792L49.0221 31.5683L48.4018 32.0507L39.7871 28.5359L43.5087 33.5669C43.7154 33.8426 43.8533 33.9804 43.9222 34.0494C43.9911 34.1183 44.1289 34.1183 44.1978 34.1872C44.3357 34.1872 44.4046 34.1872 44.5424 34.1872C44.6114 34.1183 44.8181 34.0494 45.0938 33.8426L45.4384 34.2561L43.0262 36.048L42.7506 35.6345L42.8884 35.5655C43.1641 35.3588 43.3019 35.221 43.3019 35.152C43.3708 35.0142 43.3708 34.8764 43.3019 34.7385C43.233 34.6007 43.1641 34.3939 42.9573 34.1183L39.6493 29.6386C39.4425 29.363 39.3047 29.1562 39.2358 29.1562C39.0979 29.0873 39.029 29.0184 38.8912 29.0184C38.7534 29.0184 38.5466 29.1562 38.3398 29.294L38.1331 29.4319L37.8574 28.9494Z" fill="#F5F6F9"/>
<path d="M46.1963 23.0915L49.0908 21.4375L49.3665 21.9199L49.1598 22.0578C48.953 22.1956 48.8152 22.2645 48.7462 22.4023C48.6773 22.5402 48.6773 22.6091 48.6773 22.7469C48.6773 22.8848 48.8152 23.0915 48.953 23.4361L51.7786 28.3982C51.9165 28.6739 52.0543 28.8117 52.1232 28.8806C52.261 28.9495 52.33 29.0184 52.4678 29.0184C52.6056 29.0184 52.7435 28.9495 52.9502 28.8117L53.157 28.6739L53.4326 29.1563L50.607 30.7414L50.3313 30.259L50.607 30.1211C50.8138 29.9833 50.9516 29.9144 51.0205 29.7765C51.0894 29.7076 51.0894 29.5698 51.0894 29.4319C51.0894 29.2941 51.0205 29.1563 50.8138 28.8806L47.9192 23.8496C47.7814 23.5739 47.6436 23.3672 47.5057 23.2983C47.3679 23.2294 47.299 23.1604 47.1611 23.2294C47.0233 23.2294 46.8855 23.2983 46.6787 23.4361L46.472 23.505L46.1963 23.0915Z" fill="#F5F6F9"/>
<path d="M50.7451 20.197L51.1586 19.9902L51.3654 20.2659L56.2585 18.0605L56.1207 17.7849L56.5342 17.5781L58.4639 19.5767L58.0504 19.9902C57.4991 19.5078 57.0166 19.1632 56.6031 19.0943C56.1207 19.0254 55.6383 19.0943 55.1558 19.3011C54.9491 19.37 54.8113 19.4389 54.7423 19.5078C54.7423 19.5767 54.6734 19.5767 54.6734 19.6457C54.6734 19.7146 54.7423 19.8524 54.8113 20.0592L57.2923 25.6415C57.4301 25.9172 57.499 26.055 57.568 26.1239C57.6369 26.1928 57.7058 26.2618 57.7747 26.2618C57.8436 26.2618 57.9126 26.2618 58.0504 26.2618C58.1193 26.2618 58.395 26.1928 58.6706 25.9861L58.8774 26.4685L55.7761 27.8469L55.6383 27.3644C55.9829 27.2266 56.1896 27.0888 56.2585 27.0198C56.3964 26.9509 56.4653 26.8131 56.4653 26.6753C56.4653 26.5374 56.3964 26.3307 56.2585 26.055L53.7086 20.4037C53.6397 20.197 53.5707 20.1281 53.5707 20.1281C53.5707 20.1281 53.5018 20.0592 53.4329 20.0592C53.364 20.0592 53.2951 20.1281 53.1572 20.1281C52.7437 20.3348 52.3991 20.5416 52.2613 20.7483C52.1235 20.9551 51.9167 21.2308 51.7789 21.6443C51.641 21.9889 51.641 22.4024 51.641 22.8848L51.0208 22.9537L50.7451 20.197Z" fill="#F5F6F9"/>
<path d="M58.9463 17.0269L65.8381 15.0972L67.2853 17.0958L66.8029 17.4404C66.5962 17.0958 66.3205 16.889 66.1137 16.6823C65.907 16.5444 65.6313 16.4066 65.4246 16.3377C65.1489 16.2688 64.9421 16.1999 64.6665 16.1999C64.4597 16.1999 64.0462 16.3377 63.4259 16.4755L61.3584 17.0269L62.2543 20.1282L63.2881 19.8525C63.6327 19.7147 63.9084 19.5768 64.1151 19.439C64.2529 19.2322 64.3908 19.0944 64.3908 18.8187C64.3908 18.6809 64.3908 18.4052 64.253 18.0606L64.184 17.9228L64.8043 17.785L65.8381 21.5065L65.2178 21.6443L65.08 21.3687C65.011 21.093 64.9421 20.8863 64.8732 20.7484C64.8043 20.6106 64.6665 20.5417 64.5286 20.4727C64.3908 20.4038 64.2529 20.3349 64.1151 20.3349C63.9773 20.3349 63.7705 20.4038 63.4259 20.4727L62.3922 20.7484L63.1503 23.5051C63.2192 23.7808 63.2881 23.9875 63.357 23.9875C63.4259 24.0565 63.4259 24.0565 63.4949 24.0565C63.5638 24.0565 63.7016 24.0565 63.9773 23.9875L65.2178 23.643C65.907 23.4362 66.4583 23.2295 66.8029 22.9538C67.1475 22.6781 67.4232 22.3335 67.6299 21.8511C67.7677 21.5065 67.9056 21.093 67.9745 20.4727L68.5948 20.5417L68.388 23.4362L61.2206 25.4348L61.0827 24.9524L61.3584 24.8835C61.6341 24.8146 61.8408 24.7456 61.8408 24.6767C61.9098 24.6078 61.9787 24.47 61.9787 24.3321C61.9787 24.2632 61.9787 24.0565 61.9098 23.7808L60.2557 17.9228C60.1868 17.6471 60.1179 17.5093 60.049 17.4404C59.9801 17.3715 59.8422 17.3025 59.7044 17.3025C59.6355 17.3025 59.3598 17.3715 58.9463 17.4404V17.0269Z" fill="#F5F6F9"/>
<path d="M69.0767 14.8903L69.0078 14.339L72.1091 13.9944C73.5564 13.8566 74.5212 13.7876 75.1415 13.9255C75.9685 14.0633 76.7266 14.5457 77.3469 15.166C78.036 15.9241 78.3806 16.7511 78.5185 17.7849C78.5874 18.474 78.5185 19.1632 78.3117 19.7835C78.1049 20.4037 77.7604 20.9551 77.3469 21.3686C77.0023 21.7132 76.5888 21.9888 76.0374 22.1956C75.4861 22.4023 75.0037 22.5402 74.4523 22.5402L69.9727 23.0226L69.9037 22.5402L70.2483 22.4713H70.3862C70.524 22.4713 70.6618 22.4023 70.7308 22.3334C70.7997 22.2645 70.8686 22.1956 70.9375 22.0578C70.9375 21.9888 70.9375 21.7821 70.9375 21.5064L70.3172 15.6484C70.2483 15.3038 70.2483 15.0971 70.1794 15.0282C70.1105 14.8903 69.9727 14.8214 69.8348 14.8214C69.7659 14.8214 69.4902 14.8214 69.0767 14.8903ZM72.178 22.1267L74.0388 21.9199C74.2456 21.9199 74.5212 21.851 74.9347 21.7132C75.3482 21.5753 75.6928 21.5064 75.8307 21.3686C76.1063 21.1618 76.3131 20.9551 76.5888 20.6105C76.8644 20.2659 77.0023 19.8524 77.0712 19.4389C77.1401 18.9565 77.209 18.474 77.1401 17.9227C77.0712 17.3714 76.9333 16.8889 76.7955 16.4754C76.5888 16.0619 76.382 15.7173 76.0374 15.4417C75.6928 15.166 75.3482 14.9592 75.0037 14.8214C74.6591 14.6836 74.2456 14.6147 73.832 14.6147C73.6253 14.6147 73.2118 14.6836 72.6605 14.6836L71.351 14.8214L72.178 22.1267Z" fill="#F5F6F9"/>
<path d="M90.7172 14.0632L91.1997 14.1321L91.5443 16.8889L90.924 17.0267C90.6483 16.1997 90.2348 15.5794 89.6835 15.097C89.2011 14.6835 88.7186 14.4078 88.0984 14.3389C87.7538 14.27 87.4092 14.3389 87.0646 14.4078C86.7889 14.4767 86.5133 14.6835 86.3754 14.8213C86.2376 15.0281 86.0998 15.2348 86.0998 15.4416C86.0998 15.6483 86.0998 15.8551 86.2376 16.0618C86.3065 16.2686 86.5133 16.4064 86.72 16.6132C86.9268 16.8199 87.2714 16.9578 87.8227 17.1645L89.4078 17.8537C89.6146 17.9226 89.8902 18.0605 90.2348 18.2672C90.5794 18.474 90.8551 18.6807 91.0618 18.8875C91.2686 19.0942 91.4064 19.3699 91.4753 19.6456C91.5443 19.9212 91.6132 20.1969 91.5443 20.5415C91.4753 21.2307 91.0618 21.782 90.4416 22.2644C89.7524 22.7469 88.9943 22.8847 88.0295 22.8158C87.547 22.7469 87.0646 22.609 86.72 22.4712C86.3754 22.2644 85.9619 21.9888 85.5484 21.5753L85.1349 22.4023L84.7214 22.3333L84.5146 19.1631L85.1349 19.0942C85.2727 19.7145 85.4795 20.1969 85.8241 20.6793C86.0998 21.0928 86.5133 21.5063 86.9268 21.7131C87.3403 21.9888 87.7538 22.1266 88.1673 22.1955C88.7875 22.2644 89.3389 22.1266 89.8213 21.8509C90.2348 21.5753 90.4416 21.2307 90.5105 20.8172C90.5794 20.4037 90.4416 20.128 90.2348 19.8523C89.9591 19.5766 89.5456 19.301 88.8565 19.0253L87.3403 18.405C86.5133 18.0605 85.893 17.6469 85.6173 17.2334C85.3417 16.8199 85.2038 16.3375 85.2038 15.7862C85.2727 15.3727 85.4106 15.0281 85.6863 14.6835C85.9619 14.3389 86.3754 14.1321 86.8579 13.9254C87.3403 13.7186 87.8916 13.7186 88.5119 13.7876C88.9943 13.8565 89.4767 13.9943 89.8902 14.2011C90.1659 14.3389 90.4416 14.5457 90.7172 14.8213V14.0632Z" fill="#F5F6F9"/>
<path d="M94.5078 14.408L94.9213 14.5458V14.8215L100.159 16.1309L100.297 15.8552L100.71 15.9931L100.986 18.7498L100.366 18.8187C100.297 18.0606 100.09 17.5093 99.8145 17.1647C99.5388 16.8201 99.1253 16.5444 98.505 16.4066C98.2983 16.3377 98.0915 16.3377 98.0915 16.3377C98.0226 16.3377 98.0226 16.3377 97.9537 16.4066C97.9537 16.4755 97.8848 16.6133 97.8159 16.8201L96.2997 22.747C96.2308 23.0227 96.1618 23.2294 96.2308 23.2983C96.2308 23.4362 96.2308 23.5051 96.2997 23.574C96.3686 23.6429 96.4375 23.7118 96.5064 23.7808C96.5754 23.8497 96.851 23.9186 97.1956 23.9875L97.0578 24.4699L93.7497 23.6429L93.8876 23.1605C94.2322 23.2294 94.5078 23.2983 94.5767 23.2983C94.7146 23.2983 94.8524 23.2294 94.9213 23.1605C94.9902 23.0916 95.1281 22.8848 95.197 22.5402L96.7132 16.4755C96.7821 16.2687 96.7821 16.1998 96.7821 16.1309C96.7821 16.062 96.7132 16.062 96.7132 15.9931C96.6443 15.9241 96.5753 15.9241 96.4375 15.8552C96.024 15.7174 95.6105 15.7174 95.3348 15.7863C95.0592 15.8552 94.7146 15.9931 94.4389 16.1998C94.1632 16.4066 93.8186 16.6822 93.543 17.0957L93.0605 16.7512L94.5078 14.408Z" fill="#F5F6F9"/>
<path d="M105.879 18.1985L106.844 18.612L106.568 26.4686C106.568 26.8821 106.568 27.1578 106.637 27.2956C106.706 27.4335 106.844 27.5713 107.051 27.6402L107.189 27.7091L106.982 28.1915L104.087 27.0199L104.294 26.5375C104.363 26.5375 104.501 26.6064 104.57 26.6064C104.776 26.6754 104.914 26.7443 104.983 26.6754C105.121 26.6754 105.19 26.6064 105.259 26.4686C105.259 26.3997 105.328 26.1929 105.328 25.7794L105.466 23.9876L102.502 22.816L101.124 24.3322C100.986 24.47 100.917 24.6078 100.848 24.6767C100.848 24.7457 100.779 24.8146 100.848 24.8835C100.917 24.9524 100.917 25.0213 100.986 25.0903C101.055 25.1592 101.124 25.2281 101.331 25.297C101.468 25.3659 101.537 25.3659 101.606 25.4348L101.399 25.9173L98.9873 24.9524L99.1941 24.47C99.4008 24.5389 99.6076 24.6078 99.6765 24.6078C99.8143 24.6078 99.8832 24.5389 100.021 24.47C100.159 24.4011 100.297 24.2632 100.572 23.9876L105.879 18.1985ZM102.985 22.3335L105.466 23.3673L105.672 19.3701L102.985 22.3335Z" fill="#F5F6F9"/>
<path d="M112.013 20.6106L112.357 20.8173L112.288 21.093L116.906 23.7808L117.113 23.5741L117.526 23.7808L117.044 26.4686L116.423 26.3308C116.561 25.5727 116.492 25.0213 116.286 24.6078C116.079 24.1943 115.734 23.8497 115.252 23.5051C115.045 23.3673 114.907 23.2984 114.838 23.2984C114.769 23.2984 114.769 23.2984 114.7 23.3673C114.632 23.3673 114.563 23.5051 114.425 23.7119L111.392 28.9496C111.255 29.2253 111.186 29.3631 111.117 29.501C111.117 29.5699 111.117 29.7077 111.117 29.7766C111.117 29.8456 111.186 29.9145 111.255 29.9834C111.324 30.0523 111.53 30.1902 111.806 30.3969L111.53 30.8793L108.636 29.1564L108.911 28.674C109.256 28.8807 109.463 28.9496 109.532 29.0186C109.67 29.0875 109.807 29.0185 109.945 28.9496C110.083 28.8807 110.221 28.674 110.359 28.4672L113.46 23.0916C113.529 22.9538 113.598 22.816 113.598 22.747C113.598 22.6781 113.598 22.6781 113.529 22.6092C113.529 22.5403 113.391 22.4714 113.253 22.4025C112.84 22.1957 112.495 22.0579 112.219 21.9889C111.944 21.92 111.599 21.9889 111.255 22.1268C110.91 22.2646 110.565 22.4714 110.152 22.747L109.738 22.2646L112.013 20.6106Z" fill="#F5F6F9"/>
<path d="M119.456 25.4348L125.038 29.8455L124.28 32.1887L123.729 31.982C123.866 31.5685 123.935 31.2928 123.935 31.0171C123.935 30.7415 123.935 30.4658 123.797 30.1901C123.66 29.9145 123.591 29.7077 123.453 29.501C123.315 29.2942 122.97 29.0185 122.488 28.6739L120.834 27.3645L118.835 29.8455L119.662 30.5347C119.938 30.8104 120.214 30.8793 120.489 30.9482C120.696 30.9482 120.972 30.9482 121.11 30.8104C121.248 30.7415 121.454 30.5347 121.661 30.2591L121.73 30.1212L122.212 30.5347L119.8 33.5671L119.318 33.1536L119.525 32.8779C119.731 32.6712 119.8 32.4644 119.869 32.3266C119.938 32.1887 119.938 32.0509 119.938 31.9131C119.938 31.7752 119.869 31.6374 119.8 31.4996C119.731 31.3617 119.525 31.2239 119.318 31.0171L118.491 30.328L116.699 32.5333C116.492 32.7401 116.423 32.9468 116.423 33.0158C116.423 33.0847 116.423 33.1536 116.423 33.2225C116.423 33.2914 116.561 33.4293 116.768 33.5671L117.802 34.3941C118.353 34.8765 118.904 35.1522 119.318 35.29C119.731 35.4279 120.214 35.4279 120.696 35.359C121.041 35.29 121.523 35.1522 122.006 34.8765L122.35 35.359L119.869 36.8751L114.08 32.2577L114.425 31.8442L114.631 31.982C114.838 32.1887 115.045 32.2577 115.114 32.2577C115.252 32.2577 115.321 32.2577 115.458 32.1887C115.527 32.1198 115.665 32.0509 115.872 31.7752L119.593 27.0199C119.731 26.8132 119.869 26.6753 119.869 26.5375C119.869 26.3997 119.869 26.3307 119.8 26.1929C119.731 26.124 119.593 25.9862 119.249 25.7105L119.456 25.4348Z" fill="#F5F6F9"/>
<path d="M131.448 36.186L131.792 36.5306L130.276 38.8738L129.725 38.5981C130 37.84 130.138 37.013 130 36.3238C129.931 35.7036 129.656 35.1522 129.242 34.7387C128.967 34.4631 128.691 34.2563 128.415 34.1185C128.14 33.9806 127.864 33.9806 127.588 33.9806C127.313 34.0496 127.106 34.1185 126.968 34.2563C126.83 34.3942 126.692 34.532 126.692 34.8077C126.623 35.0144 126.623 35.2212 126.692 35.4968C126.761 35.7725 126.899 36.1171 127.175 36.5995L127.933 38.1157C128.002 38.3225 128.14 38.5981 128.277 39.0116C128.415 39.4251 128.484 39.7697 128.484 40.0454C128.484 40.3211 128.415 40.5967 128.346 40.8724C128.208 41.1481 128.071 41.4238 127.864 41.6305C127.381 42.1129 126.692 42.3197 125.934 42.2508C125.107 42.1818 124.418 41.7683 123.729 41.0792C123.384 40.7346 123.109 40.3211 122.971 39.9765C122.833 39.563 122.695 39.0806 122.626 38.5292L121.799 38.8738L121.523 38.5292L123.453 35.9103L123.936 36.2549C123.66 36.8063 123.522 37.3576 123.453 37.909C123.384 38.4603 123.453 38.9427 123.591 39.4251C123.729 39.9076 123.936 40.2522 124.28 40.5967C124.694 41.0102 125.176 41.2859 125.796 41.3548C126.279 41.4238 126.692 41.2859 126.968 41.0102C127.244 40.7346 127.381 40.4589 127.381 40.0454C127.381 39.7008 127.175 39.1495 126.83 38.5292L126.072 37.0819C125.659 36.2549 125.452 35.5658 125.521 35.0833C125.59 34.532 125.796 34.1185 126.141 33.7739C126.417 33.4982 126.761 33.3604 127.175 33.2915C127.588 33.2226 128.071 33.2915 128.553 33.4982C129.035 33.705 129.518 33.9806 129.931 34.3942C130.276 34.7387 130.552 35.1522 130.689 35.5658C130.827 35.9103 130.896 36.186 130.896 36.5306L131.448 36.186Z" fill="#F5F6F9"/>
<path d="M76.2327 104.822C76.2322 105.756 76.5083 106.67 77.026 107.447C77.5437 108.225 78.2797 108.831 79.1411 109.189C80.0024 109.547 80.9503 109.641 81.8649 109.459C82.7795 109.277 83.6197 108.827 84.2792 108.166C84.9387 107.505 85.388 106.663 85.57 105.747C85.7521 104.83 85.6589 103.88 85.3022 103.016C84.9455 102.153 84.3412 101.415 83.566 100.896C82.7907 100.376 81.8792 100.099 80.9467 100.099C79.6969 100.099 78.4982 100.597 77.6142 101.482C76.7302 102.368 76.2333 103.569 76.2327 104.822Z" fill="#999EAD"/>
<path d="M80.0457 90.1312L39.5 60.6096L46.2568 74.7321L77.6292 97.5695L80.0457 90.1312Z" fill="#999EAD"/>
<path d="M77.0015 99.443L47.9862 78.3118L54.7645 92.4462L64.3831 99.4501L77.0015 99.443Z" fill="#999EAD"/>
<path d="M69.8618 103.442L61.9408 109.198L71.5832 116.228L74.5973 106.912L69.8618 103.442Z" fill="#999EAD"/>
<path d="M88.8405 117.262L80.9265 123.027L73.015 117.257L80.9361 111.499L88.8262 117.262H88.8405Z" fill="#999EAD"/>
<path d="M81.8063 90.1217L84.2157 97.5719L115.581 74.7464L122.352 60.6096L81.8063 90.1217Z" fill="#999EAD"/>
<path d="M97.4672 99.4477L107.093 92.4581L113.874 78.3118L84.844 99.4501L97.4672 99.4477Z" fill="#999EAD"/>
<path d="M87.2153 106.934L90.2819 116.224L99.9076 109.201L92.0175 103.449L87.2153 106.934Z" fill="#999EAD"/>
<path d="M116.612 49.0051L106.698 69.671L121.392 58.9729L116.612 49.0051Z" fill="#999EAD"/>
<path d="M40.4692 58.975L55.1543 69.673L45.2452 49L40.4692 58.975Z" fill="#999EAD"/>
</svg>
