<svg width="64" height="64" viewBox="0 0 64 64" fill="none" xmlns="http://www.w3.org/2000/svg">
<path d="M41.4898 24.5873C40.9856 24.9879 40.7207 25.5804 40.7207 26.1794C40.7207 26.6222 40.8653 27.0663 41.1622 27.4412C42.1259 28.6557 42.6365 30.1172 42.6365 31.6747C42.6365 33.2322 42.1272 34.6937 41.1622 35.9082C40.4635 36.7861 40.6106 38.0634 41.4898 38.7583C42.3678 39.457 43.645 39.3099 44.3399 38.4306C45.8577 36.5174 46.6947 34.1178 46.6947 31.6747C46.6947 29.2316 45.8577 26.8282 44.3399 24.9188C43.6437 24.0396 42.3678 23.8924 41.4898 24.5886V24.5873Z" fill="white"/>
<path d="M51.8794 42.6167C54.0844 39.3865 55.2516 35.601 55.2516 31.6746C55.2516 27.7483 54.0844 23.9627 51.8794 20.7325C51.2485 19.8034 49.984 19.5679 49.0588 20.1989C48.1335 20.8298 47.8942 22.0942 48.5251 23.0195C50.2707 25.5752 51.1921 28.5673 51.1921 31.6746C51.1921 34.7819 50.2694 37.7727 48.5251 40.3297C48.2858 40.6778 48.1719 41.0758 48.1719 41.47C48.1719 42.1188 48.4841 42.7549 49.0588 43.1503C49.984 43.7813 51.2485 43.542 51.8794 42.6167Z" fill="white"/>
<path d="M56.6929 15.789C55.7497 16.3956 55.4809 17.6549 56.0888 18.5955C58.6087 22.4924 59.9384 27.0139 59.9384 31.6748C59.9384 36.3357 58.6087 40.8572 56.0888 44.7541C55.8674 45.0932 55.765 45.4759 55.765 45.8534C55.765 46.5202 56.0926 47.1716 56.6941 47.5606C57.6348 48.1685 58.8902 47.8998 59.5007 46.9566C62.4454 42.4057 63.9991 37.1202 63.9991 31.6761C63.9991 26.2319 62.4454 20.9465 59.5007 16.3917C58.8902 15.4511 57.6348 15.1798 56.6941 15.7902L56.6929 15.789Z" fill="white"/>
<path d="M23.2884 26.1794C23.2884 25.5805 23.0235 24.988 22.5193 24.5874C21.6414 23.8912 20.3642 24.0384 19.6692 24.9176C18.1514 26.827 17.3145 29.2266 17.3145 31.6735C17.3145 34.1204 18.1514 36.5162 19.6692 38.4294C20.3654 39.3086 21.6414 39.4558 22.5193 38.757C23.3972 38.0609 23.5457 36.7849 22.8469 35.907C21.8832 34.6925 21.3726 33.2271 21.3726 31.6735C21.3726 30.1199 21.882 28.6545 22.8469 27.44C23.1451 27.0663 23.2884 26.621 23.2884 26.1781V26.1794Z" fill="white"/>
<path d="M14.9487 43.1491C15.5233 42.7537 15.8356 42.1176 15.8356 41.4688C15.8356 41.0733 15.7204 40.6766 15.4824 40.3285C13.7367 37.7728 12.8153 34.7807 12.8153 31.6734C12.8153 28.5661 13.738 25.574 15.4824 23.0183C16.1133 22.093 15.874 20.8286 14.9487 20.1977C14.0234 19.5667 12.759 19.8022 12.1281 20.7313C9.92301 23.9615 8.75586 27.747 8.75586 31.6734C8.75586 35.5997 9.92301 39.3853 12.1281 42.6155C12.759 43.5407 14.0234 43.7801 14.9487 43.1491Z" fill="white"/>
<path d="M7.31472 47.5593C7.91621 47.1702 8.24383 46.5188 8.24383 45.852C8.24383 45.4745 8.14017 45.0919 7.92005 44.7527C5.40018 40.8558 4.07049 36.3344 4.07049 31.6734C4.07049 27.0125 5.40018 22.491 7.92005 18.5941C8.52666 17.6535 8.25919 16.3955 7.316 15.7876C6.37408 15.1784 5.11862 15.4497 4.50817 16.3904C1.56341 20.9438 0.00976562 26.2293 0.00976562 31.6747C0.00976562 37.1201 1.56341 42.4043 4.50817 46.9552C5.11862 47.8984 6.37408 48.1672 7.31472 47.5593Z" fill="white"/>
<path d="M37.7025 31.6926C37.7025 28.5264 35.1365 25.9604 31.9704 25.9604C28.8042 25.9604 26.2383 28.5264 26.2383 31.6926C26.2383 34.8587 28.8042 37.4247 31.9704 37.4247C35.1365 37.4247 37.7025 34.8574 37.7025 31.6926Z" fill="white"/>
</svg>
