<svg width="64" height="64" viewBox="0 0 64 64" fill="none" xmlns="http://www.w3.org/2000/svg">
<path d="M26.7176 12.8604C26.7205 12.8604 26.7234 12.8604 26.7262 12.8604L30.8879 12.8287V25.3768C30.8879 25.9878 31.3835 26.4835 31.9946 26.4835C32.6057 26.4835 33.1013 25.9878 33.1013 25.3768V12.8118L37.2799 12.7801C37.6975 12.7767 38.0776 12.539 38.2629 12.1651C38.4482 11.7912 38.4077 11.3447 38.1575 11.0103L32.9108 4.00102C32.702 3.72194 32.3733 3.55737 32.0249 3.55737C31.6761 3.55737 31.3479 3.72194 31.1391 4.00102L25.8322 11.0902C25.5801 11.427 25.5406 11.8774 25.7302 12.2527C25.9188 12.6256 26.3009 12.8604 26.7181 12.8604H26.7176ZM32.0245 6.51131L35.0727 10.5835L32.0004 10.6066C32.0004 10.6066 31.9966 10.6066 31.9941 10.6066C31.9903 10.6066 31.9864 10.6066 31.9826 10.6066L28.9406 10.6297L32.024 6.51083L32.0245 6.51131Z" fill="white"/>
<path d="M37.2632 51.1304L33.1015 51.1621V38.614C33.1015 38.0029 32.6059 37.5073 31.9948 37.5073C31.3837 37.5073 30.8881 38.0029 30.8881 38.614V51.179L26.7095 51.2107C26.2919 51.2141 25.9118 51.4518 25.7265 51.8257C25.5413 52.1995 25.5817 52.6461 25.8319 52.9805L31.0786 59.9893C31.2875 60.2684 31.6161 60.4329 31.9645 60.4329C32.3128 60.4329 32.6415 60.2684 32.8503 59.9893L38.1572 52.9001C38.4093 52.5633 38.4488 52.1129 38.2592 51.7376C38.0696 51.3623 37.6852 51.1284 37.2632 51.1299V51.1304ZM31.9649 57.4795L28.9167 53.4073L31.9895 53.3842C31.9895 53.3842 31.9933 53.3842 31.9953 53.3842C31.9986 53.3842 32.0025 53.3842 32.0058 53.3842L35.0483 53.3611L31.9649 57.4799V57.4795Z" fill="white"/>
<path d="M3.42994 20.4254L10.4387 25.6722C10.6336 25.8185 10.867 25.893 11.1023 25.893C11.2697 25.893 11.4381 25.855 11.5936 25.778C11.9674 25.5928 12.2056 25.2127 12.2085 24.795L12.2398 20.6545C16.3707 20.9485 19.239 22.9786 24.6705 27.4477C25.2089 27.8909 25.7035 28.2975 26.1583 28.6709C26.9763 29.3431 27.6653 29.9075 28.2446 30.3819C28.4501 30.5503 28.6984 30.6321 28.9447 30.6321C29.2652 30.6321 29.5828 30.4936 29.8017 30.2265C30.1891 29.7535 30.1193 29.0563 29.6463 28.6689C29.0674 28.1955 28.3798 27.6315 27.5628 26.9603C27.1086 26.5869 26.6139 26.1808 26.076 25.7381C20.3115 20.9952 17.0655 18.7307 12.2557 18.4367L12.2874 14.2414C12.2908 13.8208 12.055 13.4349 11.6797 13.2453C11.3044 13.0558 10.854 13.0952 10.5172 13.3474L3.42802 18.6542C3.14894 18.8631 2.98438 19.1917 2.98438 19.5401C2.98438 19.8885 3.14894 20.2171 3.42802 20.4259L3.42994 20.4254ZM10.0586 16.4562L10.0119 22.5878L5.93975 19.5396L10.0586 16.4562Z" fill="white"/>
<path d="M60.5563 43.5653L53.5475 38.3186C53.2131 38.0684 52.7665 38.0275 52.3927 38.2132C52.0188 38.3985 51.7806 38.7786 51.7777 39.1962L51.7464 43.3368C47.6156 43.0428 44.7473 41.0127 39.3158 36.5435C37.9425 35.4137 36.74 34.4264 35.7416 33.6093C35.2686 33.222 34.5714 33.2917 34.184 33.7647C33.7967 34.2377 33.8664 34.935 34.3394 35.3223C35.3364 36.1384 36.5379 37.1248 37.9093 38.2531C43.6738 42.9961 46.9198 45.2605 51.7296 45.5545L51.6978 49.7499C51.6945 50.1704 51.9303 50.5563 52.3056 50.7459C52.4634 50.8258 52.6342 50.8647 52.8045 50.8647C53.0394 50.8647 53.2727 50.7902 53.4681 50.6439L60.5572 45.337C60.8363 45.1282 61.0009 44.7995 61.0009 44.4512C61.0009 44.1028 60.8363 43.7741 60.5572 43.5653H60.5563ZM53.9276 47.5345L53.9743 41.4029L58.0465 44.4512L53.9276 47.5345Z" fill="white"/>
<path d="M26.0774 38.253C31.967 33.4071 32.6306 32.9009 32.6561 32.8816L32.6537 32.8835C32.7422 32.8171 33.5044 32.2277 39.3151 27.4472C44.7466 22.9781 47.6149 20.948 51.7457 20.654L51.777 24.7945C51.7804 25.2122 52.0181 25.5923 52.392 25.7775C52.5479 25.8545 52.7158 25.8925 52.8832 25.8925C53.1181 25.8925 53.3514 25.818 53.5468 25.6717L60.5556 20.4249C60.8347 20.2161 60.9992 19.8875 60.9992 19.5391C60.9992 19.1907 60.8347 18.8621 60.5556 18.6533L53.4664 13.3464C53.1296 13.0942 52.6792 13.0548 52.3039 13.2444C51.9286 13.434 51.6933 13.8199 51.6962 14.2404L51.7279 18.4358C46.9181 18.7298 43.6721 20.9947 37.9076 25.7371C32.018 30.583 31.3545 31.0892 31.3295 31.1085L31.3353 31.1042C31.2645 31.1566 30.5654 31.6931 24.6705 36.5429C19.239 41.012 16.3707 43.0421 12.2398 43.3361L12.2085 39.1956C12.2052 38.7779 11.9675 38.3978 11.5936 38.2126C11.2197 38.0273 10.7732 38.0677 10.4388 38.3179L3.42997 43.5647C3.15089 43.7735 2.98633 44.1021 2.98633 44.4505C2.98633 44.7989 3.15089 45.1275 3.42997 45.3364L10.5191 50.6432C10.7145 50.7895 10.9479 50.8641 11.1827 50.8641C11.353 50.8641 11.5238 50.8246 11.6816 50.7453C12.057 50.5557 12.2923 50.1698 12.2894 49.7492L12.2576 45.5539C17.0674 45.2599 20.3135 42.995 26.0779 38.2525L26.0774 38.253ZM58.0458 19.5396L53.9736 22.5878L53.9269 16.4562L58.0458 19.5396ZM31.3391 31.1027C31.3391 31.1027 31.3377 31.1037 31.3372 31.1042L31.3391 31.1027ZM5.93978 44.4515L10.012 41.4032L10.0586 47.5348L5.93978 44.4515Z" fill="white"/>
</svg>
