<svg width="64" height="64" viewBox="0 0 64 64" fill="none" xmlns="http://www.w3.org/2000/svg">
<g clip-path="url(#clip0_14774_3480)">
<path fill-rule="evenodd" clip-rule="evenodd" d="M21.7516 24.4937C22.0753 24.7616 22.551 24.7116 22.8143 24.3822C23.0964 24.0299 23.3988 23.6933 23.7192 23.3749C24.0333 23.0629 24.3725 22.7628 24.7345 22.4767C25.0649 22.2155 25.1244 21.7314 24.8678 21.3952C24.6112 21.0591 24.1354 20.9985 23.805 21.2596C23.4134 21.5691 23.0326 21.9073 22.6652 22.2728C22.3044 22.6314 21.9624 23.0121 21.642 23.4127C21.3787 23.7421 21.4279 24.2262 21.7516 24.4941V24.4937Z" fill="white"/>
<path fill-rule="evenodd" clip-rule="evenodd" d="M38.0675 19.8833C35.8128 18.7145 33.2311 18.1965 30.6065 18.4771C30.1911 18.5204 29.8891 18.8981 29.9316 19.3207C29.9741 19.7434 30.3453 20.0507 30.7606 20.0075C33.0874 19.7586 35.3783 20.219 37.3809 21.2572C39.3827 22.2949 41.0946 23.9101 42.264 25.9711C43.8992 28.8534 44.2312 32.1387 43.4463 35.1201C42.6643 38.0897 40.775 40.7557 37.9638 42.4209C37.9508 42.4276 37.9383 42.4344 37.9254 42.4421C35.0929 44.1059 31.8642 44.4442 28.9342 43.6451C26.0038 42.846 23.3733 40.9113 21.739 38.0303C21.5315 37.6628 21.0699 37.536 20.7087 37.7472C20.3475 37.9583 20.223 38.428 20.4304 38.7955C22.2764 42.0495 25.2418 44.2331 28.5434 45.1335C31.8455 46.0339 35.4866 45.6515 38.6832 43.774C38.6982 43.7651 38.7124 43.7558 38.7266 43.7464C41.8986 41.8659 44.0287 38.8616 44.909 35.5186C45.7939 32.1586 45.4181 28.4536 43.573 25.2009C42.2531 22.8748 40.3234 21.0537 38.0679 19.8841L38.0675 19.8833Z" fill="white"/>
<path fill-rule="evenodd" clip-rule="evenodd" d="M20.4203 34.546C20.1853 33.44 20.1054 32.3124 20.1783 31.1962C20.2512 30.0779 20.4766 28.9723 20.8515 27.9121C20.9919 27.5128 20.7878 27.0732 20.3953 26.9299C20.0029 26.787 19.5709 26.9947 19.43 27.3941C19.0051 28.5954 18.7501 29.843 18.6681 31.1C18.586 32.3586 18.6756 33.6282 18.9397 34.8716C19.028 35.2874 19.4309 35.5519 19.8396 35.4621C20.2483 35.3722 20.5082 34.9623 20.4199 34.5464L20.4203 34.546Z" fill="white"/>
<path fill-rule="evenodd" clip-rule="evenodd" d="M63.7575 38.9912L57.7405 31.9995L63.7946 24.9587C64.0842 24.6221 64.0504 24.1104 63.7196 23.8158C63.5688 23.6814 63.3818 23.6153 63.1955 23.6153V23.6123H47.7823L45.6605 22.7183V19.6847C45.6605 19.2498 45.486 18.8547 45.2048 18.5681L45.2014 18.5647C44.9198 18.2781 44.5315 18.1005 44.1041 18.1005H41.1229L39.9864 15.3086C39.8231 14.9046 39.5143 14.6057 39.1481 14.4502C38.7832 14.295 38.3587 14.2827 37.9617 14.4485L35.21 15.6083L33.1019 13.4633L33.1003 13.465L33.0986 13.4633C32.7945 13.1542 32.3974 12.9995 32.0013 12.9995C31.6051 12.9995 31.2043 13.1542 30.9006 13.4633L28.7925 15.6083L26.0409 14.4485C25.6438 14.2823 25.2193 14.295 24.8544 14.4502C24.4877 14.6057 24.1795 14.9042 24.0161 15.3086L22.8796 18.1005H19.8984C19.4997 18.1005 19.1356 18.2548 18.8598 18.5075C18.8386 18.5253 18.8177 18.5439 18.7977 18.5643C18.5161 18.8509 18.3415 19.2472 18.3415 19.6843V22.7178L16.2198 23.6119H0.804468V23.6148C0.618245 23.6148 0.431188 23.6805 0.280377 23.8154C-0.0504095 24.11 -0.083738 24.6216 0.205387 24.9582L6.25952 31.9991L0.242882 38.9912C0.09332 39.1387 0 39.3456 0 39.5745C0 40.0234 0.357449 40.3872 0.798636 40.3872H16.2206L18.3424 41.2812V44.3148C18.3424 44.7518 18.5165 45.1482 18.7986 45.4347C19.0802 45.7213 19.4697 45.8989 19.8992 45.8989H22.8805L24.017 48.6909C24.1803 49.0949 24.489 49.3937 24.8552 49.5493C25.2201 49.7044 25.6447 49.7172 26.0417 49.551L28.7934 48.3911L30.9014 50.5362L30.9031 50.5345C31.2089 50.8448 31.6063 50.9999 32.0021 50.9999C32.3979 50.9999 32.7986 50.8452 33.1028 50.5362L35.2108 48.3911L37.9625 49.551C38.3595 49.7172 38.784 49.7044 39.149 49.5493C39.5152 49.3937 39.8239 49.0953 39.9872 48.6909L41.1237 45.8989H44.1049C44.5345 45.8989 44.924 45.7217 45.2056 45.4347L45.2039 45.433L45.2056 45.4314C45.4872 45.1448 45.6614 44.7497 45.6614 44.3148V41.2812L47.7832 40.3872H63.2022C63.6434 40.3872 64.0008 40.0234 64.0008 39.5745C64.0008 39.3456 63.9079 39.1391 63.758 38.9912H63.7575ZM61.4391 25.238L56.3236 31.1873H50.4519C50.4011 31.1017 50.342 31.0194 50.2736 30.9427C50.2566 30.9211 50.2378 30.8999 50.2182 30.8799L48.1102 28.7349L49.25 25.9349C49.3425 25.706 49.3783 25.4682 49.3646 25.238H61.4395H61.4391ZM2.5563 38.7619L7.6764 32.8126H8.80416C9.24368 32.8126 9.60279 32.4467 9.60279 31.9999C9.60279 31.5531 9.24326 31.1873 8.80416 31.1873H7.67682L2.5613 25.238H14.6392C14.6254 25.4686 14.6612 25.7065 14.7537 25.9349L15.8936 28.7349L13.7855 30.8799C13.6926 30.9745 13.6143 31.0775 13.5501 31.1873H11.5842C11.1451 31.1873 10.7855 31.5531 10.7855 31.9999C10.7855 32.4467 11.1451 32.8126 11.5842 32.8126H13.5522C13.6022 32.8974 13.661 32.9783 13.728 33.0542C13.7459 33.0767 13.7651 33.0987 13.7859 33.1195L15.894 35.2645L14.7541 38.0645C14.6617 38.2934 14.6258 38.5312 14.6396 38.7619H2.5563ZM44.5599 39.9921C44.2524 40.1205 44.0666 40.4228 44.0662 40.7411H44.0637V44.2732H40.5925C40.2363 44.2732 39.9343 44.5106 39.8314 44.8387L38.5299 48.0363L35.3237 46.6849C35.0175 46.5569 34.6784 46.6374 34.458 46.8612L34.4563 46.8595L32.0017 49.3573L29.547 46.8595C29.2954 46.6035 28.9171 46.5539 28.6167 46.7116L25.4739 48.0363L24.1474 44.7781C24.0211 44.4652 23.7241 44.2758 23.4112 44.2758V44.2732H19.9401V40.7411C19.9401 40.3787 19.7063 40.0713 19.3843 39.9666L16.2418 38.6423L17.57 35.3798C17.6958 35.0683 17.6166 34.7232 17.3967 34.4989L17.3983 34.4972L14.9437 31.9995L17.3983 29.5018C17.65 29.2457 17.6987 28.8608 17.5437 28.5552L16.2418 25.3571L19.4439 24.0074C19.7513 23.8789 19.9376 23.5767 19.9376 23.2583H19.9401V19.7262H23.4112C23.7674 19.7262 24.0695 19.4888 24.1724 19.1607L25.4739 15.9631L28.6801 17.3146C28.9863 17.4426 29.3254 17.3621 29.5458 17.1382L29.5474 17.1399L32.0021 14.6422L34.4567 17.1399C34.7084 17.396 35.0866 17.4456 35.387 17.2879L38.5299 15.9631L39.8564 19.2214C39.9826 19.5342 40.2797 19.7237 40.5925 19.7237V19.7262H44.0637V23.2583C44.0637 23.6208 44.2974 23.9281 44.6194 24.0328L47.7619 25.3571L46.4338 28.6196C46.308 28.9312 46.3871 29.2763 46.6071 29.5005L46.6054 29.5022L49.0601 31.9999L46.6054 34.4977C46.3538 34.7537 46.305 35.1386 46.46 35.4443L47.7619 38.6423L44.5599 39.9921ZM53.4299 38.7619H49.3646C49.3783 38.5312 49.3425 38.2934 49.25 38.0645L48.1102 35.2645L50.2182 33.1195C50.3107 33.0254 50.3895 32.922 50.4536 32.8122H56.324L61.4441 38.7614H53.4294L53.4299 38.7619Z" fill="white"/>
<path fill-rule="evenodd" clip-rule="evenodd" d="M29.5263 28.2624C29.6184 28.2624 29.7567 28.2467 29.8642 28.2153L30.9694 27.8715V35.1654H30.3358C29.8209 35.1654 29.3992 35.594 29.3992 36.1184C29.3992 36.6428 29.8209 37.0714 30.3358 37.0714H33.4757C33.9907 37.0714 34.4123 36.6428 34.4123 36.1184C34.4123 35.594 33.9911 35.1654 33.4757 35.1654H32.8421V26.8719C32.8421 26.3407 32.443 25.9189 31.9056 25.9189H31.8747C31.5985 25.9189 31.3223 25.9813 30.9536 26.0906L29.3268 26.6218C28.9431 26.7312 28.6973 27.0436 28.6973 27.4497C28.6973 27.8872 29.081 28.2619 29.5263 28.2619V28.2624Z" fill="white"/>
</g>
<defs>
<clipPath id="clip0_14774_3480">
<rect width="64" height="38" fill="white" transform="translate(0 13)"/>
</clipPath>
</defs>
</svg>
