<svg width="64" height="64" viewBox="0 0 64 64" fill="none" xmlns="http://www.w3.org/2000/svg">
<mask id="mask0_3325_659" style="mask-type:luminance" maskUnits="userSpaceOnUse" x="5" y="5" width="54" height="54">
<path d="M57.9968 57.9966V6.66974H6.66992V57.9966H57.9968Z" fill="white" stroke="white" stroke-width="2"/>
</mask>
<g mask="url(#mask0_3325_659)">
<path d="M32.3316 57.4341C46.1946 57.4341 57.4327 46.196 57.4327 32.333V7.23186H32.3316C18.4686 7.23186 7.23047 18.47 7.23047 32.333C7.23047 46.196 18.4686 57.4341 32.3316 57.4341Z" stroke="#606C7A" stroke-width="2" stroke-miterlimit="10"/>
<path d="M32.3323 51.1846C21.9374 51.1846 13.4805 42.7277 13.4805 32.3327C13.4805 21.9377 21.9374 13.4808 32.3323 13.4808H51.1842V32.3327C51.1842 42.7277 42.7273 51.1846 32.3323 51.1846Z" stroke="#606C7A" stroke-width="2" stroke-miterlimit="10"/>
<path d="M32.3311 44.9355C25.382 44.9355 19.7285 39.2821 19.7285 32.3329C19.7285 25.3838 25.382 19.7303 32.3311 19.7303H44.9338V32.3329C44.9338 39.2821 39.2803 44.9355 32.3311 44.9355Z" stroke="#606C7A" stroke-width="2" stroke-miterlimit="10"/>
<path d="M32.3339 38.6865C28.8305 38.6865 25.9805 35.8365 25.9805 32.3331C25.9805 28.8298 28.8305 25.9797 32.3339 25.9797H38.6873V32.3331C38.6873 35.8365 35.8372 38.6865 32.3339 38.6865Z" stroke="#606C7A" stroke-width="2" stroke-miterlimit="10"/>
</g>
</svg>
