<svg width="116" height="32" viewBox="0 0 116 32" fill="none" xmlns="http://www.w3.org/2000/svg">
<g clip-path="url(#clip0_16716_5078)">
<path d="M43.993 8.60547L38.4844 23.7472H40.9357L42.337 19.7393H48.3166L49.716 23.7472H52.1673L46.6586 8.60547H43.9911H43.993ZM43.0106 17.8184L45.2708 11.3569H45.3905L47.6468 17.8184H43.0106Z" fill="#213245"/>
<path d="M55.9031 8.60547H53.668V23.7472H55.9031V8.60547Z" fill="#213245"/>
<path d="M63.2322 21.8902C63.0971 21.915 62.9408 21.9265 62.7613 21.9265C62.5181 21.9265 62.2922 21.8883 62.0857 21.8119C61.8792 21.7355 61.7113 21.5904 61.5819 21.3746C61.4526 21.1608 61.387 20.8381 61.387 20.4104V14.1627H63.7418V12.3889H61.387V9.66797H59.1519V12.3889H57.4707V14.1627H59.1519V20.8686C59.1519 21.5541 59.3082 22.1231 59.6228 22.5757C59.9374 23.0282 60.3486 23.3643 60.8562 23.5819C61.3638 23.7996 61.912 23.9027 62.5007 23.8932C62.8597 23.8874 63.1589 23.8607 63.3982 23.8072C63.6376 23.7557 63.8209 23.7041 63.9522 23.6564L63.5488 21.831C63.4735 21.8463 63.3693 21.8654 63.2342 21.8902H63.2322Z" fill="#213245"/>
<path d="M73.145 12.9831C72.6934 12.7024 72.2108 12.5096 71.6955 12.4026C71.1801 12.2976 70.6918 12.2441 70.2344 12.2441C69.5414 12.2441 68.8813 12.3415 68.254 12.5363C67.6267 12.731 67.0728 13.0423 66.5902 13.4681C66.1096 13.8939 65.7448 14.4533 65.4958 15.1426L67.5958 15.6162C67.7599 15.2171 68.0571 14.8543 68.4895 14.5259C68.9199 14.1975 69.5125 14.0352 70.2652 14.0352C71.018 14.0352 71.5314 14.2128 71.8982 14.5679C72.2649 14.9231 72.4483 15.4233 72.4483 16.0687V16.1203C72.4483 16.3857 72.3517 16.5785 72.1568 16.6969C71.9618 16.8153 71.6511 16.8993 71.2226 16.9528C70.7941 17.0043 70.2363 17.0692 69.5492 17.1494C69.0068 17.2144 68.4721 17.3079 67.9491 17.4301C67.426 17.5542 66.9531 17.7356 66.5285 17.9781C66.1058 18.2206 65.768 18.5471 65.519 18.9615C65.27 19.3758 65.1445 19.9028 65.1445 20.5444C65.1445 21.2891 65.3144 21.9173 65.656 22.429C65.9977 22.9407 66.4628 23.3322 67.0496 23.6014C67.6383 23.8706 68.2945 24.0043 69.0222 24.0043C69.6553 24.0043 70.1977 23.9126 70.6513 23.7312C71.1049 23.5479 71.4754 23.3188 71.765 23.0438C72.0545 22.7689 72.2707 22.4863 72.4154 22.2018H72.5062V23.7541H74.6892V16.2119C74.6892 15.3832 74.5444 14.7092 74.2549 14.1898C73.9654 13.6705 73.5967 13.2695 73.145 12.9888V12.9831ZM72.454 19.6527C72.454 20.1014 72.3382 20.5215 72.1066 20.9129C71.875 21.3043 71.5391 21.6213 71.0971 21.8619C70.6571 22.1025 70.1263 22.2247 69.5086 22.2247C68.891 22.2247 68.3544 22.0853 67.9471 21.8065C67.5379 21.5277 67.3333 21.1153 67.3333 20.5673C67.3333 20.1721 67.4395 19.857 67.6518 19.6164C67.8641 19.3777 68.1479 19.1944 68.503 19.0665C68.8601 18.9386 69.2538 18.8469 69.6881 18.7935C69.8715 18.7686 70.1012 18.7381 70.3753 18.7018C70.6493 18.6655 70.9311 18.6235 71.2207 18.5758C71.5102 18.53 71.7669 18.4727 71.9947 18.4058C72.2224 18.339 72.3749 18.2665 72.454 18.1882V19.6527Z" fill="#213245"/>
<path d="M84.8651 12.7272C84.2764 12.4045 83.5912 12.2422 82.8095 12.2422C81.9467 12.2422 81.2344 12.4255 80.6689 12.7902C80.1034 13.1549 79.6884 13.638 79.424 14.2394H79.2811V12.3911H77.1367V23.7484H79.3718V17.0062C79.3718 16.4047 79.4877 15.8911 79.7193 15.4653C79.9509 15.0395 80.2674 14.7149 80.6689 14.4934C81.0704 14.2719 81.5298 14.1612 82.047 14.1612C82.8037 14.1612 83.4001 14.3941 83.8324 14.86C84.2667 15.3259 84.4829 15.9713 84.4829 16.7942V23.7522H86.718V16.5288C86.718 15.5932 86.5559 14.8065 86.2316 14.1707C85.9074 13.5349 85.4518 13.0556 84.8631 12.7329L84.8651 12.7272Z" fill="#213245"/>
<path d="M91.4148 12.3926H89.1797V23.7498H91.4148V12.3926Z" fill="#213245"/>
<path d="M90.3094 8C89.9214 8 89.5875 8.12984 89.3115 8.38761C89.0355 8.64538 88.8965 8.95853 88.8965 9.32323C88.8965 9.68793 89.0355 9.99153 89.3115 10.2512C89.5875 10.5109 89.9214 10.6388 90.3094 10.6388C90.6973 10.6388 91.0312 10.509 91.3073 10.2512C91.5833 9.99153 91.7222 9.6822 91.7222 9.32323C91.7222 8.96426 91.5833 8.64729 91.3073 8.38761C91.0312 8.12793 90.6973 8 90.3094 8Z" fill="#213245"/>
<path d="M101.619 12.7272C101.03 12.4045 100.345 12.2422 99.5634 12.2422C98.7006 12.2422 97.9884 12.4255 97.4228 12.7902C96.8573 13.1549 96.4423 13.638 96.1779 14.2394H96.035V12.3911H93.8906V23.7484H96.1257V17.0062C96.1257 16.4047 96.2416 15.8911 96.4732 15.4653C96.7048 15.0395 97.0213 14.7149 97.4228 14.4934C97.8243 14.2719 98.2837 14.1612 98.801 14.1612C99.5576 14.1612 100.154 14.3941 100.586 14.86C101.021 15.3259 101.237 15.9713 101.237 16.7942V23.7522H103.472V16.5288C103.472 15.5932 103.31 14.8065 102.986 14.1707C102.661 13.5349 102.206 13.0556 101.617 12.7329L101.619 12.7272Z" fill="#213245"/>
<path d="M115.81 17.9513C115.81 16.9202 115.671 16.0457 115.391 15.322C115.111 14.6003 114.731 14.0122 114.248 13.5577C113.766 13.1052 113.22 12.7711 112.612 12.5591C112.004 12.3472 111.376 12.2402 110.728 12.2402C109.662 12.2402 108.732 12.4885 107.937 12.9868C107.142 13.4852 106.524 14.1764 106.084 15.0643C105.644 15.9522 105.422 16.9775 105.422 18.1403C105.422 19.3032 105.642 20.3457 106.084 21.2202C106.526 22.0948 107.153 22.7726 107.968 23.2538C108.782 23.735 109.755 23.9736 110.886 23.9736C111.724 23.9736 112.469 23.8476 113.125 23.5937C113.779 23.3397 114.326 22.9826 114.762 22.5225C115.198 22.0623 115.501 21.5238 115.671 20.9071L113.556 20.5309C113.42 20.8861 113.227 21.184 112.973 21.4265C112.718 21.669 112.417 21.8484 112.067 21.9706C111.718 22.0909 111.332 22.152 110.909 22.152C110.257 22.152 109.686 22.0127 109.197 21.7339C108.709 21.4551 108.329 21.0503 108.057 20.5176C107.804 20.023 107.671 19.4273 107.653 18.7361H115.812V17.9532L115.81 17.9513ZM107.655 17.0787C107.682 16.5899 107.806 16.1335 108.028 15.7077C108.279 15.2228 108.638 14.8275 109.105 14.5239C109.57 14.2203 110.118 14.0695 110.745 14.0695C111.322 14.0695 111.828 14.1993 112.258 14.4609C112.689 14.7225 113.025 15.0776 113.264 15.5302C113.503 15.9808 113.623 16.4982 113.623 17.0787H107.657H107.655Z" fill="#213245"/>
<path d="M17.8964 13.3636C17.3309 13.3426 16.7576 13.333 16.1747 13.333C15.5918 13.333 15.0186 13.3426 14.453 13.3636C14.3025 13.3674 14.1519 13.3731 14.0014 13.3808C13.8508 13.3884 13.7003 13.396 13.5497 13.4037C11.6022 13.5068 9.77432 13.7264 8.1279 14.0395C7.97542 14.0681 7.82486 14.0968 7.67624 14.1292C7.52376 14.1598 7.37128 14.1923 7.22265 14.2247C5.42954 14.6181 3.8912 15.126 2.69643 15.716C2.51114 15.8095 2.33163 15.9031 2.16564 15.9986C2.33356 16.094 2.51114 16.1876 2.69643 16.2812C3.88927 16.8731 5.42954 17.381 7.22265 17.7724C7.29214 19.6799 7.47164 21.5168 7.75538 23.2181C3.1037 22.2825 0 20.5945 0 18.666V13.333C0 11.4045 3.1037 9.71466 7.75345 8.77904C7.90786 8.74658 8.0642 8.71603 8.22441 8.68739C8.38075 8.65684 8.53709 8.63011 8.69537 8.60338C10.3765 8.31505 12.2295 8.11838 14.1905 8.0401C14.3411 8.03437 14.4936 8.02864 14.648 8.02291C14.7985 8.01909 14.951 8.01337 15.1054 8.01146C15.4567 8.00382 15.8119 8 16.1709 8C16.5299 8 16.8831 8.00382 17.2363 8.01146C17.5625 9.64401 17.7864 11.4561 17.8945 13.3636H17.8964Z" fill="url(#paint0_linear_16716_5078)"/>
<path d="M23.5474 24.327C22.6016 28.9287 20.8934 31.9972 18.944 31.9972H13.553C11.6036 31.9972 9.89539 28.9268 8.94961 24.327C8.9168 24.1743 8.88592 24.0196 8.85697 23.8611C8.82608 23.7065 8.79906 23.5518 8.77204 23.3952C8.48059 21.7321 8.28178 19.8991 8.20264 17.9591C8.19685 17.8102 8.19106 17.6574 8.18527 17.5066C8.18141 17.3576 8.17562 17.2068 8.17369 17.054C8.16597 16.7065 8.16211 16.3552 8.16211 16C8.16211 15.6449 8.16597 15.2955 8.17369 14.946C9.82398 14.6233 11.6557 14.4018 13.5839 14.2949C13.5627 14.8544 13.553 15.4215 13.553 15.9981C13.553 16.5748 13.5627 17.1419 13.5839 17.7013C13.5878 17.8503 13.5936 17.9992 13.6013 18.1481C13.609 18.2971 13.6167 18.446 13.6245 18.5949C13.7287 20.5215 13.9507 22.3298 14.2672 23.9585C14.2962 24.1094 14.3251 24.2583 14.3579 24.4053C14.3888 24.5562 14.4216 24.707 14.4544 24.854C14.852 26.6279 15.3655 28.1497 15.9619 29.3316C16.0565 29.5149 16.151 29.6925 16.2475 29.8567C16.3441 29.6906 16.4386 29.5149 16.5332 29.3316C17.1316 28.1516 17.645 26.6279 18.0407 24.854C19.9689 24.7853 21.8257 24.6077 23.5455 24.327H23.5474Z" fill="url(#paint1_linear_16716_5078)"/>
<path d="M7.75533 23.2214C7.68199 23.2061 7.61057 23.1908 7.53722 23.1775C7.46581 23.1622 7.39439 23.1469 7.32298 23.1316C7.09522 23.082 6.87132 23.0324 6.65321 22.9808C6.54898 22.9541 6.44475 22.9292 6.34245 22.9044C5.98731 22.8147 5.64374 22.7192 5.31175 22.6199C5.24999 22.6027 5.18822 22.5836 5.12839 22.5645C5.06469 22.5455 5.00293 22.5245 4.93923 22.5054C4.8157 22.4672 4.69603 22.4271 4.57829 22.387C4.46055 22.3469 4.34474 22.3068 4.23086 22.2648C4.18068 22.2476 4.13049 22.2285 4.08224 22.2113C3.51091 21.9994 2.9917 21.7721 2.52846 21.5335C2.46477 21.501 2.403 21.4666 2.34124 21.4342C1.99188 21.2451 1.67919 21.0485 1.40318 20.8442C1.35879 20.8098 1.31246 20.7773 1.27193 20.743C1.22367 20.7067 1.17542 20.6666 1.13103 20.6303C1.0268 20.5444 0.932221 20.4585 0.841503 20.3706C0.8029 20.3305 0.764297 20.2923 0.727624 20.2522C0.650418 20.172 0.580932 20.0918 0.517237 20.0117C0.480564 19.9658 0.445821 19.9181 0.413008 19.8723C0.385986 19.836 0.362824 19.7978 0.337732 19.7596C0.328081 19.7482 0.32036 19.7367 0.31457 19.7233C0.291408 19.6871 0.270176 19.6489 0.250875 19.6107C0.231573 19.5744 0.212272 19.5381 0.1949 19.5018C0.187179 19.4904 0.183319 19.4789 0.177529 19.4656C0.160157 19.4255 0.142786 19.3854 0.127345 19.3453C0.109973 19.3013 0.0945318 19.2555 0.0810207 19.2116C0.0810207 19.2078 0.0771604 19.2059 0.0771604 19.2021C0.0655795 19.1658 0.0559287 19.1276 0.0462779 19.0913C0.0327668 19.034 0.0211858 18.9748 0.0134652 18.9156C0.0076747 18.8794 0.00381438 18.8431 0.00188423 18.8068C0.00188423 18.803 0.00188423 18.8011 0.00188423 18.7973C-0.00197609 18.7533 -0.00390625 18.7094 -0.00390625 18.6655C-0.00390625 17.6936 0.783598 16.7847 2.1598 15.998C2.32773 16.0935 2.5053 16.1871 2.6906 16.2806C2.91642 16.3933 3.15576 16.5021 3.40668 16.6072C3.48582 16.6415 3.56689 16.674 3.64988 16.7064C3.73481 16.7427 3.82167 16.7752 3.90853 16.8096C3.99731 16.8439 4.0861 16.8764 4.17489 16.9088C4.2656 16.9413 4.35632 16.9738 4.44897 17.0062C4.51074 17.0291 4.5725 17.0482 4.63813 17.0692C4.7327 17.1017 4.82728 17.1322 4.92379 17.1647C5.00679 17.1895 5.08978 17.2163 5.17471 17.243C5.41598 17.3155 5.66497 17.3862 5.91975 17.4568C5.99889 17.4798 6.07609 17.5008 6.15716 17.5199C6.39264 17.581 6.63391 17.6401 6.8829 17.6974C6.96976 17.7184 7.05854 17.7375 7.14733 17.7566C7.17049 17.7604 7.19366 17.7662 7.21682 17.7719C7.2863 19.6794 7.46581 21.5163 7.74954 23.2176L7.75533 23.2214Z" fill="#00ACEA"/>
<path d="M14.5254 18.6241C15.0909 18.6451 15.6642 18.6546 16.2471 18.6546C16.83 18.6546 17.4033 18.6451 17.9688 18.6241C18.1193 18.6202 18.2699 18.6145 18.4205 18.6069C18.571 18.5992 18.7216 18.5916 18.8721 18.584C20.8196 18.4809 22.6475 18.2613 24.2939 17.9481C24.4464 17.9195 24.597 17.8908 24.7456 17.8584C24.8981 17.8278 25.0505 17.7954 25.1992 17.7629C26.9923 17.3696 28.5306 16.8617 29.7254 16.2716C29.9107 16.1781 30.0902 16.0845 30.2562 15.9891C30.0883 15.8936 29.9107 15.8 29.7254 15.7065C28.5326 15.1145 26.9923 14.6066 25.1992 14.2152C25.1297 12.3077 24.9502 10.4708 24.6664 8.76953C29.3181 9.70515 32.4199 11.395 32.4199 13.3235V18.6565C32.4199 20.585 29.3162 22.2749 24.6664 23.2105C24.512 23.2429 24.3557 23.2735 24.1955 23.3021C24.0391 23.3327 23.8828 23.3594 23.7245 23.3862C22.0434 23.6745 20.1904 23.8711 18.2294 23.9494C18.0788 23.9552 17.9263 23.9609 17.7719 23.9666C17.6214 23.9704 17.4689 23.9762 17.3145 23.9781C16.9632 23.9857 16.608 23.9895 16.249 23.9895C15.89 23.9895 15.5368 23.9857 15.1836 23.9781C14.8574 22.3455 14.6335 20.5335 14.5254 18.626V18.6241Z" fill="url(#paint2_linear_16716_5078)"/>
<path d="M24.668 8.76758C24.7413 8.78285 24.8127 8.79813 24.8861 8.8115C24.9575 8.82677 25.0289 8.84205 25.1003 8.85732C25.3281 8.90697 25.552 8.95661 25.7701 9.00817C25.8743 9.0349 25.9785 9.05972 26.0808 9.08454C26.436 9.17429 26.7796 9.26976 27.1115 9.36905C27.1733 9.38623 27.2351 9.40533 27.2949 9.42442C27.3586 9.44351 27.4204 9.46452 27.4841 9.48361C27.6076 9.5218 27.7273 9.5619 27.845 9.602C27.9627 9.64209 28.0786 9.68219 28.1924 9.7242C28.2426 9.74138 28.2928 9.76048 28.3411 9.77766C28.9124 9.98961 29.4316 10.2168 29.8948 10.4555C29.9585 10.488 30.0203 10.5223 30.0821 10.5548C30.4314 10.7438 30.7441 10.9405 31.0201 11.1448C31.0645 11.1792 31.1108 11.2116 31.1514 11.246C31.1996 11.2823 31.2479 11.3224 31.2923 11.3587C31.3965 11.4446 31.4911 11.5305 31.5818 11.6183C31.6204 11.6584 31.659 11.6966 31.6957 11.7367C31.7729 11.8169 31.8424 11.8971 31.9061 11.9773C31.9427 12.0231 31.9775 12.0709 32.0103 12.1167C32.0373 12.153 32.0605 12.1912 32.0856 12.2294C32.0952 12.2408 32.1029 12.2523 32.1087 12.2656C32.1319 12.3019 32.1531 12.3401 32.1724 12.3783C32.1917 12.4146 32.211 12.4509 32.2284 12.4871C32.2361 12.4986 32.24 12.51 32.2458 12.5234C32.2631 12.5635 32.2805 12.6036 32.296 12.6437C32.3133 12.6876 32.3288 12.7334 32.3423 12.7774C32.3423 12.7812 32.3461 12.7831 32.3461 12.7869C32.3577 12.8232 32.3674 12.8614 32.377 12.8977C32.3905 12.9549 32.4021 13.0141 32.4098 13.0733C32.4156 13.1096 32.4195 13.1459 32.4214 13.1822C32.4214 13.186 32.4214 13.1879 32.4214 13.1917C32.4253 13.2356 32.4272 13.2795 32.4272 13.3235C32.4272 14.2954 31.6397 15.2042 30.2635 15.9909C30.0956 15.8955 29.918 15.8019 29.7327 15.7083C29.5069 15.5957 29.2675 15.4868 29.0166 15.3818C28.9375 15.3474 28.8564 15.315 28.7734 15.2825C28.6885 15.2462 28.6016 15.2138 28.5148 15.1794C28.426 15.145 28.3372 15.1126 28.2484 15.0801C28.1577 15.0477 28.067 15.0152 27.9743 14.9827C27.9126 14.9598 27.8508 14.9407 27.7852 14.9197C27.6906 14.8873 27.596 14.8567 27.4995 14.8243C27.4165 14.7994 27.3335 14.7727 27.2486 14.746C27.0073 14.6734 26.7583 14.6028 26.5036 14.5321C26.4244 14.5092 26.3472 14.4882 26.2661 14.4691C26.0307 14.408 25.7894 14.3488 25.5404 14.2915C25.4535 14.2705 25.3648 14.2514 25.276 14.2323C25.2528 14.2285 25.2296 14.2228 25.2065 14.2171C25.137 12.3096 24.9575 10.4727 24.6738 8.7714L24.668 8.76758Z" fill="#00ACEA"/>
<path d="M23.5479 24.3281C23.4707 24.7024 23.3896 25.0652 23.3047 25.4165C23.2777 25.5196 23.2526 25.6227 23.2275 25.7239C22.8955 27.009 22.4998 28.1393 22.054 29.073C22.0347 29.117 22.0134 29.1571 21.9941 29.1972C21.9439 29.3003 21.8938 29.3995 21.8436 29.495C21.8108 29.558 21.776 29.6191 21.7432 29.6802C21.7046 29.749 21.666 29.8196 21.6255 29.8884C21.6023 29.9304 21.5753 29.9705 21.5502 30.0125C21.5 30.0946 21.4518 30.1729 21.3996 30.2492C21.3745 30.2874 21.3495 30.3256 21.3224 30.3638C21.2973 30.402 21.2723 30.4383 21.2452 30.4746C21.0213 30.7877 20.7878 31.0588 20.5484 31.2784C20.5079 31.3166 20.4674 31.3529 20.4268 31.3873C20.3863 31.4235 20.3438 31.456 20.3033 31.4865C20.1894 31.5763 20.0736 31.6527 19.9559 31.7176C19.9385 31.729 19.9192 31.7386 19.8999 31.7481C19.8517 31.7749 19.8034 31.7978 19.7532 31.8207C19.7127 31.8379 19.6721 31.8551 19.6316 31.8703C19.5621 31.8971 19.4926 31.92 19.4212 31.9372C19.4058 31.941 19.3903 31.9448 19.3749 31.9486C19.346 31.9544 19.317 31.962 19.2861 31.9658C19.1742 31.9887 19.0603 31.9983 18.9445 31.9983C17.962 31.9983 17.0433 31.2192 16.248 29.8578C16.3446 29.6917 16.4391 29.516 16.5337 29.3327C16.9371 28.5365 17.3 27.5875 17.6165 26.5106C17.6339 26.4552 17.6493 26.3998 17.6648 26.3426C17.6841 26.2738 17.7034 26.207 17.7227 26.1363C17.7458 26.0581 17.7671 25.9817 17.7864 25.9015C17.8752 25.5635 17.9601 25.216 18.0412 24.8551C19.9694 24.7864 21.8262 24.6088 23.546 24.3281H23.5479Z" fill="#00ACEA"/>
<path d="M8.94922 7.67015C9.895 3.07035 11.6032 0 13.5526 0H18.9436C20.893 0 22.6012 3.07035 23.547 7.67015C23.5798 7.8229 23.6107 7.97756 23.6397 8.13605C23.6705 8.29071 23.6976 8.44537 23.7246 8.60194C24.016 10.2651 24.2148 12.0981 24.294 14.0381C24.2998 14.187 24.3056 14.3398 24.3114 14.4906C24.3152 14.6395 24.321 14.7904 24.3229 14.9431C24.3307 15.2907 24.3345 15.642 24.3345 15.9971C24.3345 16.3523 24.3307 16.7017 24.3229 17.0511C22.6726 17.3738 20.8409 17.5953 18.9127 17.7022C18.9339 17.1428 18.9436 16.5757 18.9436 15.999C18.9436 15.4224 18.9339 14.8553 18.9127 14.2958C18.9088 14.1469 18.903 13.998 18.8953 13.849C18.8876 13.7001 18.8799 13.5512 18.8722 13.4022C18.7679 11.4756 18.546 9.6674 18.2294 8.03867C18.2005 7.88782 18.1715 7.73889 18.1387 7.59186C18.1078 7.44102 18.075 7.29017 18.0422 7.14315C17.6446 5.36929 17.1312 3.84749 16.5347 2.66555C16.4402 2.48225 16.3456 2.30467 16.2491 2.14046C16.1526 2.30658 16.058 2.48225 15.9634 2.66555C15.3651 3.84558 14.8516 5.36929 14.456 7.14315C12.5277 7.21189 10.6709 7.38946 8.95115 7.67015H8.94922Z" fill="url(#paint3_linear_16716_5078)"/>
<path d="M8.94922 7.67015C9.02643 7.2959 9.10749 6.93311 9.19242 6.58178C9.21944 6.47867 9.24453 6.37556 9.26963 6.27436C9.60161 4.98932 9.99729 3.85894 10.4432 2.92523C10.4625 2.88132 10.4837 2.84122 10.503 2.80112C10.5532 2.69801 10.6034 2.59872 10.6535 2.50325C10.6864 2.44024 10.7211 2.37914 10.7539 2.31804C10.7925 2.2493 10.8311 2.17865 10.8717 2.10991C10.8948 2.0679 10.9218 2.02781 10.9469 1.9858C10.9971 1.90369 11.0454 1.82541 11.0975 1.74903C11.1226 1.71084 11.1477 1.67265 11.1747 1.63447C11.1998 1.59628 11.2249 1.56 11.2519 1.52372C11.4758 1.21057 11.7093 0.939436 11.9487 0.719852C11.9892 0.681664 12.0298 0.645385 12.0703 0.611015C12.1108 0.574736 12.1533 0.542276 12.1938 0.511725C12.3077 0.421982 12.4235 0.345605 12.5412 0.280685C12.5586 0.269228 12.5779 0.259681 12.5972 0.250134C12.6455 0.223402 12.6937 0.200489 12.7439 0.177576C12.7844 0.160391 12.825 0.143207 12.8655 0.127931C12.935 0.101199 13.0045 0.0782863 13.0759 0.0611015C13.0913 0.0572827 13.1068 0.0534638 13.1222 0.049645C13.1512 0.0439167 13.1801 0.036279 13.211 0.0324602C13.323 0.00954711 13.4368 0 13.5526 0C14.5351 0 15.4539 0.779044 16.2491 2.14046C16.1526 2.30658 16.058 2.48225 15.9634 2.66555C15.56 3.46178 15.1971 4.41076 14.8806 5.48768C14.8632 5.54305 14.8478 5.59842 14.8323 5.65571C14.813 5.72445 14.7937 5.79128 14.7744 5.86193C14.7513 5.94021 14.73 6.01659 14.7107 6.09678C14.622 6.43475 14.537 6.78227 14.456 7.14315C12.5277 7.21189 10.6709 7.38946 8.95115 7.67015H8.94922Z" fill="#00ACEA"/>
</g>
<defs>
<linearGradient id="paint0_linear_16716_5078" x1="17.8964" y1="15.609" x2="0" y2="15.609" gradientUnits="userSpaceOnUse">
<stop stop-color="#00ACEA"/>
<stop offset="0.23" stop-color="#00B5E6"/>
<stop offset="0.61" stop-color="#00CEDD"/>
<stop offset="1" stop-color="#00EFD1"/>
</linearGradient>
<linearGradient id="paint1_linear_16716_5078" x1="15.8538" y1="14.2949" x2="15.8538" y2="31.9991" gradientUnits="userSpaceOnUse">
<stop stop-color="#00ACEA"/>
<stop offset="0.23" stop-color="#00B5E6"/>
<stop offset="0.61" stop-color="#00CEDD"/>
<stop offset="1" stop-color="#00EFD1"/>
</linearGradient>
<linearGradient id="paint2_linear_16716_5078" x1="14.5254" y1="16.3786" x2="32.4218" y2="16.3786" gradientUnits="userSpaceOnUse">
<stop stop-color="#00ACEA"/>
<stop offset="0.23" stop-color="#00B5E6"/>
<stop offset="0.61" stop-color="#00CEDD"/>
<stop offset="1" stop-color="#00EFD1"/>
</linearGradient>
<linearGradient id="paint3_linear_16716_5078" x1="16.6409" y1="17.7042" x2="16.6409" y2="0" gradientUnits="userSpaceOnUse">
<stop stop-color="#00ACEA"/>
<stop offset="0.23" stop-color="#00B5E6"/>
<stop offset="0.61" stop-color="#00CEDD"/>
<stop offset="1" stop-color="#00EFD1"/>
</linearGradient>
<clipPath id="clip0_16716_5078">
<rect width="115.81" height="32" fill="white"/>
</clipPath>
</defs>
</svg>
