<svg width="417" height="9" viewBox="0 0 417 9" fill="none" xmlns="http://www.w3.org/2000/svg">
<path d="M416.354 4.85355C416.549 4.65829 416.549 4.34171 416.354 4.14645L413.172 0.964466C412.976 0.769204 412.66 0.769204 412.464 0.964466C412.269 1.15973 412.269 1.47631 412.464 1.67157L415.293 4.5L412.464 7.32843C412.269 7.52369 412.269 7.84027 412.464 8.03553C412.66 8.2308 412.976 8.2308 413.172 8.03553L416.354 4.85355ZM0 5H4V4H0V5ZM12 5H20V4H12V5ZM28 5H36V4H28V5ZM44 5H52V4H44V5ZM60 5H68V4H60V5ZM76 5H84V4H76V5ZM92 5H100V4H92V5ZM108 5H116V4H108V5ZM124 5H132V4H124V5ZM140 5H148V4H140V5ZM156 5H164V4H156V5ZM172 5H180V4H172V5ZM188 5H196V4H188V5ZM204 5H212V4H204V5ZM220 5H228V4H220V5ZM236 5H244V4H236V5ZM252 5H260V4H252V5ZM268 5H276V4H268V5ZM284 5H292V4H284V5ZM300 5H308V4H300V5ZM316 5H324V4H316V5ZM332 5H340V4H332V5ZM348 5H356V4H348V5ZM364 5H372V4H364V5ZM380 5H388V4H380V5ZM396 5H404V4H396V5ZM412 5H416V4H412V5Z" fill="#B3B7BC"/>
</svg>
