<svg width="40" height="40" viewBox="0 0 40 40" fill="none" xmlns="http://www.w3.org/2000/svg">
<path d="M31.6597 24.6134L29.5618 18.3192C29.5389 14.6525 28.0568 11.2504 25.3824 8.73331C22.689 6.19871 19.1642 4.92212 15.455 5.15002C8.94823 5.54474 3.61554 10.7351 3.05135 17.2232C2.95254 18.3574 2.99663 19.4938 3.18098 20.6014C4.14467 26.3782 4.59357 31.1 4.59357 35.46V36.4688C4.59357 36.7626 4.83104 37.0001 5.12482 37.0001H19.4686C19.7624 37.0001 19.9998 36.7626 19.9998 36.4688V34.8751H27.4373C27.7311 34.8751 27.9686 34.6376 27.9686 34.3438V32.2188C27.9686 31.925 27.7311 31.6876 27.4373 31.6876H24.7811C23.9024 31.6876 23.1873 30.9725 23.1873 30.0938C23.1873 29.2151 23.9024 28.5001 24.7811 28.5001H27.4373C27.7311 28.5001 27.9686 28.2626 27.9686 27.9688V26.3751H30.0936C30.2349 26.3751 30.3698 26.3193 30.4692 26.2194L31.5317 25.1569C31.674 25.0145 31.7234 24.8041 31.6597 24.6134ZM29.8736 25.3126H27.4373C27.1435 25.3126 26.9061 25.55 26.9061 25.8438V27.4376H24.7811C23.3164 27.4376 22.1248 28.6291 22.1248 30.0938C22.1248 31.5585 23.3164 32.7501 24.7811 32.7501H26.9061V33.8126H19.4686C19.1748 33.8126 18.9373 34.05 18.9373 34.3438V35.9376H5.65607V35.46C5.65607 31.04 5.20238 26.263 4.2286 20.4272C4.05913 19.4077 4.01876 18.3606 4.10907 17.3156C4.62863 11.3476 9.5342 6.57377 15.5193 6.2104C18.9394 6.00534 22.1758 7.17462 24.6536 9.50734C27.134 11.8416 28.4998 15.0021 28.4998 18.4063C28.4998 18.4632 28.5094 18.52 28.5274 18.5742L30.5483 24.6373L29.8736 25.3126Z" fill="#606C7A"/>
<path d="M10.9688 20V20.5312C10.9688 22.5813 12.6374 24.25 14.6875 24.25V23.1875C13.2228 23.1875 12.0312 21.9959 12.0312 20.5312V20C12.0312 19.1213 12.7463 18.4062 13.625 18.4062H14.6875V17.3438H13.625C12.1603 17.3438 10.9688 18.5353 10.9688 20Z" fill="#606C7A"/>
<path d="M20.6672 17.7651L19.916 18.5163C20.7448 19.3451 21.8328 19.7595 22.9213 19.7595C24.0098 19.7595 25.0984 19.3451 25.9266 18.5163L25.1754 17.7651C23.9323 19.0083 21.9103 19.0083 20.6672 17.7651Z" fill="#606C7A"/>
<path d="M33.2812 3C31.2312 3 29.5625 4.66866 29.5625 6.71875V12.0312C29.5625 14.0813 31.2312 15.75 33.2812 15.75C35.3313 15.75 37 14.0813 37 12.0312V6.71875C37 4.66866 35.3313 3 33.2812 3ZM33.2812 4.0625C34.7459 4.0625 35.9375 5.25409 35.9375 6.71875V7.25H30.625V6.71875C30.625 5.25409 31.8166 4.0625 33.2812 4.0625ZM33.2812 14.6875C31.8166 14.6875 30.625 13.4959 30.625 12.0312V8.3125H35.9375V12.0312C35.9375 13.4959 34.7459 14.6875 33.2812 14.6875Z" fill="#606C7A"/>
<path d="M32.75 16.8125H33.8125V17.875H32.75V16.8125Z" fill="#606C7A"/>
<path d="M32.75 18.9375H33.8125V20H32.75V18.9375Z" fill="#606C7A"/>
<path d="M32.75 21.0625H33.8125V22.125H32.75V21.0625Z" fill="#606C7A"/>
<path d="M32.75 23.1875H33.8125V24.25H32.75V23.1875Z" fill="#606C7A"/>
<path d="M32.75 25.3125H33.8125V26.375H32.75V25.3125Z" fill="#606C7A"/>
<path d="M32.75 27.4375H33.8125V28.5H32.75V27.4375Z" fill="#606C7A"/>
<path d="M32.75 29.5625H33.8125V30.625H32.75V29.5625Z" fill="#606C7A"/>
<path d="M30.625 29.5625H31.6875V30.625H30.625V29.5625Z" fill="#606C7A"/>
<path d="M28.5 29.5625H29.5625V30.625H28.5V29.5625Z" fill="#606C7A"/>
<path d="M26.375 29.5625H27.4375V30.625H26.375V29.5625Z" fill="#606C7A"/>
<path d="M24.25 29.5625H25.3125V30.625H24.25V29.5625Z" fill="#606C7A"/>
</svg>
